<svg xmlns="http://www.w3.org/2000/svg" xmlns:xlink="http://www.w3.org/1999/xlink" viewBox="0 0 2134.85 1380.38"><defs><style>.cls-1{fill:url(#linear-gradient);}.cls-2{fill:none;}.cls-3{isolation:isolate;}.cls-4{clip-path:url(#clip-path);}.cls-5{fill:url(#linear-gradient-2);}.cls-6{fill:#beb8f2;}.cls-111,.cls-7,.cls-8,.cls-99{fill:#6165d7;}.cls-109,.cls-35,.cls-37,.cls-43,.cls-48,.cls-7,.cls-76,.cls-8,.cls-85,.cls-87,.cls-99{mix-blend-mode:multiply;}.cls-7{opacity:0.19;}.cls-8{opacity:0.32;}.cls-9{fill:url(#linear-gradient-3);}.cls-10{fill:url(#linear-gradient-4);}.cls-11{fill:url(#linear-gradient-5);}.cls-12{clip-path:url(#clip-path-2);}.cls-13{fill:#fcfdfe;}.cls-14,.cls-76{fill:#d8dee8;}.cls-15{fill:#f4f7fa;}.cls-16,.cls-93{fill:#fff;}.cls-17{fill:#c281e8;}.cls-18{fill:url(#linear-gradient-6);}.cls-19{fill:#f8924e;}.cls-20{fill:#ffc244;}.cls-21{fill:#9c73f4;}.cls-22{fill:url(#linear-gradient-7);}.cls-23{fill:#a67ff7;}.cls-24{fill:url(#linear-gradient-8);}.cls-25{fill:url(#linear-gradient-9);}.cls-26{clip-path:url(#clip-path-3);}.cls-27{fill:url(#linear-gradient-10);}.cls-28{fill:url(#linear-gradient-11);}.cls-29{fill:url(#linear-gradient-12);}.cls-30{clip-path:url(#clip-path-4);}.cls-31{fill:url(#linear-gradient-13);}.cls-32{clip-path:url(#clip-path-5);}.cls-33{fill:url(#linear-gradient-14);}.cls-34{fill:url(#linear-gradient-15);}.cls-35{opacity:0.35;}.cls-36{fill:url(#linear-gradient-16);}.cls-37{opacity:0.13;}.cls-38{fill:url(#linear-gradient-17);}.cls-39{fill:#ffa6a4;}.cls-40{fill:url(#linear-gradient-18);}.cls-41{fill:url(#linear-gradient-19);}.cls-42{fill:url(#linear-gradient-20);}.cls-109,.cls-43{opacity:0.24;}.cls-44{fill:#552d63;}.cls-45{fill:url(#linear-gradient-21);}.cls-46{fill:url(#linear-gradient-22);}.cls-47{fill:url(#linear-gradient-23);}.cls-48{opacity:0.2;}.cls-49{fill:url(#linear-gradient-24);}.cls-50{fill:url(#linear-gradient-25);}.cls-51{fill:url(#linear-gradient-26);}.cls-52{fill:#9f73f8;}.cls-53{fill:#ae87f9;}.cls-54{fill:url(#linear-gradient-27);}.cls-55{fill:url(#linear-gradient-28);}.cls-56{fill:url(#linear-gradient-29);}.cls-57{fill:url(#linear-gradient-30);}.cls-58{fill:url(#linear-gradient-31);}.cls-59{fill:#26264f;}.cls-60{fill:#444b8c;}.cls-61{fill:url(#linear-gradient-32);}.cls-62{fill:#1f1f44;}.cls-63{fill:url(#linear-gradient-33);}.cls-64{fill:url(#linear-gradient-34);}.cls-65{fill:url(#linear-gradient-35);}.cls-66{fill:url(#linear-gradient-36);}.cls-67{fill:url(#linear-gradient-37);}.cls-68{fill:url(#linear-gradient-38);}.cls-69{clip-path:url(#clip-path-6);}.cls-70{fill:url(#linear-gradient-39);}.cls-71{clip-path:url(#clip-path-7);}.cls-72{fill:#5a2f71;}.cls-73{fill:url(#linear-gradient-40);}.cls-74{fill:url(#linear-gradient-41);}.cls-75{clip-path:url(#clip-path-8);}.cls-76{opacity:0.47;}.cls-77{fill:url(#linear-gradient-42);}.cls-78{fill:url(#linear-gradient-43);}.cls-79{fill:url(#linear-gradient-44);}.cls-80{fill:url(#linear-gradient-45);}.cls-81{fill:url(#linear-gradient-46);}.cls-82{fill:url(#linear-gradient-47);}.cls-83{fill:url(#linear-gradient-48);}.cls-84{fill:url(#linear-gradient-49);}.cls-85,.cls-87{opacity:0.25;}.cls-85{fill:url(#linear-gradient-50);}.cls-86{fill:url(#linear-gradient-51);}.cls-87{fill:url(#linear-gradient-52);}.cls-88{fill:url(#linear-gradient-53);}.cls-89{fill:url(#linear-gradient-54);}.cls-90{fill:url(#linear-gradient-55);}.cls-91{fill:url(#linear-gradient-56);}.cls-92{mask:url(#mask);}.cls-93{opacity:0.82;}.cls-94{fill:#6567d9;}.cls-95{fill:url(#linear-gradient-57);}.cls-96{fill:url(#linear-gradient-58);}.cls-97{fill:#726bdf;}.cls-98{fill:url(#linear-gradient-59);}.cls-99{opacity:0.3;}.cls-100{fill:url(#linear-gradient-60);}.cls-101{fill:url(#linear-gradient-61);}.cls-102{fill:url(#linear-gradient-62);}.cls-103{fill:url(#linear-gradient-63);}.cls-104{fill:url(#linear-gradient-64);}.cls-105{fill:url(#linear-gradient-65);}.cls-106{fill:url(#linear-gradient-66);}.cls-107{fill:url(#linear-gradient-67);}.cls-108{fill:url(#linear-gradient-68);}.cls-109{fill:#f8944e;}.cls-110{fill:url(#linear-gradient-69);}.cls-112{fill:url(#linear-gradient-70);}.cls-113{fill:url(#linear-gradient-71);}.cls-114{fill:#4c53a5;}.cls-115{fill:url(#linear-gradient-72);}.cls-116{fill:url(#linear-gradient-73);}.cls-117{fill:url(#linear-gradient-74);}.cls-118{fill:url(#linear-gradient-75);}.cls-119{fill:url(#linear-gradient-76);}.cls-120{fill:url(#linear-gradient-77);}</style><linearGradient id="linear-gradient" x1="1568.52" y1="1477.98" x2="1568.52" y2="1080.21" gradientUnits="userSpaceOnUse"><stop offset="0.3"/><stop offset="0.36" stop-color="#070707"/><stop offset="0.45" stop-color="#1b1b1b"/><stop offset="0.56" stop-color="#3b3b3b"/><stop offset="0.68" stop-color="#686868"/><stop offset="0.81" stop-color="#a2a2a2"/><stop offset="0.95" stop-color="#e7e7e7"/><stop offset="1" stop-color="#fff"/></linearGradient><clipPath id="clip-path" transform="translate(-844.01 -389.81)"><path class="cls-2" d="M2534.71,1124.07q-47.73-1.71-95.57-5.59c-.46.52-18.26-66.4,10.11-105.67,56.27-76.21,6.34-133.5-10-168.91-25.4-49.67-22.3-113.8,36.11-108.32,56.76,4,52.52-111.47,33.14-198.64-12.95-42,21.8-98.63,60.92-115,39.82-17.76,84,4.68,106.11,88.88,30.08,97-35.63,164.78-56.91,217.44-21,51.7,44.72,84.38.16,133.06-37.25,43-86.51,76.41-62,122.53C2581.69,1029.35,2581.3,1068.86,2534.71,1124.07Z"/></clipPath><linearGradient id="linear-gradient-2" x1="2719.98" y1="462.04" x2="2493.8" y2="1104.85" gradientTransform="matrix(-0.92, -0.4, -0.4, 0.92, 5249.41, 1097.73)" gradientUnits="userSpaceOnUse"><stop offset="0" stop-color="#aa80f9"/><stop offset="1" stop-color="#6165d7"/></linearGradient><linearGradient id="linear-gradient-3" x1="2573.82" y1="1113.67" x2="2718.57" y2="1162.33" gradientUnits="userSpaceOnUse"><stop offset="0" stop-color="#ab316d"/><stop offset="1" stop-color="#792d3d"/></linearGradient><linearGradient id="linear-gradient-4" x1="1715.09" y1="658.57" x2="1828.67" y2="658.57" gradientUnits="userSpaceOnUse"><stop offset="0" stop-color="#ffc444"/><stop offset="1" stop-color="#f36f56"/></linearGradient><linearGradient id="linear-gradient-5" x1="2522.91" y1="816.34" x2="2799.47" y2="816.34" gradientUnits="userSpaceOnUse"><stop offset="0" stop-color="#e38ddd"/><stop offset="1" stop-color="#9571f6"/></linearGradient><clipPath id="clip-path-2" transform="translate(-844.01 -389.81)"><path class="cls-2" d="M2675.64,1050.37l-103.83,34.43c-10.92-12.69-27.64-37.25-8.13-51.14,27.12-19.3,9.78-72.66-4.89-88.63-18.16-19.76-59.49-66.66-18-97.16,34.51-25.4,62-34.73,47.74-85.45s2.37-91,48.54-103.45c48.58-13.05,66-89.58,112.16-81.67,80.4,13.78,56.28,144.44-15.42,204.31s-14.24,73.5,1.85,113.49c22,54.61-57.28,68.31-69.71,96.93C2656.17,1014.47,2667.11,1037.13,2675.64,1050.37Z"/></clipPath><linearGradient id="linear-gradient-6" x1="1794.1" y1="721.53" x2="1916.5" y2="721.53" gradientUnits="userSpaceOnUse"><stop offset="0" stop-color="#ff9085"/><stop offset="1" stop-color="#fb6fbb"/></linearGradient><linearGradient id="linear-gradient-7" x1="2201.09" y1="726.97" x2="2444.68" y2="726.97" xlink:href="#linear-gradient-6"/><linearGradient id="linear-gradient-8" x1="1358.93" y1="1149.72" x2="1462.41" y2="1149.72" xlink:href="#linear-gradient-6"/><linearGradient id="linear-gradient-9" x1="1348.39" y1="839.41" x2="1406.45" y2="839.41" xlink:href="#linear-gradient-6"/><clipPath id="clip-path-3" transform="translate(-844.01 -389.81)"><path class="cls-2" d="M1518,723.66q1,31,2,62l156.1,1-2.58-78.86c-41.92-20-65.11-18.13-78.59-12.55-15.17,6.28-23.63,19.61-49.07,25.73A103.42,103.42,0,0,1,1518,723.66Z"/></clipPath><linearGradient id="linear-gradient-10" x1="655" y1="314.38" x2="792.83" y2="436.63" xlink:href="#linear-gradient-6"/><linearGradient id="linear-gradient-11" x1="686.92" y1="280.93" x2="823.47" y2="402.05" xlink:href="#linear-gradient-6"/><linearGradient id="linear-gradient-12" x1="707.58" y1="259.9" x2="843.22" y2="380.21" xlink:href="#linear-gradient-6"/><clipPath id="clip-path-4" transform="translate(-844.01 -389.81)"><path class="cls-2" d="M2184.79,1031.43c14.58-10.26,26.43-12.29,34.8-12.09,10.59.25,14.1,4,25.51,2.59,11.63-1.46,12.4-5.95,25.38-8a69.82,69.82,0,0,1,25.16.89c15,3.27,15.74,8.73,24.91,8.37,8.46-.34,8.94-5,25.46-12.4,7.79-3.48,15.07-6.73,24.8-7.58,10.6-.93,11.45,2.09,24.94,1.91a101.69,101.69,0,0,0,24.31-3.48c14.25-3.55,16-6.73,25.64-8.18,5.72-.85,14.44-1.13,25.81,2.57q1.08,36.43,2.18,72.87l-287.17,7.51Q2185.67,1053.91,2184.79,1031.43Z"/></clipPath><linearGradient id="linear-gradient-13" x1="1792.53" y1="1005.68" x2="2082.85" y2="1005.68" xlink:href="#linear-gradient-6"/><clipPath id="clip-path-5" transform="translate(-844.01 -389.81)"><path class="cls-2" d="M1133.35,1359.91h102.32s19.26-52.49-5.81-89.54c-51.16-75.58,18.6-115.11,45.35-136,40.33-31.57,62.11-77,2.8-96.74s.3-111.67,72.78-153.26c70.93-40.7,39.51-190.27-122.09-116.28-96.52,44.19-81.4,146.51-86,200s-84.2,57.91-57,123.26c23.26,55.81,67.45,96.51,33.72,134.88S1082.19,1307.58,1133.35,1359.91Z"/></clipPath><linearGradient id="linear-gradient-14" x1="1314.43" y1="764.36" x2="1110.73" y2="1343.31" gradientTransform="matrix(1, 0, 0, 1, 0, 0)" xlink:href="#linear-gradient-2"/><linearGradient id="linear-gradient-15" x1="1293.95" y1="1232.76" x2="1701.9" y2="2104.25" xlink:href="#linear-gradient-6"/><linearGradient id="linear-gradient-16" x1="1340.78" y1="1210.84" x2="1748.74" y2="2082.32" xlink:href="#linear-gradient-6"/><linearGradient id="linear-gradient-17" x1="1293.95" y1="1232.76" x2="1701.91" y2="2104.25" xlink:href="#linear-gradient-6"/><linearGradient id="linear-gradient-18" x1="-841.53" y1="1229.36" x2="-756.8" y2="1229.36" gradientTransform="matrix(0.66, -0.75, 0.75, 0.66, 1431.52, 171.13)" gradientUnits="userSpaceOnUse"><stop offset="0" stop-color="#40447e"/><stop offset="1" stop-color="#3c3b6b"/></linearGradient><linearGradient id="linear-gradient-19" x1="1919.64" y1="1349.84" x2="2601.52" y2="2057.44" gradientTransform="translate(-120.12 -124.63) rotate(5.62)" xlink:href="#linear-gradient-4"/><linearGradient id="linear-gradient-20" x1="1244.84" y1="1467.22" x2="1663.79" y2="1689.75" gradientTransform="translate(84.94 52.41) rotate(-3.5)" gradientUnits="userSpaceOnUse"><stop offset="0" stop-color="#311944"/><stop offset="1" stop-color="#6b3976"/></linearGradient><linearGradient id="linear-gradient-21" x1="1086.2" y1="1566.91" x2="1466.09" y2="1496.33" gradientTransform="translate(84.94 52.41) rotate(-3.5)" gradientUnits="userSpaceOnUse"><stop offset="0" stop-color="#311944"/><stop offset="1" stop-color="#893976"/></linearGradient><linearGradient id="linear-gradient-22" x1="1398.76" y1="1634.56" x2="1300.96" y2="1402.98" gradientTransform="translate(84.94 52.41) rotate(-3.5)" xlink:href="#linear-gradient-2"/><linearGradient id="linear-gradient-23" x1="1245.28" y1="1527.41" x2="1203.76" y2="1365.03" gradientTransform="translate(84.94 52.41) rotate(-3.5)" xlink:href="#linear-gradient-2"/><linearGradient id="linear-gradient-24" x1="1245.28" y1="1527.41" x2="1203.76" y2="1365.03" gradientTransform="translate(84.94 52.41) rotate(-3.5)" xlink:href="#linear-gradient-2"/><linearGradient id="linear-gradient-25" x1="1233.47" y1="1474.88" x2="1432.9" y2="1421.99" gradientTransform="translate(84.94 52.41) rotate(-3.5)" xlink:href="#linear-gradient-4"/><linearGradient id="linear-gradient-26" x1="1206.68" y1="1548" x2="1163" y2="1377.15" gradientTransform="translate(84.94 52.41) rotate(-3.5)" gradientUnits="userSpaceOnUse"><stop offset="0.28" stop-color="#aa80f9"/><stop offset="1" stop-color="#6165d7"/></linearGradient><linearGradient id="linear-gradient-27" x1="1193.99" y1="1352.74" x2="1197.92" y2="1248.03" gradientTransform="translate(84.94 52.41) rotate(-3.5)" xlink:href="#linear-gradient-4"/><linearGradient id="linear-gradient-28" x1="1172.15" y1="1317.11" x2="1211.57" y2="1205.34" xlink:href="#linear-gradient-20"/><linearGradient id="linear-gradient-29" x1="1199.51" y1="1250.71" x2="1197" y2="1452.28" gradientTransform="translate(84.94 52.41) rotate(-3.5)" xlink:href="#linear-gradient-4"/><linearGradient id="linear-gradient-30" x1="1157.49" y1="1314.58" x2="1205.92" y2="1205.88" xlink:href="#linear-gradient-20"/><linearGradient id="linear-gradient-31" x1="1162.21" y1="1313.39" x2="1201.36" y2="1202.41" xlink:href="#linear-gradient-20"/><linearGradient id="linear-gradient-32" x1="1294.01" y1="1461.09" x2="1430.31" y2="1461.09" gradientTransform="translate(84.94 52.41) rotate(-3.5)" xlink:href="#linear-gradient-18"/><linearGradient id="linear-gradient-33" x1="518.27" y1="1545.94" x2="585.97" y2="1545.94" gradientTransform="translate(617.05 234.75) rotate(-22.13)" xlink:href="#linear-gradient-18"/><linearGradient id="linear-gradient-34" x1="1493.86" y1="1482.2" x2="2175.77" y2="2189.84" gradientTransform="translate(84.94 52.41) rotate(-3.5)" xlink:href="#linear-gradient-4"/><linearGradient id="linear-gradient-35" x1="1210.9" y1="1530.59" x2="1523.21" y2="1500.15" xlink:href="#linear-gradient-20"/><linearGradient id="linear-gradient-36" x1="1090.82" y1="1591.77" x2="1470.71" y2="1521.19" xlink:href="#linear-gradient-21"/><linearGradient id="linear-gradient-37" x1="1226.32" y1="1542.26" x2="1456.16" y2="1493.14" xlink:href="#linear-gradient-20"/><linearGradient id="linear-gradient-38" x1="1182.26" y1="1434.89" x2="770.55" y2="722.98" xlink:href="#linear-gradient-4"/><clipPath id="clip-path-6" transform="translate(-844.01 -389.81)"><path class="cls-2" d="M1110,1665.26h104.44S1256,1577,1220,1550.88s-11.2-99.71-2.49-140.5c23.62-110.65-98.56-116.47-79.57-261.09,5-38.47,27.54-110.14-.83-145.06-32.33-39.79-63.83-9.12-83.72-41.44-31.09-50.53-89.17-74.86-131.29-32.67-41.57,41.65-10.71,139.57,86.55,227.86,62.6,71.24,61.25,89.91,49.71,134.29-8.08,31.08-49.11,109.41-10.56,148s66.62,78.4,45.38,111.9C1060.84,1603.1,1110,1665.26,1110,1665.26Z"/></clipPath><linearGradient id="linear-gradient-39" x1="948.7" y1="1298.41" x2="1177.56" y2="1675.18" xlink:href="#linear-gradient-5"/><clipPath id="clip-path-7" transform="translate(-844.01 -389.81)"><path class="cls-2" d="M1089.72,1666.42h100.09c5.83-14.17,13.28-40.31-7.66-46.75-29.12-9-29.42-60.29-21.28-78.39,10.08-22.39,32.48-75-12.32-89.58-37.28-12.12-63.82-12.32-66.06-60.47s-28.28-78.38-72-75.86c-46,2.65-83.14-58.79-120.93-38.64-65.86,35.12-7.28,141.66,72.22,173s33.54,59.73,31.08,99.1c-3.36,53.75,69.42,42.83,88.46,64.11C1096.29,1629.63,1093.32,1652.46,1089.72,1666.42Z"/></clipPath><linearGradient id="linear-gradient-40" x1="1775.07" y1="789.85" x2="2296.33" y2="789.85" gradientUnits="userSpaceOnUse"><stop offset="0" stop-color="#e3e7ef"/><stop offset="1" stop-color="#fafbfd"/></linearGradient><linearGradient id="linear-gradient-41" x1="2570.92" y1="742.86" x2="2694.67" y2="742.86" gradientTransform="matrix(1, 0.06, -0.26, 1.01, -414.16, -152.58)" xlink:href="#linear-gradient-6"/><clipPath id="clip-path-8" transform="translate(-844.01 -389.81)"><path class="cls-2" d="M2220.94,931.33l-328.37-17.22c-9.13-.48-14.94-7.86-12.94-16.47l54.65-235.55c2-8.48,10.83-14.59,19.78-13.66l321.87,33.65c7.83.82,12.76,7.9,11,15.81L2238.6,917.55C2236.83,925.58,2228.94,931.75,2220.94,931.33Z"/></clipPath><linearGradient id="linear-gradient-42" x1="1908.07" y1="767.92" x2="1885.5" y2="792.31" xlink:href="#linear-gradient-4"/><linearGradient id="linear-gradient-43" x1="2257.81" y1="814.51" x2="2223.78" y2="851.28" xlink:href="#linear-gradient-4"/><linearGradient id="linear-gradient-44" x1="2121.65" y1="729.37" x2="2269.04" y2="963.64" xlink:href="#linear-gradient-6"/><linearGradient id="linear-gradient-45" x1="2178.23" y1="1333.53" x2="2178.23" y2="1296.13" xlink:href="#linear-gradient-4"/><linearGradient id="linear-gradient-46" x1="2064.24" y1="1344.18" x2="2064.24" y2="1299.11" xlink:href="#linear-gradient-4"/><linearGradient id="linear-gradient-47" x1="1222.91" y1="380.03" x2="1401.06" y2="663.19" gradientTransform="translate(687.04 851.9) rotate(-19.17)" xlink:href="#linear-gradient-6"/><linearGradient id="linear-gradient-48" x1="2039.03" y1="1167.14" x2="2186.48" y2="1167.14" gradientTransform="matrix(1, 0, 0, 1, 0, 0)" xlink:href="#linear-gradient-21"/><linearGradient id="linear-gradient-49" x1="2034.34" y1="1057.22" x2="2140.57" y2="1235.65" gradientTransform="matrix(1, 0, 0, 1, 0, 0)" xlink:href="#linear-gradient-21"/><linearGradient id="linear-gradient-50" x1="2076.16" y1="1032.33" x2="2182.39" y2="1210.75" gradientTransform="matrix(1, 0, 0, 1, 0, 0)" xlink:href="#linear-gradient-21"/><linearGradient id="linear-gradient-51" x1="1992.11" y1="778.44" x2="2166.84" y2="1056.17" xlink:href="#linear-gradient-6"/><linearGradient id="linear-gradient-52" x1="1923.4" y1="761.65" x2="2126.09" y2="1083.81" xlink:href="#linear-gradient-6"/><linearGradient id="linear-gradient-53" x1="2141.05" y1="813.59" x2="2098.57" y2="882.31" xlink:href="#linear-gradient-4"/><linearGradient id="linear-gradient-54" x1="2114.02" y1="815.46" x2="2177.71" y2="815.46" gradientTransform="matrix(1, 0, 0, 1, 0, 0)" xlink:href="#linear-gradient-20"/><linearGradient id="linear-gradient-55" x1="1568.8" y1="556.54" x2="1527.69" y2="623.04" gradientTransform="translate(470.03 633.89) rotate(-13.66)" xlink:href="#linear-gradient-4"/><linearGradient id="linear-gradient-56" x1="2096.47" y1="823.41" x2="2133.13" y2="881.68" xlink:href="#linear-gradient-5"/><mask id="mask" x="402.86" y="690.4" width="643.29" height="397.77" maskUnits="userSpaceOnUse"><g transform="translate(-844.01 -389.81)"><polygon class="cls-1" points="1486.68 1080.21 1246.88 1477.98 1890.16 1477.98 1661.8 1088.43 1486.68 1080.21"/></g></mask><linearGradient id="linear-gradient-57" x1="1492.72" y1="1008.57" x2="1631.38" y2="1124.36" xlink:href="#linear-gradient-5"/><linearGradient id="linear-gradient-58" x1="637.34" y1="632.37" x2="776" y2="748.17" xlink:href="#linear-gradient-5"/><linearGradient id="linear-gradient-59" x1="1533.59" y1="1025.33" x2="1609.24" y2="1025.33" gradientTransform="matrix(1, 0, 0, 1, 0, 0)" xlink:href="#linear-gradient-2"/><linearGradient id="linear-gradient-60" x1="2795.67" y1="1340.13" x2="2821.01" y2="1340.13" xlink:href="#linear-gradient-4"/><linearGradient id="linear-gradient-61" x1="2509.15" y1="1517.04" x2="2533.53" y2="1441.49" xlink:href="#linear-gradient-4"/><linearGradient id="linear-gradient-62" x1="2450.84" y1="1200.09" x2="2527.29" y2="1200.09" xlink:href="#linear-gradient-4"/><linearGradient id="linear-gradient-63" x1="2528.31" y1="992.17" x2="2621.69" y2="992.17" gradientUnits="userSpaceOnUse"><stop offset="0" stop-color="#6e1f3f"/><stop offset="1" stop-color="#792d3d"/></linearGradient><linearGradient id="linear-gradient-64" x1="2505.95" y1="1330.65" x2="2655.57" y2="1330.65" gradientTransform="matrix(1, 0, 0, 1, 0, 0)" xlink:href="#linear-gradient-21"/><linearGradient id="linear-gradient-65" x1="2579.68" y1="1269.24" x2="2695.19" y2="1719.95" gradientTransform="matrix(1, 0, 0, 1, 0, 0)" xlink:href="#linear-gradient-21"/><linearGradient id="linear-gradient-66" x1="2313.37" y1="1423.73" x2="2498.8" y2="1423.73" gradientTransform="translate(162.67 140.03) rotate(-6.32)" xlink:href="#linear-gradient-21"/><linearGradient id="linear-gradient-67" x1="2247.65" y1="1214.09" x2="2314.72" y2="1250.76" gradientTransform="translate(135.77 119.37) rotate(-5.2)" xlink:href="#linear-gradient-4"/><linearGradient id="linear-gradient-68" x1="2593.34" y1="1127.35" x2="2884.24" y2="1311.68" xlink:href="#linear-gradient-4"/><linearGradient id="linear-gradient-69" x1="2635.95" y1="1225.26" x2="2657.45" y2="1249.85" xlink:href="#linear-gradient-4"/><linearGradient id="linear-gradient-70" x1="2547.05" y1="1150.07" x2="2778.55" y2="1150.07" gradientTransform="matrix(1, 0, 0, 1, 0, 0)" xlink:href="#linear-gradient-2"/><linearGradient id="linear-gradient-71" x1="2585.94" y1="1166.92" x2="2663.2" y2="1166.92" xlink:href="#linear-gradient-6"/><linearGradient id="linear-gradient-72" x1="2623.69" y1="1089.42" x2="2725.04" y2="1205.33" xlink:href="#linear-gradient-4"/><linearGradient id="linear-gradient-73" x1="906.76" y1="1297.1" x2="911.23" y2="1178.01" gradientTransform="matrix(-0.97, 0.23, 0.23, 0.97, 3175.63, -411.47)" xlink:href="#linear-gradient-4"/><linearGradient id="linear-gradient-74" x1="2538.82" y1="927.53" x2="2721.09" y2="1031.88" xlink:href="#linear-gradient-3"/><linearGradient id="linear-gradient-75" x1="2609.99" y1="1018.31" x2="2812.55" y2="1132.46" gradientTransform="matrix(1, 0.03, -0.03, 0.94, -53.41, -121.36)" xlink:href="#linear-gradient-3"/><linearGradient id="linear-gradient-76" x1="603.96" y1="1132.79" x2="601.69" y2="1315.7" gradientTransform="matrix(-0.99, 0.14, 0.15, 1.03, 2985.32, -301.96)" xlink:href="#linear-gradient-4"/><linearGradient id="linear-gradient-77" x1="2608.08" y1="1021.68" x2="2810.65" y2="1135.83" gradientTransform="matrix(1, 0.03, -0.03, 0.94, -53.41, -121.36)" xlink:href="#linear-gradient-3"/></defs><g class="cls-3"><g id="Illustration"><g class="cls-4"><path class="cls-5" d="M2534.71,1124.07q-47.73-1.71-95.57-5.59c-.46.52-18.26-66.4,10.11-105.67,56.27-76.21,6.34-133.5-10-168.91C2414,794.25,2418.06,737,2470.7,730.34c58.26-8.54,58.14-106.52,37.79-193.4-12.95-42,21.8-98.63,60.92-115,39.82-17.76,84,4.68,106.11,88.88,30.08,97-35.63,164.78-56.91,217.44-21,51.7,44.72,84.38.16,133.06-37.25,43-86.51,76.41-62,122.53C2581.69,1029.35,2581.3,1068.86,2534.71,1124.07Z" transform="translate(-844.01 -389.81)"/><path class="cls-6" d="M2491.54,1132.92c-.35-2.77,15-151.41,50.16-292.31,4.62-23.34,9.84-47,14.89-69.79,28.11-127.15,54.66-247.25-2-371.23l2-.93c57,124.66,30.36,245.12,2.16,372.64-5,22.83-10.26,46.43-14.89,69.8-36,144.46-50.11,290.73-50.11,291.64Z" transform="translate(-844.01 -389.81)"/><path class="cls-6" d="M2582.27,653.18l-1.82-1.31c30.6-42.63,66.6-102.39,85.94-134.5,15.71-26.08,15.75-26.05,16.87-26l-.05,1.12.65.89c-.94.91-7.39,11.62-15.55,25.17C2649,550.66,2612.92,610.47,2582.27,653.18Z" transform="translate(-844.01 -389.81)"/><path class="cls-6" d="M2586.08,598.67c-24-86.4-82.93-108.78-83.48-108.83l.08-.89-.89-1.06c.54-.46,1.23-.29,2-.05,12.43,3.84,63.17,33.81,84.43,110.23Z" transform="translate(-844.01 -389.81)"/><path class="cls-6" d="M2523.3,935.14l-2.23,0c.73-89.57-68.46-165.41-98.24-193.86-1.6-1.54-2.12-2-2.33-2.32l1.79-1.33c.16.18,1.05,1,2.09,2C2454.37,768.29,2524.05,844.7,2523.3,935.14Z" transform="translate(-844.01 -389.81)"/><path class="cls-6" d="M2532.54,890.24l-2-1c30.8-64.74,109.39-77.92,110.69-77.92h0l-.17,1.11-1.08.29,1.08-.29.05,1.12C2640.36,813.65,2562.82,826.58,2532.54,890.24Z" transform="translate(-844.01 -389.81)"/><path class="cls-6" d="M2494.17,1108.94c-1.32-18-11.13-47.86-50.31-87.9-2.28-2.33-2.28-2.33-2.26-2.89l1.12,0,.94-.58c.14.18.91,1,1.8,1.87,39.65,40.53,49.59,70.94,50.94,89.31Z" transform="translate(-844.01 -389.81)"/><path class="cls-6" d="M2500.59,1074.1l-2.2-.38c5.75-33.12,47.88-61.53,72.49-75.51l1.45-.84,1.23,1.86c-.19.13-.73.44-1.58.92C2547.72,1013.94,2506.18,1041.89,2500.59,1074.1Z" transform="translate(-844.01 -389.81)"/></g><path class="cls-7" d="M1227.71,1414.43c-.13-4.84-108.73-162.91,33.11-173,248.28-17.74,372.42-26.56,487.15-45.39,344.68-56.56,657.85-7.08,952.19-.65,55.41,1.22,174.91-8.67,238,66.48,33.9,40.36,48.26,100.34,36.79,152.83-10.64,48.66-43.43,90.61-295,224.84-133.47,71.22-197,110.7-292.71,124.74-72.43,10.63-112.76,2.21-132.22-3-90.2-24.3-137.56-89.59-175.34-130C1929.12,1470.34,1661.2,1417.8,1497.89,1423,1366.17,1427.21,1229.89,1493.2,1227.71,1414.43Z" transform="translate(-844.01 -389.81)"/><path class="cls-8" d="M2508.79,1156.82c63.74,23,133.16,53.74,129.95,80.44-3.51,29.2-90.71,27.78-226.9,64-216.93,57.61-227.16,122.68-336.23,113.45C1950,1404,1952.36,1316.85,1803.33,1293c-56-9-136.38,3-297,26.81-108.29,16.09-193,34.38-243.41-14.43-2.5-2.43-27.87-27-26.45-44.08C1240.71,1209.53,1495.33,1160.18,2508.79,1156.82Z" transform="translate(-844.01 -389.81)"/><path class="cls-9" d="M2654.41,1205.46c-.57,5-3,9.06-6.22,10.32-8,3.15-18.39,4.35-30.52,4.36-12.31,0-22.83-1.23-30.91-4.44-3.11-1.23-5.5-5.07-6.16-9.9l-21.5-156.71h113.38Z" transform="translate(-844.01 -389.81)"/><ellipse class="cls-10" cx="1771.88" cy="658.57" rx="56.79" ry="9.13"/><path class="cls-11" d="M2561.84,1046.25c3,1.84,9.54,8,18.24,8.67,57.93,4.56,82.28-7.39,84.39-9.13.36-.29-1.8-25-1.45-25.33a48.3,48.3,0,0,1,2.9-28.43c12.43-28.62,91.69-42.32,69.71-96.93-16.09-40-73.54-53.62-1.85-113.49s95.82-190.53,15.42-204.31c-46.13-7.91-63.58,68.62-112.16,81.67-46.17,12.41-62.78,52.73-48.54,103.45s-13.23,60.05-47.74,85.45c-41.46,30.5-.13,77.4,18,97.16C2573.41,961,2588.58,1026.78,2561.84,1046.25Z" transform="translate(-844.01 -389.81)"/><g class="cls-12"><path class="cls-13" d="M2619.14,1050.53c-21.73-171.89,40.06-353.48,161.27-473.91l1.45,1.46c-120.76,120-182.33,300.92-160.68,472.19Z" transform="translate(-844.01 -389.81)"/><path class="cls-13" d="M2615.41,956.2c-21.74-64.64-94-96.36-94.72-96.68l.82-1.89c.73.31,73.82,32.41,95.86,97.92Z" transform="translate(-844.01 -389.81)"/><path class="cls-13" d="M2618.05,1018.49l-2-.35c11.67-68,127.77-116.1,128.94-116.57l.78,1.91C2744.57,904,2629.54,951.64,2618.05,1018.49Z" transform="translate(-844.01 -389.81)"/><path class="cls-13" d="M2650.11,788.81l-2.06-.18c4.64-54.63-51.14-117.52-51.71-118.15l1.54-1.38C2598.45,669.74,2654.83,733.29,2650.11,788.81Z" transform="translate(-844.01 -389.81)"/><path class="cls-13" d="M2696.3,688.81l-1.58-1.32c39.94-47.89,123.69-57,124.53-57.12l.21,2.06C2818.63,632.51,2735.7,641.57,2696.3,688.81Z" transform="translate(-844.01 -389.81)"/></g><path class="cls-14" d="M2094,894.5l-327.07,1.66c-8.83,0-16.22-6.83-16.5-15.34l-7.6-234.89c-.28-8.53,6.68-15.27,15.53-15.06L2086,638.72a15.86,15.86,0,0,1,15.31,15.2l7,225.69A14.36,14.36,0,0,1,2094,894.5Z" transform="translate(-844.01 -389.81)"/><path class="cls-15" d="M2099.84,892.61l-327.07,1.66c-8.83,0-16.23-6.83-16.5-15.34L1748.66,644c-.28-8.53,6.69-15.27,15.53-15.06l327.67,7.85a15.88,15.88,0,0,1,15.32,15.2l7,225.69A14.36,14.36,0,0,1,2099.84,892.61Z" transform="translate(-844.01 -389.81)"/><polygon class="cls-16" points="1270.39 417.43 909.82 415.76 910.04 422.56 1270.6 423.97 1270.39 417.43"/><polygon class="cls-16" points="1121.13 242.33 1126.8 421.51 1133.53 421.54 1127.88 242.5 1121.13 242.33"/><path class="cls-17" d="M1926.8,846.61l-127.56,0a1.11,1.11,0,0,1-1.12-1l-.36-11.47a1,1,0,0,1,1-1l127.57.21a1.07,1.07,0,0,1,1.08,1l.36,11.3A1,1,0,0,1,1926.8,846.61Z" transform="translate(-844.01 -389.81)"/><path class="cls-14" d="M1961.61,871.92l-161.54.43a1.08,1.08,0,0,1-1.11-1l-.37-11.46a1,1,0,0,1,1-1l161.55-.19a1.07,1.07,0,0,1,1.08,1l.36,11.26A1,1,0,0,1,1961.61,871.92Z" transform="translate(-844.01 -389.81)"/><polygon class="cls-14" points="1245.92 306.65 1148.22 304.97 1147.02 266.77 1244.74 268.87 1245.92 306.65"/><polygon class="cls-14" points="1248.76 397.55 1151.12 396.88 1148.73 321.23 1246.42 322.73 1248.76 397.55"/><path class="cls-16" d="M1857.5,694.47c15.32.26,28.12,12.58,28.6,27.46a25.57,25.57,0,0,1-2.38,11.62l32.77,15.15a58.77,58.77,0,0,0,5.22-26.27c-1.09-34-30.28-62.25-65.33-63h-.27l1.12,35Z" transform="translate(-844.01 -389.81)"/><path class="cls-18" d="M1883.72,733.55a26.38,26.38,0,0,1-24.48,15.06c-15.36-.17-28.29-12.49-28.77-27.46s11.53-26.78,26.76-26.67l-1.12-35c-35.19-.59-63.08,26.81-62,61.2s30.93,62.71,66.22,63c25.34.18,46.68-14.14,56.14-34.91Z" transform="translate(-844.01 -389.81)"/><path class="cls-14" d="M2546.09,1194.78c.44,15-10.88,27.88-25.2,28.53l-1251.14,61.56c-36,2.23-52.28-17-52.88-34.48l-23.21-681.76,4.47-63.06c-.6-17.56,7.39-50.62,26.61-49.84L2499.84,508c14.4.59,26.5,13.44,26.94,28.56Z" transform="translate(-844.01 -389.81)"/><path class="cls-19" d="M2528.86,607.54l-2.08-70.95c-.44-15.12-12.54-28-10.9-33.86L1241.81,451.66c-44.74,1.84-51.93,27.79-51.33,45.36l3.15,71.61,23.94-4.15Z" transform="translate(-844.01 -389.81)"/><path class="cls-16" d="M2583.78,1197.45c.45,15.21-11,28.18-25.43,28.84l-1280.94,58c-19.31.87-35.66-12.86-36.26-30.51l-23.58-689.3,6.88-80.61c-.61-17.75,7.25-27.3,26.67-26.5l1285.81,46c14.53.6,26.76,13.59,27.21,28.87Z" transform="translate(-844.01 -389.81)"/><path class="cls-20" d="M2566.26,603.94l-2.12-71.7c-.45-15.28-12.68-28.27-27.21-28.87L1249,450.34c-19.42-.8-34.87,13.08-34.26,30.83l2.85,83.31Z" transform="translate(-844.01 -389.81)"/><path class="cls-21" d="M1303.11,511.37c.3,8.78-7.23,15.64-16.83,15.32s-17.67-7.73-18-16.54,7.27-15.68,16.89-15.33S1302.81,502.58,1303.11,511.37Z" transform="translate(-844.01 -389.81)"/><path class="cls-21" d="M1377.79,514c.29,8.72-7.12,15.53-16.57,15.22s-17.39-7.67-17.69-16.42,7.16-15.56,16.63-15.21S1377.5,505.26,1377.79,514Z" transform="translate(-844.01 -389.81)"/><path class="cls-21" d="M1451.32,516.56c.29,8.65-7,15.41-16.31,15.1s-17.13-7.6-17.42-16.28,7-15.44,16.37-15.1S1451,507.91,1451.32,516.56Z" transform="translate(-844.01 -389.81)"/><path class="cls-15" d="M1767.87,897c-9.89,0-18.17-7.76-18.48-17.34l-7.6-234.88a16.31,16.31,0,0,1,4.73-12.13,17.56,17.56,0,0,1,12.91-5.07l327.67,7.85a18,18,0,0,1,17.33,17.2l7,225.69a16.42,16.42,0,0,1-16.41,17L1768,897ZM1759,631.73a13.2,13.2,0,0,0-9.52,3.85,12.22,12.22,0,0,0-3.54,9.08l7.6,234.89c.24,7.37,6.67,13.34,14.36,13.34h.07L2095,891.24a12.3,12.3,0,0,0,12.31-12.77l-7-225.69a13.8,13.8,0,0,0-13.3-13.2l-327.67-7.85Z" transform="translate(-844.01 -389.81)"/><path class="cls-14" d="M2471.46,892.86l-299.2,1.51a15.16,15.16,0,0,1-15.08-14.66l-6.95-224.45a13.78,13.78,0,0,1,14.19-14.42L2464.15,648c7.52.18,13.8,6.68,14,14.53l6.45,216C2484.86,886.44,2479,892.82,2471.46,892.86Z" transform="translate(-844.01 -389.81)"/><path class="cls-15" d="M2476.79,890.71l-299.21,1.51a15.16,15.16,0,0,1-15.07-14.66l-7-224.45a13.77,13.77,0,0,1,14.19-14.41l299.73,7.18c7.52.18,13.8,6.68,14,14.53L2490,876.46C2490.19,884.29,2484.3,890.67,2476.79,890.71Z" transform="translate(-844.01 -389.81)"/><polygon class="cls-16" points="1316.25 417.51 1316.45 424.02 1646.92 425.31 1646.73 419.05 1316.25 417.51"/><path class="cls-20" d="M2282.63,846.67H2200a1,1,0,0,1-1-1l-.34-11a1,1,0,0,1,1-1l82.65.14a1,1,0,0,1,1,1l.33,10.85A.94.94,0,0,1,2282.63,846.67Z" transform="translate(-844.01 -389.81)"/><path class="cls-14" d="M2383,870.8l-182.23.49a1,1,0,0,1-1-1l-.34-10.95a1,1,0,0,1,1-1l182.24-.22a1,1,0,0,1,1,1l.33,10.72A.94.94,0,0,1,2383,870.8Z" transform="translate(-844.01 -389.81)"/><path class="cls-22" d="M2204.18,774.66a3,3,0,0,1-1.53-.41,3.08,3.08,0,0,1-1.15-4.22c21.27-37.19,45.6-57.31,72.31-59.79,16.89-1.57,29.93,4.5,42.51,10.39,11.35,5.3,23.09,10.79,38.28,11.19,28,.7,56.47-16.55,84.58-51.39a3.09,3.09,0,0,1,4.82,3.88c-29.38,36.42-59.46,54.53-89.56,53.7-16.49-.44-28.82-6.2-40.74-11.78-12.38-5.78-24.06-11.24-39.32-9.83-24.58,2.28-47.3,21.36-67.51,56.71A3.11,3.11,0,0,1,2204.18,774.66Z" transform="translate(-844.01 -389.81)"/><path class="cls-16" d="M2370.47,735.13a11.57,11.57,0,0,1-11.62,12.21,12.85,12.85,0,0,1-12.4-12.53,11.57,11.57,0,0,1,11.65-12.22A12.87,12.87,0,0,1,2370.47,735.13Z" transform="translate(-844.01 -389.81)"/><path class="cls-23" d="M2359,748.91h-.16a14.45,14.45,0,0,1-13.95-14,13.44,13.44,0,0,1,3.83-10,12.8,12.8,0,0,1,9.21-3.85h.21A14.47,14.47,0,0,1,2372,735.08a13.51,13.51,0,0,1-3.82,10A12.84,12.84,0,0,1,2359,748.91Zm-1.06-24.75a9.7,9.7,0,0,0-7,2.91,10.38,10.38,0,0,0-2.94,7.69,11.29,11.29,0,0,0,10.86,11,9.55,9.55,0,0,0,7.11-2.92,10.4,10.4,0,0,0,2.92-7.68,11.29,11.29,0,0,0-10.82-11Z" transform="translate(-844.01 -389.81)"/><polygon class="cls-14" points="1457.81 291.53 1352.21 289.48 1351.64 271.17 1457.26 273.44 1457.81 291.53"/><polygon class="cls-17" points="1574.29 373.54 1532.71 373.13 1532.29 359.43 1573.88 359.91 1574.29 373.54"/><path class="cls-14" d="M1688.79,1201.62l-358.5,13.66c-9.7.37-17.82-6.56-18.12-15.47l-8.35-245.88c-.3-8.93,7.34-16.25,17.06-16.33l359.19-3.28c9-.08,16.48,6.8,16.76,15.37l7.68,235.82C1704.79,1194.06,1697.76,1201.27,1688.79,1201.62Z" transform="translate(-844.01 -389.81)"/><path class="cls-15" d="M1694.12,1199.47l-358.5,13.66c-9.7.37-17.82-6.55-18.12-15.47l-8.35-245.88c-.3-8.93,7.34-16.24,17.06-16.33l359.19-3.28c9-.08,16.48,6.8,16.76,15.37l7.68,235.82C1710.12,1191.92,1703.09,1199.12,1694.12,1199.47Z" transform="translate(-844.01 -389.81)"/><polygon class="cls-16" points="865.76 716.05 470.59 727.12 470.83 734.25 865.98 722.89 865.76 716.05"/><polygon class="cls-14" points="829.95 646.59 512.32 653.06 509.66 574.25 827.46 570.39 829.95 646.59"/><polygon class="cls-14" points="831.31 688.19 513.77 696.1 512.84 668.29 830.43 661.31 831.31 688.19"/><path class="cls-24" d="M1461.29,1155.1l-100.73,3.27a1.14,1.14,0,0,1-1.22-1l-.4-12a1.13,1.13,0,0,1,1.14-1.13l100.74-3.12a1.13,1.13,0,0,1,1.2,1l.39,11.87A1.12,1.12,0,0,1,1461.29,1155.1Z" transform="translate(-844.01 -389.81)"/><path class="cls-14" d="M1555.69,1178.49l-194.21,6.85a1.13,1.13,0,0,1-1.23-1l-.4-12a1.14,1.14,0,0,1,1.15-1.13l194.23-6.57a1.11,1.11,0,0,1,1.18,1l.39,11.76A1.12,1.12,0,0,1,1555.69,1178.49Z" transform="translate(-844.01 -389.81)"/><path class="cls-14" d="M1694.09,881c.27,8.57-6.77,15.55-15.76,15.59l-359.28,1.82c-9.72.05-17.86-7.15-18.17-16.09l-8.36-246.42c-.3-9,7.36-16,17.1-15.79l360,8.62c9,.22,16.52,7.35,16.8,15.94Z" transform="translate(-844.01 -389.81)"/><path class="cls-15" d="M1699.93,879.12c.28,8.56-6.77,15.55-15.75,15.59l-359.29,1.82c-9.72.05-17.86-7.16-18.16-16.09L1298.36,634c-.3-9,7.36-16,17.1-15.78l360,8.62c9,.22,16.51,7.35,16.79,15.94Z" transform="translate(-844.01 -389.81)"/><polygon class="cls-16" points="855.88 415.68 459.86 413.83 460.1 420.98 856.1 422.52 855.88 415.68"/><polygon class="cls-16" points="643.99 230.81 650.27 419.55 657.75 419.58 651.47 231 643.99 230.81"/><polygon class="cls-14" points="614.13 344.48 501.85 343.13 498.8 252.85 611.15 255.27 614.13 344.48"/><polygon class="cls-14" points="615.76 393.19 503.51 392.42 502.44 360.57 614.71 361.72 615.76 393.19"/><path class="cls-25" d="M1405.31,846.53H1350a1.19,1.19,0,0,1-1.23-1.1l-.41-12a1.1,1.1,0,0,1,1.16-1.09l55.29.09a1.18,1.18,0,0,1,1.21,1.09l.4,12A1.09,1.09,0,0,1,1405.31,846.53Z" transform="translate(-844.01 -389.81)"/><path class="cls-14" d="M1486.64,873.15l-135.7.4a1.2,1.2,0,0,1-1.23-1.09l-.4-12a1.1,1.1,0,0,1,1.15-1.1l135.72-.07a1.15,1.15,0,0,1,1.17,1.07l.39,11.75A1.07,1.07,0,0,1,1486.64,873.15Z" transform="translate(-844.01 -389.81)"/><polygon class="cls-16" points="719.53 391.68 688.27 391.46 683.81 256.83 715.1 257.5 719.53 391.68"/><polygon class="cls-16" points="771.45 392.05 740.54 391.83 736.12 257.95 767.07 258.62 771.45 392.05"/><polygon class="cls-16" points="822.79 392.42 792.22 392.2 787.86 259.06 818.46 259.72 822.79 392.42"/><g class="cls-26"><polygon class="cls-27" points="719.53 391.68 688.27 391.46 685.96 321.56 717.23 322.01 719.53 391.68"/><polygon class="cls-28" points="771.45 392.05 740.54 391.83 737.15 289.03 768.08 289.59 771.45 392.05"/><polygon class="cls-29" points="822.79 392.42 792.22 392.2 789.25 301.74 819.85 302.25 822.79 392.42"/></g><path class="cls-14" d="M2479.79,1171.46l-298.62,11.38a14.52,14.52,0,0,1-15-14.15l-6.93-224a14.29,14.29,0,0,1,14.15-14.86l299.14-2.73c7.5-.07,13.77,6.23,14,14.06l6.44,215.63C2493.16,1164.61,2487.28,1171.17,2479.79,1171.46Z" transform="translate(-844.01 -389.81)"/><path class="cls-15" d="M2485.12,1169.31,2186.5,1180.7a14.54,14.54,0,0,1-15-14.16l-6.93-224a14.29,14.29,0,0,1,14.15-14.86L2477.82,925c7.5-.07,13.77,6.23,14,14.06l6.43,215.63C2498.49,1162.46,2492.61,1169,2485.12,1169.31Z" transform="translate(-844.01 -389.81)"/><polygon class="cls-16" points="1325.13 703.18 1325.33 709.67 1655.15 700.19 1654.97 693.94 1325.13 703.18"/><path class="cls-20" d="M2265,1129l-56.21,1.83a1,1,0,0,1-1-1l-.34-10.94a1,1,0,0,1,1-1l56.22-1.75a1,1,0,0,1,1,1l.34,10.87A1,1,0,0,1,2265,1129Z" transform="translate(-844.01 -389.81)"/><path class="cls-14" d="M2324.45,1151.34l-115,4.06a1,1,0,0,1-1-1l-.34-10.94a1,1,0,0,1,1-1l115-3.89a1,1,0,0,1,1,1l.33,10.79A1,1,0,0,1,2324.45,1151.34Z" transform="translate(-844.01 -389.81)"/><polygon class="cls-16" points="1373.22 678.84 1355.83 679.28 1352.36 566.79 1369.76 566.57 1373.22 678.84"/><polygon class="cls-16" points="1398.96 678.18 1381.68 678.62 1378.23 566.46 1395.53 566.25 1398.96 678.18"/><polygon class="cls-16" points="1424.56 677.53 1407.38 677.97 1403.95 566.14 1421.15 565.93 1424.56 677.53"/><polygon class="cls-16" points="1450.01 676.89 1432.93 677.32 1429.52 565.83 1446.61 565.61 1450.01 676.89"/><polygon class="cls-16" points="1475.31 676.25 1458.33 676.68 1454.94 565.51 1471.93 565.3 1475.31 676.25"/><polygon class="cls-16" points="1500.45 675.61 1483.58 676.04 1480.21 565.19 1497.1 564.98 1500.45 675.61"/><polygon class="cls-16" points="1525.46 674.98 1508.68 675.4 1505.33 564.88 1522.12 564.67 1525.46 674.98"/><polygon class="cls-16" points="1550.31 674.35 1533.63 674.77 1530.3 564.57 1546.99 564.36 1550.31 674.35"/><polygon class="cls-16" points="1575.03 673.72 1558.44 674.14 1555.13 564.26 1571.73 564.05 1575.03 673.72"/><polygon class="cls-16" points="1599.6 673.1 1583.11 673.51 1579.81 563.95 1596.32 563.75 1599.6 673.1"/><polygon class="cls-16" points="1624.02 672.48 1607.63 672.89 1604.35 563.65 1620.76 563.44 1624.02 672.48"/><g class="cls-30"><polygon class="cls-20" points="1373.22 678.84 1355.83 679.28 1354.03 620.87 1371.42 620.54 1373.22 678.84"/><polygon class="cls-20" points="1398.96 678.18 1381.68 678.62 1379.03 592.5 1396.33 592.23 1398.96 678.18"/><polygon class="cls-20" points="1424.56 677.53 1407.38 677.97 1405.05 601.99 1422.24 601.7 1424.56 677.53"/><polygon class="cls-20" points="1450.01 676.89 1432.93 677.32 1430.59 600.72 1447.67 600.44 1450.01 676.89"/><polygon class="cls-20" points="1475.31 676.25 1458.33 676.68 1455.72 591.31 1472.71 591.05 1475.31 676.25"/><polygon class="cls-20" points="1500.45 675.61 1483.58 676.04 1481.29 600.72 1498.17 600.44 1500.45 675.61"/><polygon class="cls-20" points="1525.46 674.98 1508.68 675.4 1506.21 594.04 1523 593.78 1525.46 674.98"/><polygon class="cls-20" points="1550.31 674.35 1533.63 674.77 1531.42 601.76 1548.12 601.48 1550.31 674.35"/><polygon class="cls-20" points="1575.03 673.72 1558.44 674.14 1556.19 599.48 1572.78 599.21 1575.03 673.72"/><polygon class="cls-20" points="1599.6 673.1 1583.11 673.51 1580.58 589.38 1597.08 589.13 1599.6 673.1"/><polygon class="cls-20" points="1624.02 672.48 1607.63 672.89 1605.26 593.82 1621.66 593.55 1624.02 672.48"/></g><path class="cls-14" d="M2103.59,1185.8l-326.4,12.45c-8.81.33-16.19-6.29-16.46-14.79l-7.59-234.38c-.28-8.52,6.67-15.48,15.5-15.56l327-3a15.2,15.2,0,0,1,15.28,14.67l7,225.24A14.91,14.91,0,0,1,2103.59,1185.8Z" transform="translate(-844.01 -389.81)"/><path class="cls-15" d="M2108.91,1183.65l-326.39,12.45c-8.81.33-16.19-6.28-16.46-14.78l-7.59-234.39c-.28-8.51,6.67-15.48,15.5-15.56l327-3a15.21,15.21,0,0,1,15.29,14.68l7,225.23A14.92,14.92,0,0,1,2108.91,1183.65Z" transform="translate(-844.01 -389.81)"/><polygon class="cls-16" points="1279.41 704.52 919.58 714.6 919.8 721.39 1279.62 711.04 1279.41 704.52"/><path class="cls-17" d="M1917.16,1140.29l-108.34,3.52a1.07,1.07,0,0,1-1.12-1l-.36-11.44a1.05,1.05,0,0,1,1-1.07l108.36-3.36a1,1,0,0,1,1.08,1l.36,11.3A1,1,0,0,1,1917.16,1140.29Z" transform="translate(-844.01 -389.81)"/><path class="cls-14" d="M2004.83,1162.62l-195.19,6.9a1.06,1.06,0,0,1-1.11-1l-.37-11.43a1.07,1.07,0,0,1,1-1.08l195.2-6.61a1,1,0,0,1,1.06,1l.36,11.19A1,1,0,0,1,2004.83,1162.62Z" transform="translate(-844.01 -389.81)"/><path class="cls-31" d="M1795.63,1038.73a3.1,3.1,0,0,1-2.79-4.44c11.4-23.54,24.6-36.36,39.25-38.1,9-1.06,15.86,2.29,22.46,5.54,7,3.45,13.58,6.71,23.3,5.51,7.38-.9,10.92-3.7,15.4-7.23s9.78-7.72,19.82-10.44c10.94-3,17.75-1.58,25.63,0a90.28,90.28,0,0,0,22,2.31c13.61-.29,20.88-3.3,30.07-7.12a145.42,145.42,0,0,1,25.79-8.54c19.89-4.49,41.34-4.81,63.76-1a3.09,3.09,0,0,1-1.05,6.1c-21.61-3.73-42.25-3.43-61.35.89a138.65,138.65,0,0,0-24.78,8.22c-9.41,3.9-17.53,7.28-32.31,7.58a96,96,0,0,1-23.33-2.43c-7.4-1.5-13.24-2.7-22.77-.11-8.82,2.38-13.29,5.91-17.6,9.31-4.83,3.81-9.38,7.41-18.49,8.53-11.55,1.4-19.65-2.58-26.79-6.11-6.32-3.11-11.77-5.79-19-4.95-12.42,1.48-24,13.14-34.41,34.65A3.08,3.08,0,0,1,1795.63,1038.73Z" transform="translate(-844.01 -389.81)"/><polygon class="cls-14" points="1239.93 677.67 1128.87 680.43 1127.41 634.06 1238.5 631.88 1239.93 677.67"/><path class="cls-14" d="M1861.49,969.19l-58.28.78a1.08,1.08,0,0,1-1.11-1l-.37-11.46a1,1,0,0,1,1-1l58.28-.7a1.08,1.08,0,0,1,1.1,1l.36,11.37A1,1,0,0,1,1861.49,969.19Z" transform="translate(-844.01 -389.81)"/><path class="cls-7" d="M1289.51,1526.64c-57.45,2.44-121.36,7.5-196.89,33.43-17.14,5.89-176.72,64.73-171.74,98.55,3.68,25,87.72,14,219.4,50.24,138.88,38.25,164.35,58,245.82,61.11,93.53,3.53,98.47-37.07,219.19-48.29,68.32-6.36,91,4.39,156.37,12.31,26.51,3.22,41,4,83.25,6.26,192.52,10.22,227.09,19.89,233.81,4.74,11.31-25.51-69.34-92.12-144.65-131-65.47-33.85-121.3-43.86-228.47-63.16C1521.43,1517.62,1384.86,1522.59,1289.51,1526.64Z" transform="translate(-844.01 -389.81)"/><path class="cls-8" d="M1718.29,1588.58c-487.48-123.2-515.19-97.83-523.11-84.94-14.43,23.51,1.68,66.26,31.38,105.14-26.15-5.48-51.64-5.91-73,2.33-44.15,17-100.82,3.31-102.11,16-1.45,14.16,62,38.3,97.67,39.07,77.66,1.69,163.13,24.19,206.66,31.27,93.92,24.2,200-5.44,247.88-14.48,85.73-16.17,119.92-37.39,208.78-37.67,71.28-.22,123.72,12.83,124.73,8.22C1939.15,1644.59,1743,1594.82,1718.29,1588.58Z" transform="translate(-844.01 -389.81)"/><g class="cls-32"><path class="cls-33" d="M1133.35,1359.91h102.32s19.26-52.49-5.81-89.54c-51.16-75.58,18.6-115.11,45.35-136,40.33-31.57,58.1-72.35,9.6-98.8-54.88-29.94-6.5-109.61,66-151.2,70.93-40.7,39.51-190.27-122.09-116.28-96.52,44.19-81.4,146.51-86,200s-84.2,57.91-57,123.26c23.26,55.81,67.45,96.51,33.72,134.88S1082.19,1307.58,1133.35,1359.91Z" transform="translate(-844.01 -389.81)"/><path class="cls-6" d="M1177.6,1369.41c-.25-1.32-24-133.44-8-271.55,9.39-81.18,30.45-148.52,62.61-200.17C1272.45,833,1330.28,793,1404.06,778.58l.43,2.2c-165.72,32.3-218,190.4-232.68,317.34-15.93,137.78,7.75,269.57,8,270.89Z" transform="translate(-844.01 -389.81)"/><path class="cls-6" d="M1216.54,925.46c-8.94-71.78,18.36-173.54,18.63-174.56l2.16.58c-.27,1-27.45,102.37-18.57,173.7Z" transform="translate(-844.01 -389.81)"/><path class="cls-6" d="M1244.6,883.15l-1.19-1.9c73.63-45.87,142.51-23.79,143.2-23.56l-.71,2.12C1385.22,859.58,1317.29,837.85,1244.6,883.15Z" transform="translate(-844.01 -389.81)"/><path class="cls-6" d="M1166.31,1188.73l-2.18-.52c24.38-102.82,164.76-128.64,166.12-128.64l.06,2.23C1328.94,1061.93,1190.42,1087,1166.31,1188.73Z" transform="translate(-844.01 -389.81)"/><path class="cls-6" d="M1165.56,1145.57c-13.41-64.49-83.55-109-84.26-109.42l1.19-1.9c.71.45,71.66,45.45,85.26,110.86Z" transform="translate(-844.01 -389.81)"/><path class="cls-6" d="M1176.53,1348.19l-2.23-.18c3.21-40.83,59-71.8,61.42-73.09l1.07,2C1236.22,1277.19,1179.64,1308.57,1176.53,1348.19Z" transform="translate(-844.01 -389.81)"/><path class="cls-6" d="M1170.43,1317.05c-5.15-30.12-51.45-64.25-66.67-75.46a51.66,51.66,0,0,1-4.68-3.61l1.67-1.49c.29.32,2.17,1.7,4.34,3.3,15.39,11.34,62.25,45.88,67.54,76.88Z" transform="translate(-844.01 -389.81)"/></g><path class="cls-34" d="M1357.24,1197.43s-68.74-119-161.69,83.38c-72.38,157.6-25.6,332.94,141.85,381s429-49.06,346.9-117.53C1510.16,1399.07,1378,1270.32,1357.24,1197.43Z" transform="translate(-844.01 -389.81)"/><g class="cls-35"><path class="cls-36" d="M1277.43,1304.68c-4.58,14.52-12.44,55.18-10.38,102.41,1.84,42.13-2,64.16,65,94.8,23,10.5,38.86,43.83,74,63.66,15.94,9,76,41.51,153.61,28.37,51.34-8.7,89.56-33.88,115.3-57.34-169.54-142.07-297.42-267.56-317.81-339.15,0,0-25.12-43.45-65.51-33.17,9.8,10.93,20.58,27.5,23.76,49.77C1320,1245.56,1292.45,1257,1277.43,1304.68Z" transform="translate(-844.01 -389.81)"/></g><g class="cls-37"><path class="cls-38" d="M1605.42,1614c-79.2,43.73-211.46,70.43-310-2.76-91.24-67.77-99.37-181.26-102.41-215.89-5.31-60.53,6.51-113.24,23.56-155.75-6.85,12-13.86,25.64-21,41.23-72.38,157.6-25.6,332.94,141.85,381,164.83,47.36,420.81-46,350.51-114.29A311.36,311.36,0,0,1,1605.42,1614Z" transform="translate(-844.01 -389.81)"/></g><path class="cls-39" d="M1480.66,1627.21q-3.53,0-7.09-.07c-61.22-1.37-147.17-21.71-209-110.81-52.2-75.27-45.22-160.2-30.17-218.19,16.29-62.75,45.28-108.36,45.57-108.81a1.33,1.33,0,1,1,2.24,1.44c-.29.45-29.08,45.76-45.25,108.11-14.89,57.43-21.81,141.52,29.8,215.93,61.14,88.15,146.17,108.29,206.74,109.66,65.83,1.48,117.71-18.18,118.23-18.38a1.33,1.33,0,1,1,1,2.49C1592.21,1608.77,1543.52,1627.21,1480.66,1627.21Z" transform="translate(-844.01 -389.81)"/><path class="cls-40" d="M1809.1,1615.71c-4.36-4.69-12.18-24.92,2.08-29.08s22.31-9.47,42.07-25.3,24.82-2.24-3.08,23.48S1815.31,1622.4,1809.1,1615.71Z" transform="translate(-844.01 -389.81)"/><path class="cls-41" d="M1790.41,1586.18l11.75,10.26a7.36,7.36,0,0,0,8.78.67,4.78,4.78,0,0,0,.55-7.67l-17.17-14.7Z" transform="translate(-844.01 -389.81)"/><path class="cls-42" d="M1438.52,1487.4c-20.76,18.18,22.57,77.82,91.79,58.49,83.89-23.42,190.57-12.9,262.49,45.66,4.17-3.71,14.5-9.54,9.78-14.32-65-65.69-125.14-103.4-175-113.52C1552.25,1448.41,1497.63,1435.62,1438.52,1487.4Z" transform="translate(-844.01 -389.81)"/><g class="cls-43"><path class="cls-44" d="M1681.88,1512.38c12.17,7.08,14.76-7.31,21-16.77-26.94-16.54-52.25-27.22-75.32-31.9-75.35-15.3-130-28.09-189.08,23.69-20.76,18.18,22.57,77.82,91.79,58.49a323,323,0,0,1,79.69-11.45C1632.17,1520.5,1650.31,1488.5,1681.88,1512.38Z" transform="translate(-844.01 -389.81)"/></g><path class="cls-45" d="M1426.27,1549.52l-4.26,1.63s-27.57-26-32.48-32.65c-6-8.1,61.5-28.73,83.42-55.72,23-28.36,4.83,33.67,4.83,33.67Z" transform="translate(-844.01 -389.81)"/><path class="cls-46" d="M1401.27,1294.2s24.47,3.36,51.3,50.94c20.17,35.77,64,65.4,64,65.4l4.5,28.15-36.35,6.39-13-8.57L1436.21,1361Z" transform="translate(-844.01 -389.81)"/><path class="cls-47" d="M1353.83,1291.17s-60.32,7.44-61.62,76.84c-1.19,64,21.92,88.87,78.62,142.27,5.7,5.37,15,5.38,15.63,6.15q5.54,6.22,11.19,13c50.75-48.7,108-65.19,108-65.19s-52.92-109.49-76.17-145.78C1405.47,1281.06,1369.31,1287.45,1353.83,1291.17Z" transform="translate(-844.01 -389.81)"/><g class="cls-48"><path class="cls-49" d="M1454,1452.85c-25.46,13.62-61.55,12.08-74.82-4.78-10-12.69-11.61-17.42-23.78-37.36-9.78-16-14.55-18.61-35.93-32.12a107.72,107.72,0,0,1-26.22-23.53,110.5,110.5,0,0,0-1,13c-1.19,64,21.92,88.87,78.62,142.27,5.7,5.37,15,5.38,15.63,6.15q5.54,6.22,11.19,13c50.75-48.7,108-65.19,108-65.19s-8.78-17.22-20.41-41.44C1476.77,1437,1470.3,1444.11,1454,1452.85Z" transform="translate(-844.01 -389.81)"/></g><path class="cls-50" d="M1412.38,1454.89s11.43.53,19.55-2.74,7.45-4,16.8-5.21c9.08-1.16,27-6.55,16.84-15.76-11.27-10.25-30.6-7.38-36.15-.57-5.36,6.56-14.63,10.73-14.63,10.73Z" transform="translate(-844.01 -389.81)"/><path class="cls-51" d="M1310.42,1325.76s-33.5,3.9-14,111.78c10.14,56,60.25,48.07,120.77,25,4.1-8.57-1.18-26.73-1.18-26.73s-75.18,31-77.12-14.22C1336.75,1370.83,1330,1320.41,1310.42,1325.76Z" transform="translate(-844.01 -389.81)"/><path class="cls-52" d="M1367.86,1314.24c-14.38,0-29-10.64-29.67-11.15a.67.67,0,0,1,.79-1.08c.19.15,19.3,14.06,34.73,10.21,4.26-1.06,7.17-3.14,8.66-6.17,2.83-5.78-.38-13.25-.42-13.32a.67.67,0,0,1,.34-.88.68.68,0,0,1,.88.34c.15.33,3.5,8.09.39,14.44-1.66,3.4-4.87,5.72-9.52,6.88A25.29,25.29,0,0,1,1367.86,1314.24Z" transform="translate(-844.01 -389.81)"/><path class="cls-53" d="M1389.18,1514.33a.66.66,0,0,1-.5-.22.67.67,0,0,1,0-.94c.54-.49,54.56-48.84,103.34-60.77a.68.68,0,0,1,.8.49.67.67,0,0,1-.49.81c-48.45,11.84-102.22,60-102.76,60.46A.66.66,0,0,1,1389.18,1514.33Z" transform="translate(-844.01 -389.81)"/><path class="cls-54" d="M1337.79,1249.22s8.55,34.6,6.84,41.68,8.41,14.77,26.16,15.56-1.91-35.55-1.91-35.55Z" transform="translate(-844.01 -389.81)"/><path class="cls-55" d="M1398.14,1215.54c11-18.26-3-44.55-26-35.44-15.66,6.22-25.59,1.82-36,5.65-18.46,6.81-16.46,19.94-12.2,33.29,3.71,26.47,3.56,36.91,31.89,52.39C1366.73,1234,1384.66,1237.82,1398.14,1215.54Z" transform="translate(-844.01 -389.81)"/><path class="cls-56" d="M1341.22,1262s11.4,18.86,34.24,17.46,16.34-53.89,10.59-56.87c-6.66-3.46-16,1-31.17-1.43-6.39-1-12.29-8.49-15,.09-3.1,9.75-.8,24.51-.8,24.51s-7-6.09-10.61.38C1325.58,1251.32,1330.34,1258,1341.22,1262Z" transform="translate(-844.01 -389.81)"/><path class="cls-57" d="M1339.55,1210s-1.09,31.3,6.67,41c3.52,6.09-1,6.23-4.91,1.73s-8-18.85-8-18.85Z" transform="translate(-844.01 -389.81)"/><path class="cls-58" d="M1344.25,1186.51h-.15a.63.63,0,0,1-.07-1.25h0c1-.07,21-1.4,25.26-9.7a.63.63,0,0,1,1.11.58C1365.88,1185,1346.32,1186.38,1344.25,1186.51Z" transform="translate(-844.01 -389.81)"/><path class="cls-59" d="M1420.41,1469.38a1.45,1.45,0,0,0-1.19,1c0,.07.19,2.81.19,2.89a1.36,1.36,0,0,0,.94,1.42l51.29,16.66,95.85-37.54-45.54,3.49Z" transform="translate(-844.01 -389.81)"/><path class="cls-60" d="M1420.39,1469a1.38,1.38,0,0,0-.23,2.67l51.29,16.66,95.85-37.54-45.54,3.48Z" transform="translate(-844.01 -389.81)"/><path class="cls-61" d="M1469.18,1487.59l7.65-100a3.45,3.45,0,0,1,2.91-3.15l114.79-18a3.45,3.45,0,0,1,4,3.58l-4.3,93.2a3.47,3.47,0,0,1-2.83,3.24l-119.25,22.08Z" transform="translate(-844.01 -389.81)"/><path class="cls-59" d="M1471.64,1491.36l7.88-102.19a3.47,3.47,0,0,1,2.92-3.16l114.78-18a3.48,3.48,0,0,1,2.85.84,3.44,3.44,0,0,1,1.15,2.74l-4.31,93.21a3.46,3.46,0,0,1-2.81,3.24Z" transform="translate(-844.01 -389.81)"/><path class="cls-62" d="M1471.64,1491.36l122.46-23.28a3.46,3.46,0,0,0,2.81-3.24l1.3-28.11c-36.48,20.71-82.19,23.35-124.8,31.66Z" transform="translate(-844.01 -389.81)"/><path class="cls-63" d="M1679.05,1470.41c-1.67-5.81-5.37-12.23,7.83-16.92,9.59-3.4,26.24-4.5,41.38-5.27,21.21-1.09,26.09,11.6-4.91,19.67C1703.05,1473.18,1681.43,1478.68,1679.05,1470.41Z" transform="translate(-844.01 -389.81)"/><path class="cls-64" d="M1695.58,1461.51a5.64,5.64,0,0,1-4.58,6.2c-6.27.89-5.1-2.34-5.3-5.59s-2.73-5.51,4.58-6.19C1693,1455.67,1695.38,1458.26,1695.58,1461.51Z" transform="translate(-844.01 -389.81)"/><path class="cls-65" d="M1631.17,1442.81l6.2-1s12.07,1.13,45.33,10.3c7.12,1.18,16.83,22-4,22.78s-46.25,16.35-46.25,16.35Z" transform="translate(-844.01 -389.81)"/><path class="cls-66" d="M1414.56,1539.49s3,27,65.74,24.52,174.73-67.55,174-101.71-42.39-20.51-85.55-.77c-36.43,16.67-92.7,26.32-104.23,28.11C1449.78,1491.93,1411,1526.54,1414.56,1539.49Z" transform="translate(-844.01 -389.81)"/><g class="cls-48"><path class="cls-67" d="M1496.61,1505.7c29-3,35.54-23.79,71.65-29.81,23.41-3.9,31.67,3,43.61-5,9.41-6.31,14.22-17.31,16.54-29.25-16,1.36-37.61,9.8-59.64,19.87-35.38,16.19-89.48,25.76-103.13,27.93-.4.07-9.55-3.2-9.55-3.2s-6.81,3.89-11.69,7C1463.43,1503.42,1486,1506.78,1496.61,1505.7Z" transform="translate(-844.01 -389.81)"/></g><path class="cls-68" d="M1093.17,1552.12c-18.59,29.31-8.94,62.36,1.5,85.12,3.15.44,4.87,1.55,7.95,2.75,27.83,10.8,57.71,16.23,86.66,22.21,6.23,1.29,12.34,1.59,18.67,2.41l6.44.65S1256,1577,1220,1550.88s-11.2-99.71-2.49-140.5c23.62-110.65-98.56-116.47-79.57-261.09,5-38.47,27.54-110.14-.83-145.06-32.33-39.79-63.83-9.12-83.72-41.44-31.09-50.53-89.17-74.86-131.29-32.67-41.57,41.65-10.71,139.57,86.55,227.86,62.6,71.24,61.25,89.91,49.71,134.29-8.08,31.08-49.11,109.41-10.56,148S1114.41,1518.62,1093.17,1552.12Z" transform="translate(-844.01 -389.81)"/><g class="cls-69"><path class="cls-13" d="M1160.19,1654.17h-2.25c.1-12.9,0-25.91-.19-38.69-1.62-94.52-12-185.46-30.87-270.29-16-71.85-38.25-140.35-66.19-203.59a911.31,911.31,0,0,0-78-141.84,728.23,728.23,0,0,0-65-83c-3.89-4.26-8.14-8.43-12.24-12.46-5.54-5.43-11.26-11-16.28-17l1.72-1.44c4.95,5.91,10.63,11.49,16.13,16.89,4.13,4,8.4,8.24,12.33,12.55a730.77,730.77,0,0,1,65.15,83.25,911.94,911.94,0,0,1,78.18,142.19c28,63.37,50.32,132,66.33,204,18.9,85,29.3,176.06,30.93,270.73C1160.22,1628.23,1160.28,1641.26,1160.19,1654.17Z" transform="translate(-844.01 -389.81)"/><path class="cls-13" d="M1091.56,1220.08c-28.38-89.47,26.73-240,27.29-241.52l2.1.78c-.56,1.5-55.4,151.32-27.25,240.06Z" transform="translate(-844.01 -389.81)"/><path class="cls-13" d="M1148.55,1475.25c-11.88-61.56-117-122.14-118.1-122.74l1.11-2c1.07.61,107.12,61.69,119.2,124.26Z" transform="translate(-844.01 -389.81)"/><path class="cls-13" d="M1152.34,1511.32c-.54-42,21.06-99.44,60.84-161.7.87-1.36,1.62-2.53,1.73-2.76l.85.42h1.31c0,.43,0,.43-2,3.55-39.55,61.9-61,118.89-60.49,160.47Z" transform="translate(-844.01 -389.81)"/><path class="cls-13" d="M1157.78,1630.58c-13.35-42.7-75.58-67.22-76.21-67.46l.81-2.1c.64.25,63.87,25.15,77.55,68.89Z" transform="translate(-844.01 -389.81)"/><path class="cls-13" d="M1161.24,1654.77l-2.1-.78c12.95-35,36.34-67.36,71.49-99l1.5,1.67C1197.26,1588.05,1174.07,1620.14,1161.24,1654.77Z" transform="translate(-844.01 -389.81)"/><path class="cls-13" d="M999.57,1025.58C981.07,976.87,973,921.5,970.28,903.31c-.46-3.17-.83-5.66-1-6.07l2.14-.7c.17.52.4,2.06,1,6.44,2.66,18.14,10.76,73.32,29.17,121.81Z" transform="translate(-844.01 -389.81)"/><path class="cls-13" d="M1041.15,1100c-29.31-37.63-128-49.55-129-49.67l.27-2.23c4.09.48,100.64,12.15,130.53,50.52Z" transform="translate(-844.01 -389.81)"/></g><path class="cls-70" d="M1092.07,1636.8c.39.17.77.36,1.17.51,28,10.8,57.71,16.23,86.66,22.21,3.9.81,7.82,1.48,11.76,2.08,5.23-14.62,9.23-36.17-9.51-41.93-29.12-9-29.42-60.29-21.28-78.39,10.08-22.39,32.48-75-12.32-89.58-37.28-12.12-63.82-12.32-66.06-60.47s-28.28-78.38-72-75.86c-46,2.65-83.14-58.79-120.93-38.64-65.86,35.12-7.28,141.66,72.22,173s33.54,59.73,31.08,99.1c-3.36,53.75,69.42,42.83,88.46,64.11A44.14,44.14,0,0,1,1092.07,1636.8Z" transform="translate(-844.01 -389.81)"/><g class="cls-71"><path class="cls-13" d="M1136.81,1650.68c-30.5-154.93-136-294.29-275.42-363.7l1-2c140,69.71,246,209.68,276.63,365.27Z" transform="translate(-844.01 -389.81)"/><path class="cls-13" d="M1115.09,1567.29h-2.25c.28-63.32,54.58-112.29,55.12-112.78l1.5,1.68C1168.92,1456.66,1115.37,1505,1115.09,1567.29Z" transform="translate(-844.01 -389.81)"/><path class="cls-13" d="M1130.4,1622.22c-29.18-54.66-142.73-62.94-143.87-63l.15-2.24c1.16.07,115.94,8.45,145.7,64.2Z" transform="translate(-844.01 -389.81)"/><path class="cls-13" d="M1036.41,1432c-20.11-46.94,10.58-118.44,10.89-119.15l2.06.9c-.31.7-30.61,71.32-10.88,117.36Z" transform="translate(-844.01 -389.81)"/><path class="cls-13" d="M967.57,1358.5c-47.78-29.65-122.33-13.65-123.07-13.48l-.49-2.2c.76-.17,76.21-16.35,124.74,13.77Z" transform="translate(-844.01 -389.81)"/></g><path class="cls-72" d="M1221.51,1665.23l.75,3.64c-63-.44-139.18-30.79-139.92-31.09-.55-.23.75-4.15,1-4.7a1.07,1.07,0,0,1,1.4-.58c.74.3,74.27,30.15,136.81,30.59a1.07,1.07,0,1,1,0,2.14Z" transform="translate(-844.01 -389.81)"/><path class="cls-14" d="M2216.84,930.26,1888.09,913.1c-9.14-.48-14.94-8-12.93-16.71l54.93-239.12c2-8.61,10.86-14.82,19.81-13.88l322.22,33.85c7.84.82,12.77,8,11,16l-48.61,223C2232.75,924.4,2224.84,930.68,2216.84,930.26Z" transform="translate(-844.01 -389.81)"/><path class="cls-73" d="M2220.94,931.33l-328.37-17.22c-9.13-.48-14.94-7.86-12.94-16.47l54.65-235.55c2-8.48,10.83-14.59,19.78-13.66l321.87,33.65c7.83.82,12.76,7.9,11,15.81L2238.6,917.55C2236.83,925.58,2228.94,931.75,2220.94,931.33Z" transform="translate(-844.01 -389.81)"/><polygon class="cls-16" points="1409.88 458.82 1052.72 433.82 1051.13 440.67 1408.48 465.2 1409.88 458.82"/><polygon class="cls-16" points="1309.59 279.5 1270.44 453.79 1277.11 454.24 1316.17 280.19 1309.59 279.5"/><path class="cls-17" d="M2061.6,875.74l-129.15-8a.9.9,0,0,1-.86-1.12l2.66-11.52a1.33,1.33,0,0,1,1.34-1l129,8.32a.87.87,0,0,1,.82,1.09l-2.54,11.23A1.27,1.27,0,0,1,2061.6,875.74Z" transform="translate(-844.01 -389.81)"/><path class="cls-14" d="M2089.9,903l-163.42-9.27a.89.89,0,0,1-.87-1.11l2.66-11.54a1.36,1.36,0,0,1,1.35-1l163.25,9.7a.86.86,0,0,1,.81,1.08L2091.17,902A1.28,1.28,0,0,1,2089.9,903Z" transform="translate(-844.01 -389.81)"/><polygon class="cls-14" points="1415.53 349.7 1320.9 340.96 1329.25 303.66 1423.61 313.11 1415.53 349.7"/><polygon class="cls-14" points="1396.01 438.16 1300.71 431.13 1317.33 356.87 1412.09 365.31 1396.01 438.16"/><path class="cls-16" d="M2031.28,720.46c15.28,1.41,24.93,14.49,21.59,29.2A29.6,29.6,0,0,1,2047.5,761l28.88,17.27a67.86,67.86,0,0,0,11.89-25.5c7.57-33.46-14.27-63.4-49.09-66.85l-.28,0-7.9,34.6Z" transform="translate(-844.01 -389.81)"/><path class="cls-74" d="M2047.5,761c-6.5,8.6-17.42,14-28.47,13.15-15.45-1.25-25.3-14.39-21.89-29.27s18.58-25.64,33.86-24.38l7.9-34.6c-35.22-3.34-70.57,21.59-78.46,55.8-7.92,34.38,15,64.59,50.64,67.24,25.47,1.89,50.55-10.83,65.3-30.67Z" transform="translate(-844.01 -389.81)"/><g class="cls-75"><path class="cls-76" d="M1903,769.71c-4.51,4.06,11.82,39.54,41.26,67.38,29.83,28.21,52.29,28.86,75.63,62.4,11.29,16.21,7.22,17.74,16,29.39,34.37,45.65,124.94,59.45,161.41,24.24,3.81-3.68,12.34-20,29.4-52.6a389.62,389.62,0,0,0,19.42-44.18c7.51-20.33,11.64-31.8,7.56-35.06-8.34-6.67-37.21,29.66-56.38,21.31-12.12-5.28-6-25.13-22-39.19-13-11.37-30.65-10.8-35.24-10.66-40,1.27-44.5,45.34-82,53.63-31.18,6.9-64.17-15.59-112.42-48.47C1919.9,780.35,1906.33,766.73,1903,769.71Z" transform="translate(-844.01 -389.81)"/></g><path class="cls-77" d="M1909.56,784.49l-8.25-8.25a21,21,0,0,1-2.07-19.34c4.13-11.34,9.8-8.25,9.8-8.25l-1.55,8s-1,5.16,3.87,11.61a41.55,41.55,0,0,1,5.16,13.66Z" transform="translate(-844.01 -389.81)"/><path class="cls-78" d="M2253,816.63l9.28-8.42,4.12-15.3s11.35,4.47,5.16,18.91c-4,4.81-13.67,12-17.79,19.08S2253,816.63,2253,816.63Z" transform="translate(-844.01 -389.81)"/><path class="cls-79" d="M2161.56,919.26s44.52-27.51,55.35-37.3c11.29-10.22,41-49.51,43.57-54.15s-8-13.93-8-13.93-51.74,64.64-116.72,45.56C2146.09,882.64,2161.56,919.26,2161.56,919.26Z" transform="translate(-844.01 -389.81)"/><path class="cls-80" d="M2168,1299.06s8.17,20.54,6,29.65a91.33,91.33,0,0,0,14.44-1.29s-3.53-9.36-4.21-14a137.57,137.57,0,0,1-.86-16.41Z" transform="translate(-844.01 -389.81)"/><path class="cls-59" d="M2078,1347.11a6.39,6.39,0,0,1,1.55,3.77,6,6,0,0,1-.47,2.53c-1.39,3.66-3.58,4.14-5.93,8-1.45,2.38-1.17,3.09-2.5,4.17-1.74,1.41-3.84,1.49-5.67,1.51a99.47,99.47,0,0,1-13.12-.74c2.94-3.78,6.05-7.61,9.37-11.49q2.18-2.55,4.35-5l8.61-2.91Z" transform="translate(-844.01 -389.81)"/><path class="cls-81" d="M2070.83,1305.27s-4.93,25.7,1.34,32.9c5.34,7.19-2.58,2.06-2.58,2.06l-9.45,8.25-5.67,9.8s5.22-25.15,3.82-35.13-2.08-16.71-2.08-16.71Z" transform="translate(-844.01 -389.81)"/><path class="cls-82" d="M2095.2,859.26c-24-4-58.3,8.1-98-12.89-39-20.65-62.1-51.12-75.54-70.65l-17.53,8.67c9.93,17.13,33.3,53.82,64.27,79.37,39,32.17,77.13,34,97.91,60.31C2076.1,914.39,2106.9,861.24,2095.2,859.26Z" transform="translate(-844.01 -389.81)"/><path class="cls-83" d="M2052.26,1024.19S2039,1036,2039,1084.77s6.27,154.58,6.27,154.58l10,75.78s10.4.37,17.37-1.72c6.26-28.55,16.48-76.84,11.6-117.23-2.09-43.87,17.41-98.88,17.41-98.88s16.71,55.71,28.55,83.56,34.37,115.11,36.46,121.38c13.86,1.26,19.77-2.41,19.77-2.41s-8.88-93.9-17.24-129.41-7.66-121.17-21.58-145.54C2116.32,1012.35,2052.26,1024.19,2052.26,1024.19Z" transform="translate(-844.01 -389.81)"/><path class="cls-84" d="M2052.26,1024.19S2039,1036,2039,1084.77s6.27,154.58,6.27,154.58l10,75.78s10.4.37,17.37-1.72c6.26-28.55,16.48-76.84,11.6-117.23-2.09-43.87,17.41-98.88,17.41-98.88s16.71,55.71,28.55,83.56,34.37,115.11,36.46,121.38c13.86,1.26,19.77-2.41,19.77-2.41s-8.88-93.9-17.24-129.41-7.66-121.17-21.58-145.54C2116.32,1012.35,2052.26,1024.19,2052.26,1024.19Z" transform="translate(-844.01 -389.81)"/><path class="cls-85" d="M2121,1113.5c4.12,26.81,12.38,41.25,33,59.82,16.51,12.38,4.13,39.19,10.32,59.82,2.06,6.19,8.25,12.38,10.31,18.56,7.68,15.36.51,34.13,4,50.39,5.41-.75,7.87-2.26,7.87-2.26s-8.88-93.9-17.24-129.41-7.66-121.17-21.58-145.54c-31.34-12.53-95.4-.69-95.4-.69S2039,1036,2039,1084.77c0,4,0,8.29.12,12.91,13.73,12.15,41.82,14.85,59.15,1.38a8.08,8.08,0,0,1,3.31-1.5l.09-.26.07.24C2109.66,1096.1,2119.2,1106.34,2121,1113.5Z" transform="translate(-844.01 -389.81)"/><path class="cls-59" d="M2171.87,1336.51s-2,0-1.86,2.63-.92,11.67,9.42,12.09,11.94-.73,12.28-.73-2.71-8.65-2.71-8.65l-3.31-4.24-8.9-.93Z" transform="translate(-844.01 -389.81)"/><path class="cls-60" d="M2194.81,1345.58a32.77,32.77,0,0,0-2.67-8.38c-1.83-4.11-.33-5.65-2.08-9.39a11.15,11.15,0,0,0-2.46-3.74,10.67,10.67,0,0,0-7.31-2.78,7.37,7.37,0,0,0-3.43.8,8,8,0,0,0-3.1,3.27c-1.08,1.77-.83,2.32-2.49,7.39a18.57,18.57,0,0,0-.65,2.52,18.31,18.31,0,0,0-.27,2.26c2.71,0,13.14.42,15.34,2a8.64,8.64,0,0,1,3.31,7c0,2.71,1.36,4,2.71,3.9S2195.33,1348.18,2194.81,1345.58Z" transform="translate(-844.01 -389.81)"/><path class="cls-60" d="M2069.51,1334.56c2.33,0,4,1.89,5.32,6.36s7.48,8.42.26,7.48-12.46,9.28-15,13.06-9.5,7.14-9.33,3.45,3.23-5.43,4.09-9.21S2064.19,1334.47,2069.51,1334.56Z" transform="translate(-844.01 -389.81)"/><path class="cls-86" d="M2118.58,857.72c-11.69-.35-41.43-3.59-55.35,10.31-14.23,14.22.18,31.29-2.38,54.72-1.74,15.89-1.12,25.25-4.13,51.23a162.89,162.89,0,0,1-3.3,18.41c-4,16.93-10.88,50.22-14.6,58.54,11.91,6.12,42.59,17.06,79.15,11.62a123.37,123.37,0,0,0,39.46-13c-9.49-28.72-7.71-68.06-4.2-82.23,6.93-28,8.5-39,28.09-79.18,5.41-11.09-7.42-4.87-15.64-14.61C2153.08,858.6,2130.37,858.06,2118.58,857.72Z" transform="translate(-844.01 -389.81)"/><path class="cls-87" d="M2083.86,931c.59-5.17,1.56-14.61-3.09-24.5a37.71,37.71,0,0,0-8.26-11.34c-10.36-9.53-23.74-8.89-39-10a237.13,237.13,0,0,1-46.91-8.29c29.33,18.4,56.65,24.08,74.55,41.53,0,1.44-.13,2.9-.29,4.39-1.74,15.89-1.12,25.25-4.13,51.23a162.89,162.89,0,0,1-3.3,18.41c-4,16.93-10.88,50.22-14.6,58.54,11.91,6.12,42.59,17.06,79.15,11.62a123.37,123.37,0,0,0,39.46-13,140.06,140.06,0,0,1-5.81-28.26,118.63,118.63,0,0,1-53.32-12.48c-11.33-5.74-17-8.61-20.37-14.95C2071.45,981.69,2079.32,970.35,2083.86,931Z" transform="translate(-844.01 -389.81)"/><path class="cls-88" d="M2101.59,823.12c1.69-13.06,12-21.43,14.26-23.22,9.43-7.49,11.35-8.25,14.59-8.86l4.43-.67.48,0c2.59.15,10.35,3.18,11.76,4.17,4.51,3.17,1.19,25.62-12.48,53.54-.53,2.37-1.07,4.73-1.61,7.1,11.91,2.09,14.86,4.24,15,6,.2,3.71-12.84,8.45-24.93,8.76-15.15.39-31.25-6.13-30.94-11,.13-2,3-4.4,14-6.78l5.16-7.26C2109.7,843,2100.34,832.74,2101.59,823.12Z" transform="translate(-844.01 -389.81)"/><path class="cls-89" d="M2130.44,781.85c-4.75,4.64-5.92,12.72-4.51,18.54.84,3.48,1.93,3.84,1.77,6.12-.43,6.4-12.09,9.19-11.44,12.42.46,2.3,6.53,1.46,7.57,4.35,1.15,3.17-5.52,5.89-8.38,13.86-.45,1.24-3.16,8.78.32,13.22,3.25,4.14,10.51,3.16,18.7,2.1a65.25,65.25,0,0,0,17.41-4.68c6-2.62,12.41-5.44,17.74-11.93,1.26-1.53,8.68-10.85,8.06-23.86-.82-17.09-15.11-31.69-29.83-34C2145.47,777.6,2136.27,776.15,2130.44,781.85Z" transform="translate(-844.01 -389.81)"/><path class="cls-90" d="M2120.32,818.2c3.44-2.06,6.06,2.37,4.44,6.23s-7.06,6.28-10.36,4S2115.7,821,2120.32,818.2Z" transform="translate(-844.01 -389.81)"/><path class="cls-91" d="M2085.66,858.23l8.38-2.58s2.2,11.35,29.14,12.77A40.23,40.23,0,0,0,2147.8,860l6.45,3S2141,879.91,2121,879.51A40.1,40.1,0,0,1,2085.66,858.23Z" transform="translate(-844.01 -389.81)"/><g class="cls-92"><polygon class="cls-93" points="642.67 690.4 402.86 1088.16 1046.15 1088.16 817.78 698.62 642.67 690.4"/></g><path class="cls-94" d="M1571.38,557.07a1.12,1.12,0,0,1-1.12-1.12v-16.5a1.12,1.12,0,1,1,2.24,0V556A1.12,1.12,0,0,1,1571.38,557.07Z" transform="translate(-844.01 -389.81)"/><path class="cls-94" d="M1571.38,1010.86a1.12,1.12,0,0,1-1.12-1.12V556a1.12,1.12,0,1,1,2.24,0v453.79A1.12,1.12,0,0,1,1571.38,1010.86Z" transform="translate(-844.01 -389.81)"/><path class="cls-94" d="M1571.38,1027.36a1.12,1.12,0,0,1-1.12-1.11v-16.51a1.12,1.12,0,0,1,2.24,0v16.51A1.12,1.12,0,0,1,1571.38,1027.36Z" transform="translate(-844.01 -389.81)"/><path class="cls-94" d="M1571.38,462.18a1.12,1.12,0,0,1-1.12-1.12v-16.5a1.12,1.12,0,1,1,2.24,0v16.5A1.12,1.12,0,0,1,1571.38,462.18Z" transform="translate(-844.01 -389.81)"/><path class="cls-94" d="M1571.38,493.81a1.12,1.12,0,0,1-1.12-1.12V461.06a1.12,1.12,0,0,1,2.24,0v31.63A1.12,1.12,0,0,1,1571.38,493.81Z" transform="translate(-844.01 -389.81)"/><path class="cls-94" d="M1571.38,510.31a1.12,1.12,0,0,1-1.12-1.12v-16.5a1.12,1.12,0,1,1,2.24,0v16.5A1.12,1.12,0,0,1,1571.38,510.31Z" transform="translate(-844.01 -389.81)"/><path class="cls-94" d="M1571.38,419.12a1.12,1.12,0,0,1-1.12-1.12V390.93a1.12,1.12,0,1,1,2.24,0V418A1.12,1.12,0,0,1,1571.38,419.12Z" transform="translate(-844.01 -389.81)"/><path class="cls-95" d="M1667.06,1098.49v-29.21a41.41,41.41,0,0,0-41.29-41.3H1517a41.42,41.42,0,0,0-41.3,41.3v29.21Z" transform="translate(-844.01 -389.81)"/><ellipse class="cls-96" cx="727.5" cy="707.67" rx="95.82" ry="18.97"/><path class="cls-97" d="M1571.51,1072.88c-40.56,0-76-5.75-84.16-13.69a.66.66,0,1,1,.92-1c8,7.71,43,13.31,83.24,13.31,37.42,0,70.94-4.92,81.54-12a.67.67,0,0,1,.74,1.11C1642.82,1068,1609.76,1072.88,1571.51,1072.88Z" transform="translate(-844.01 -389.81)"/><path class="cls-98" d="M1609.16,1029.46a16.36,16.36,0,0,0-16.3-16.07h-43a16.36,16.36,0,0,0-16.31,16.31h0s0,0,0,.08c0,4.13,16.93,7.49,37.82,7.49s37.83-3.36,37.83-7.49A1.67,1.67,0,0,0,1609.16,1029.46Z" transform="translate(-844.01 -389.81)"/><path class="cls-99" d="M2432.35,1570.2c12.27,18.32,76-.33,117.31-20.4,66.66-32.4,64.11-63.36,119.85-90.53,80.62-39.29,159.84-10.58,163.21-27.41,2.22-11.07-30.42-31.49-65-38.25-40.2-7.86-59.55,7.32-153,36.34-75.47,23.43-83.08,19.82-108.74,36.66C2458.71,1497.6,2420.18,1552,2432.35,1570.2Z" transform="translate(-844.01 -389.81)"/><path class="cls-59" d="M2812.32,1329.85c2.13-2.73,6.92-3.75,10.36-2.71,6.75,2,6.7,15.16,8.29,29.17,1.81,15.9,4.41,32.76-2.71,32.68-3.17,0-8.9-9.7-10-18.65a90.29,90.29,0,0,0-5.34-20.64,56.63,56.63,0,0,1-1.52-8.82C2810.84,1335.3,2810.55,1332.13,2812.32,1329.85Z" transform="translate(-844.01 -389.81)"/><path class="cls-100" d="M2821,1341.25c0,6.87-11.57,9.64-18.57,9.64s-6.77-2.77-6.77-9.64.25-11.87,7.25-11.87S2821,1334.38,2821,1341.25Z" transform="translate(-844.01 -389.81)"/><path class="cls-101" d="M2516,1461.52l-11.4,45.17c.88,1.51,3.07,4.72,6.81,5.41,4.2.77,7.84-2.08,9.21-3.26,3-21.33,8.14-34.81,13.22-43.66,3.57-6.22,7.07-10.12,6.8-12.34C2540.18,1448.82,2527.87,1454.82,2516,1461.52Z" transform="translate(-844.01 -389.81)"/><path class="cls-102" d="M2488.76,1188.33l-7,1s-12.38-.51-19.6.78-11.35,4.9-11.35,12.38,9.13,8.4,17,9.28c4.81.54,11.36-3.51,16.35-7.25,3.51-2.63,12.47-5,12.47-5Z" transform="translate(-844.01 -389.81)"/><path class="cls-103" d="M2537.34,937.43c-8.79,5.86-10.4,22.69-8.07,32.86a74.65,74.65,0,0,0,7.95,20.24c1.75,4.48,3.27,8.69,4.49,12.45.9,2.77,1.52,5,2.1,7.33a92.26,92.26,0,0,1,2.2,13.37.57.57,0,0,0,.57.51h.05a.57.57,0,0,0,.52-.62,93.36,93.36,0,0,0-2.24-13.53c-.58-2.4-1.21-4.62-2.11-7.41-.65-2-1.38-4.1-2.17-6.3a61.64,61.64,0,0,1,7.43,20.78c4.84,27.92,31.65,36.07,47.41,30.06,13.94-5.33,24.05-19.17,25.89-32.54C2627.11,972.76,2556.67,924.54,2537.34,937.43Z" transform="translate(-844.01 -389.81)"/><path class="cls-104" d="M2592.6,1177.51c-20.53,35.7-33.8,88.8-51,148.91-15.44,54-28.87,102.35-35.65,140.19a73.9,73.9,0,0,0,11.88,8c17.65,9.56,35.14,9.67,44.9,8.88a360.47,360.47,0,0,1,5.06-42.09c4.47-24.77,12.42-70.77,31.38-112.45,13.16-28.92,19.74-43.37,30.85-53.25,6.84-6.08,22.67-18.93,25.4-38.51a18,18,0,0,0,.15-2.47C2655.48,1207.32,2604.65,1183,2592.6,1177.51Z" transform="translate(-844.01 -389.81)"/><path class="cls-105" d="M2592.6,1177.51c-11.22,19.51-20.26,44.24-29,72.44,20.52,11,38,29.41,30,51.85-7.65,23-36.34,32.52-42.08,59.29-5.74,28.69,7.65,53.56,1.91,82.24-2.83,13.45-3.82,26.89-4.34,40.23a88.69,88.69,0,0,0,13.59-.07,360.47,360.47,0,0,1,5.06-42.09c4.47-24.77,12.42-70.77,31.38-112.45,13.16-28.92,19.74-43.37,30.85-53.25,6.84-6.08,22.67-18.93,25.4-38.51a18,18,0,0,0,.15-2.47C2655.48,1207.32,2604.65,1183,2592.6,1177.51Z" transform="translate(-844.01 -389.81)"/><path class="cls-106" d="M2611.76,1228a9.3,9.3,0,0,0-.68,3c-.39,10.15,18.37,23.45,59.17,88.53,7.21,11.49,19.49,31.61,39.4,37.58a39.49,39.49,0,0,0,6.39,1.36,41.22,41.22,0,0,0,11.42-.1c4.94-.7,24.07,0,78.56,4.87.43-1,9.73-22.58-2.17-37.53a28.55,28.55,0,0,0-10.86-8.24c-12.78-1.93-23.51-2.92-31.61-3.46a137.68,137.68,0,0,0-22.91-.07c-4.74.42-8.67,1-11.43,1.56-19.48-56.18-9.94-105-33.35-106C2689,1209.22,2616.56,1213.8,2611.76,1228Z" transform="translate(-844.01 -389.81)"/><path class="cls-107" d="M2548.7,1077.07c-11.89,4.13,6,46.64-18.39,79.24-12.32,16.46-30.86,24.3-47.06,28.32,3.29,10.56,2.73,10.59,6,21.15,8.49.35,40.19.65,67-22.38,6.84-5.87,28-24,29.37-52.31C2587.38,1095.1,2559.91,1073.19,2548.7,1077.07Z" transform="translate(-844.01 -389.81)"/><path class="cls-108" d="M2563.34,1035.44c-6,7.12-8.46,13.67-11.61,22.22-5,13.54-7.86,21.28-7.49,30.87.72,18.45,12.89,31.85,18.71,37.43,12.73,40.87,15.68,50.43,15.69,50.56v.25a117,117,0,0,1-3.75,20.87c-6.32,22.9-15.13,27.19-12.88,35.44,3.94,14.48,36.24,20.39,60.81,17.78,13-1.39,14.22-4.14,25.26-6.08,46.39-8.15,67.75,33,98.09,22.45,21.56-7.51,21.87-32.49,49.9-37.42,9.78-1.72,20.6-.65,21.51-4.37s-8.21-9.44-15.9-12.47c-16.59-6.55-31.9-2.32-38.67-1.25-30.35,4.79-61.24-26.76-79.77-45.7-52.41-53.52-50.94-128-50.32-143.53-4.16-2.22-19.34-9.7-52.74-.71A56.77,56.77,0,0,0,2563.34,1035.44Z" transform="translate(-844.01 -389.81)"/><path class="cls-109" d="M2817.59,1225.44c.9-3.63-8.21-9.44-15.9-12.47-16.59-6.55-31.9-2.32-38.67-1.25-30.35,4.79-61.24-26.76-79.77-45.7-26.32-26.88-39.05-59-45.12-86.38-4.13,30.47-15.08,61.34-2.4,88.28,9.56,24.86,45.9,22.95,59.29,51.64,5.73,11.48,21,9.56,34.42,11.48,9.57,0,13.39,15.3,26.78,13.38,5.74-1.91,9.56-11.47,13.39-11.47,4.86,0,10.1.07,15.5.34a40.76,40.76,0,0,1,11-3.48C2805.86,1228.09,2816.68,1229.16,2817.59,1225.44Z" transform="translate(-844.01 -389.81)"/><path class="cls-110" d="M2659.79,1230.11c-3.51,2.8-11.44,8.36-21.05,8.5a22.43,22.43,0,0,1-7.9-1.15,25,25,0,0,1-10.35-7,173.14,173.14,0,0,1,22.61-9.56l7.33-2Z" transform="translate(-844.01 -389.81)"/><path class="cls-111" d="M2769.74,1171.68l-174.35,70.2a8.84,8.84,0,0,1-11.51-4.9l-39.45-99.06a8.85,8.85,0,0,1,4.9-11.52l174.35-70.2a8.85,8.85,0,0,1,11.52,4.91l39.44,99.06A8.84,8.84,0,0,1,2769.74,1171.68Z" transform="translate(-844.01 -389.81)"/><path class="cls-112" d="M2773,1172.71l-174.34,70.2a8.85,8.85,0,0,1-11.52-4.9L2547.7,1139a8.85,8.85,0,0,1,4.9-11.52l174.35-70.2a8.85,8.85,0,0,1,11.51,4.91l39.45,99.06A8.84,8.84,0,0,1,2773,1172.71Z" transform="translate(-844.01 -389.81)"/><path class="cls-16" d="M2623.87,1149.55c9.46.17,18,8.08,19.13,17.63a16.25,16.25,0,0,1-.84,7.46l21,9.73a37.69,37.69,0,0,0,1.79-16.87c-2.52-21.83-22.06-40-43.71-40.44h-.17l2.6,22.49Z" transform="translate(-844.01 -389.81)"/><path class="cls-113" d="M2642.16,1174.64a14.63,14.63,0,0,1-14.28,9.67c-9.48-.11-18.12-8-19.23-17.63s5.65-17.2,15.06-17.12l-2.6-22.49c-21.74-.38-37.45,17.21-34.9,39.29s22.49,40.26,44.26,40.43c15.64.11,28-9.08,32.73-22.42Z" transform="translate(-844.01 -389.81)"/><path class="cls-114" d="M2748.56,1117l-72.71,29.77a.67.67,0,0,1-.88-.38l-2.8-6.92a.68.68,0,0,1,.37-.89l72.75-29.66a.66.66,0,0,1,.86.37l2.76,6.84A.67.67,0,0,1,2748.56,1117Z" transform="translate(-844.01 -389.81)"/><path class="cls-114" d="M2742.42,1102.23,2669.71,1132a.67.67,0,0,1-.87-.37l-2.8-6.93a.68.68,0,0,1,.36-.89l72.76-29.66a.66.66,0,0,1,.86.37l2.76,6.84A.67.67,0,0,1,2742.42,1102.23Z" transform="translate(-844.01 -389.81)"/><path class="cls-114" d="M2760.52,1147.31l-72.71,29.77a.67.67,0,0,1-.88-.38l-2.8-6.93a.67.67,0,0,1,.37-.88l72.75-29.67a.67.67,0,0,1,.86.38l2.76,6.84A.67.67,0,0,1,2760.52,1147.31Z" transform="translate(-844.01 -389.81)"/><path class="cls-114" d="M2754.38,1132.59l-72.71,29.77a.67.67,0,0,1-.87-.38l-2.81-6.93a.68.68,0,0,1,.37-.88l72.76-29.66a.66.66,0,0,1,.86.37l2.76,6.84A.67.67,0,0,1,2754.38,1132.59Z" transform="translate(-844.01 -389.81)"/><path class="cls-115" d="M2611.82,1038.43c17.76-17.24,73,2.32,93.86,47.45,17.91,38.83,23.15,68.6,5,106.78a94.41,94.41,0,0,1-46.82,45.65c-1.45-2.53-6.77-7-13.77-17.59,17.63-6.61,34.22-38.44,36.09-58,2.48-26-11.27-51-24.08-60.15-12-8.58-48.42,1.22-59.87-6.85C2587.05,1085,2598.16,1051.69,2611.82,1038.43Z" transform="translate(-844.01 -389.81)"/><path class="cls-116" d="M2581.78,968c-3.08,14.61-4.34,32.23,5.48,41.32,8.65,8,21,4.93,21.93,9.12,1.73,8.29-45.3,26.8-48.83,20.91-1.75-2.9,13-9.57,12.72-20.2-.13-4.42-2.13-7.49-13.53-23.21l-3.82,1.34Z" transform="translate(-844.01 -389.81)"/><path class="cls-117" d="M2731.3,983.39c-7.47-22.8-30.5-34.34-34.86-36.31-27.06-12.25-37.54,4.28-69.46-7.24-1.39-.5-2.71-1-4-1.54a80.9,80.9,0,0,0,25.45,4.08l2,0h.59a89.08,89.08,0,0,0,12.8-1.52c3-.49,5.85-1,8-1.14a39,39,0,0,1,13.4,1l1.91.41a.47.47,0,0,0,.55-.37.47.47,0,0,0-.36-.55l-1.9-.41a40,40,0,0,0-13.67-1c-2.21.18-5.07.65-8.1,1.14-4.57.75-9.75,1.59-13.21,1.51l-2,0c-7.14-.13-15.92-.32-33.28-6.83-2.11-1.1-4.11-2.22-6.07-3.33l2,.77c5.09,2,10.36,4.05,15.61,4.89a36.77,36.77,0,0,0,6,.47l1.58,0a.57.57,0,0,0,.54-.59.55.55,0,0,0-.59-.55,36.24,36.24,0,0,1-7.31-.42c-5.13-.83-10.34-2.86-15.38-4.83-2-.78-4.05-1.58-6-2.28-.85-.3-1.68-.58-2.51-.84a80.48,80.48,0,0,0-26.08-8.87c-10.6-1.81-30.3-1.53-35.31,3.91-5.53,6,18.32,12.37,26.86,52.82,2.17,10.3,7.78,35.1,30.73,55.58,5.3,4.73,48.64,42.34,91.69,24.17C2719.51,1043.39,2740,1010,2731.3,983.39Z" transform="translate(-844.01 -389.81)"/><g class="cls-48"><path class="cls-118" d="M2731.3,983.39c-7.47-22.8-30.5-34.34-34.86-36.31a57.56,57.56,0,0,0-8.18-3,36.9,36.9,0,0,1,8,8.18c2.17,3.06,7.45,10.52,6.23,19.33-1.13,8.2-6.89,10.4-12.47,19.34-9.35,15-2.64,24-8.73,32.43-10.76,14.89-47.76,9-71.11-1.25a106.9,106.9,0,0,1-35.61-25.73,94.16,94.16,0,0,0,24.58,34.94c5.3,4.73,48.64,42.34,91.69,24.17C2719.51,1043.39,2740,1010,2731.3,983.39Z" transform="translate(-844.01 -389.81)"/></g><path class="cls-119" d="M2575.37,983.39s.82,17.22-16,19.79c-20.68,3.17-31-51.13-26.47-55,5.3-4.49,11.72,3.63,24.85-1.47,5.53-2.15,9.39-10.24,13.46-2.73,4.63,8.53,4.2,24.92,4.2,24.92s4.33-4.78,5.8,0C2583.16,975.14,2579,979.84,2575.37,983.39Z" transform="translate(-844.01 -389.81)"/><path class="cls-120" d="M2533.86,928.86c-5.59,7.67-7.29,21.21-1.77,27.07,7.93,8.43,25.83-4.23,35.44,6.08,4.21,4.53,5,11.54,6.82,11.17,1.48-.32,1.65-5.29,1.92-9.4,1.49-22.66,6.6-25.94,4-32C2575,919.52,2545.32,913.11,2533.86,928.86Z" transform="translate(-844.01 -389.81)"/><path class="cls-59" d="M2479.85,1493.06c1.47-2,11.14-1,16,1.68,8.19,4.5,13,12.52,15.06,13.62,4.78,2.51,9.31.36,9.72.48,0,0,3.19,6.46-2.55,9.56S2470.76,1505.73,2479.85,1493.06Z" transform="translate(-844.01 -389.81)"/></g></g></svg>