<svg xmlns="http://www.w3.org/2000/svg" xmlns:xlink="http://www.w3.org/1999/xlink" viewBox="0 0 3207.59 2074"><defs><style>.cls-1{fill:url(#linear-gradient);}.cls-2{fill:none;}.cls-3{isolation:isolate;}.cls-4{clip-path:url(#clip-path);}.cls-5{fill:url(#linear-gradient-2);}.cls-6{fill:#beb8f2;}.cls-111,.cls-7,.cls-8,.cls-99{fill:#6165d7;}.cls-109,.cls-35,.cls-37,.cls-43,.cls-48,.cls-7,.cls-76,.cls-8,.cls-85,.cls-87,.cls-99{mix-blend-mode:multiply;}.cls-7{opacity:0.19;}.cls-8{opacity:0.32;}.cls-9{fill:url(#linear-gradient-3);}.cls-10{fill:url(#linear-gradient-4);}.cls-11{fill:url(#linear-gradient-5);}.cls-12{clip-path:url(#clip-path-2);}.cls-13{fill:#fcfdfe;}.cls-14,.cls-76{fill:#d8dee8;}.cls-15{fill:#f4f7fa;}.cls-16,.cls-93{fill:#fff;}.cls-17{fill:#c281e8;}.cls-18{fill:url(#linear-gradient-6);}.cls-19{fill:#f8924e;}.cls-20{fill:#ffc244;}.cls-21{fill:#9c73f4;}.cls-22{fill:url(#linear-gradient-7);}.cls-23{fill:#a67ff7;}.cls-24{fill:url(#linear-gradient-8);}.cls-25{fill:url(#linear-gradient-9);}.cls-26{clip-path:url(#clip-path-3);}.cls-27{fill:url(#linear-gradient-10);}.cls-28{fill:url(#linear-gradient-11);}.cls-29{fill:url(#linear-gradient-12);}.cls-30{clip-path:url(#clip-path-4);}.cls-31{fill:url(#linear-gradient-13);}.cls-32{clip-path:url(#clip-path-5);}.cls-33{fill:url(#linear-gradient-14);}.cls-34{fill:url(#linear-gradient-15);}.cls-35{opacity:0.35;}.cls-36{fill:url(#linear-gradient-16);}.cls-37{opacity:0.13;}.cls-38{fill:url(#linear-gradient-17);}.cls-39{fill:#ffa6a4;}.cls-40{fill:url(#linear-gradient-18);}.cls-41{fill:url(#linear-gradient-19);}.cls-42{fill:url(#linear-gradient-20);}.cls-109,.cls-43{opacity:0.24;}.cls-44{fill:#552d63;}.cls-45{fill:url(#linear-gradient-21);}.cls-46{fill:url(#linear-gradient-22);}.cls-47{fill:url(#linear-gradient-23);}.cls-48{opacity:0.2;}.cls-49{fill:url(#linear-gradient-24);}.cls-50{fill:url(#linear-gradient-25);}.cls-51{fill:url(#linear-gradient-26);}.cls-52{fill:#9f73f8;}.cls-53{fill:#ae87f9;}.cls-54{fill:url(#linear-gradient-27);}.cls-55{fill:url(#linear-gradient-28);}.cls-56{fill:url(#linear-gradient-29);}.cls-57{fill:url(#linear-gradient-30);}.cls-58{fill:url(#linear-gradient-31);}.cls-59{fill:#26264f;}.cls-60{fill:#444b8c;}.cls-61{fill:url(#linear-gradient-32);}.cls-62{fill:#1f1f44;}.cls-63{fill:url(#linear-gradient-33);}.cls-64{fill:url(#linear-gradient-34);}.cls-65{fill:url(#linear-gradient-35);}.cls-66{fill:url(#linear-gradient-36);}.cls-67{fill:url(#linear-gradient-37);}.cls-68{fill:url(#linear-gradient-38);}.cls-69{clip-path:url(#clip-path-6);}.cls-70{fill:url(#linear-gradient-39);}.cls-71{clip-path:url(#clip-path-7);}.cls-72{fill:#5a2f71;}.cls-73{fill:url(#linear-gradient-40);}.cls-74{fill:url(#linear-gradient-41);}.cls-75{clip-path:url(#clip-path-8);}.cls-76{opacity:0.47;}.cls-77{fill:url(#linear-gradient-42);}.cls-78{fill:url(#linear-gradient-43);}.cls-79{fill:url(#linear-gradient-44);}.cls-80{fill:url(#linear-gradient-45);}.cls-81{fill:url(#linear-gradient-46);}.cls-82{fill:url(#linear-gradient-47);}.cls-83{fill:url(#linear-gradient-48);}.cls-84{fill:url(#linear-gradient-49);}.cls-85,.cls-87{opacity:0.25;}.cls-85{fill:url(#linear-gradient-50);}.cls-86{fill:url(#linear-gradient-51);}.cls-87{fill:url(#linear-gradient-52);}.cls-88{fill:url(#linear-gradient-53);}.cls-89{fill:url(#linear-gradient-54);}.cls-90{fill:url(#linear-gradient-55);}.cls-91{fill:url(#linear-gradient-56);}.cls-92{mask:url(#mask);}.cls-93{opacity:0.82;}.cls-94{fill:#6567d9;}.cls-95{fill:url(#linear-gradient-57);}.cls-96{fill:url(#linear-gradient-58);}.cls-97{fill:#726bdf;}.cls-98{fill:url(#linear-gradient-59);}.cls-99{opacity:0.3;}.cls-100{fill:url(#linear-gradient-60);}.cls-101{fill:url(#linear-gradient-61);}.cls-102{fill:url(#linear-gradient-62);}.cls-103{fill:url(#linear-gradient-63);}.cls-104{fill:url(#linear-gradient-64);}.cls-105{fill:url(#linear-gradient-65);}.cls-106{fill:url(#linear-gradient-66);}.cls-107{fill:url(#linear-gradient-67);}.cls-108{fill:url(#linear-gradient-68);}.cls-109{fill:#f8944e;}.cls-110{fill:url(#linear-gradient-69);}.cls-112{fill:url(#linear-gradient-70);}.cls-113{fill:url(#linear-gradient-71);}.cls-114{fill:#4c53a5;}.cls-115{fill:url(#linear-gradient-72);}.cls-116{fill:url(#linear-gradient-73);}.cls-117{fill:url(#linear-gradient-74);}.cls-118{fill:url(#linear-gradient-75);}.cls-119{fill:url(#linear-gradient-76);}.cls-120{fill:url(#linear-gradient-77);}</style><linearGradient id="linear-gradient" x1="1391.9" y1="1677.96" x2="1391.9" y2="1080.32" gradientUnits="userSpaceOnUse"><stop offset="0.3"/><stop offset="0.36" stop-color="#070707"/><stop offset="0.45" stop-color="#1b1b1b"/><stop offset="0.56" stop-color="#3b3b3b"/><stop offset="0.68" stop-color="#686868"/><stop offset="0.81" stop-color="#a2a2a2"/><stop offset="0.95" stop-color="#e7e7e7"/><stop offset="1" stop-color="#fff"/></linearGradient><clipPath id="clip-path" transform="translate(-303.34 -43)"><path class="cls-2" d="M2843.59,1146.21q-71.7-2.57-143.59-8.39c-.69.78-27.43-99.77,15.2-158.77,84.54-114.51,9.52-200.58-15-253.78-38.16-74.64-33.51-171,54.26-162.76,85.28,6,78.9-167.48,49.79-298.46-19.45-63.16,32.76-148.19,91.53-172.81,59.83-26.69,126.21,7,159.43,133.55,45.2,145.73-53.53,247.57-85.51,326.69-31.48,77.68,67.2,126.78.25,199.93-56,64.61-130,114.79-93.2,184.09C2914.18,1003.89,2913.59,1063.26,2843.59,1146.21Z"/></clipPath><linearGradient id="linear-gradient-2" x1="2549.19" y1="34.68" x2="2209.37" y2="1000.49" gradientTransform="matrix(-0.92, -0.4, -0.4, 0.92, 5249.41, 1097.73)" gradientUnits="userSpaceOnUse"><stop offset="0" stop-color="#aa80f9"/><stop offset="1" stop-color="#6165d7"/></linearGradient><linearGradient id="linear-gradient-3" x1="2902.36" y1="1130.6" x2="3119.85" y2="1203.7" gradientUnits="userSpaceOnUse"><stop offset="0" stop-color="#ab316d"/><stop offset="1" stop-color="#792d3d"/></linearGradient><linearGradient id="linear-gradient-4" x1="2576.91" y1="989.5" x2="2747.56" y2="989.5" gradientUnits="userSpaceOnUse"><stop offset="0" stop-color="#ffc444"/><stop offset="1" stop-color="#f36f56"/></linearGradient><linearGradient id="linear-gradient-5" x1="2825.87" y1="683.85" x2="3241.4" y2="683.85" gradientUnits="userSpaceOnUse"><stop offset="0" stop-color="#e38ddd"/><stop offset="1" stop-color="#9571f6"/></linearGradient><clipPath id="clip-path-2" transform="translate(-303.34 -43)"><path class="cls-2" d="M3055.35,1035.48l-156,51.73c-16.41-19.07-41.52-56-12.21-76.83,40.74-29,14.69-109.17-7.35-133.17-27.28-29.69-89.39-100.15-27.1-146,51.86-38.16,93.12-52.18,71.73-128.39s3.56-136.78,72.93-155.42c73-19.62,99.21-134.6,168.53-122.71,120.79,20.71,84.55,217-23.17,307s-21.4,110.43,2.78,170.52c33,82-86.07,102.64-104.75,145.64C3026.09,981.54,3042.52,1015.58,3055.35,1035.48Z"/></clipPath><linearGradient id="linear-gradient-6" x1="1730.84" y1="541.4" x2="1914.73" y2="541.4" gradientUnits="userSpaceOnUse"><stop offset="0" stop-color="#ff9085"/><stop offset="1" stop-color="#fb6fbb"/></linearGradient><linearGradient id="linear-gradient-7" x1="2342.33" y1="549.57" x2="2708.33" y2="549.57" xlink:href="#linear-gradient-6"/><linearGradient id="linear-gradient-8" x1="1077" y1="1184.75" x2="1232.48" y2="1184.75" xlink:href="#linear-gradient-6"/><linearGradient id="linear-gradient-9" x1="1061.17" y1="718.52" x2="1148.4" y2="718.52" xlink:href="#linear-gradient-6"/><clipPath id="clip-path-3" transform="translate(-303.34 -43)"><path class="cls-2" d="M1316,544.6l3.09,93.14,234.53,1.56-3.87-118.48c-63-30-97.83-27.24-118.09-18.86-22.78,9.43-35.5,29.47-73.72,38.66A154.88,154.88,0,0,1,1316,544.6Z"/></clipPath><linearGradient id="linear-gradient-10" x1="984.13" y1="472.35" x2="1191.21" y2="656.03" xlink:href="#linear-gradient-6"/><linearGradient id="linear-gradient-11" x1="1032.09" y1="422.1" x2="1237.25" y2="604.08" xlink:href="#linear-gradient-6"/><linearGradient id="linear-gradient-12" x1="1063.14" y1="390.5" x2="1266.93" y2="571.27" xlink:href="#linear-gradient-6"/><clipPath id="clip-path-4" transform="translate(-303.34 -43)"><path class="cls-2" d="M2317.85,1007c21.9-15.42,39.71-18.47,52.28-18.18,15.91.38,21.19,6,38.33,3.89,17.48-2.19,18.63-8.92,38.13-12.08a104.52,104.52,0,0,1,37.8,1.33c22.53,4.92,23.65,13.12,37.43,12.57,12.71-.5,13.43-7.55,38.26-18.63,11.71-5.22,22.63-10.1,37.26-11.38,15.92-1.4,17.2,3.14,37.47,2.87a153.2,153.2,0,0,0,36.52-5.23c21.41-5.33,24.05-10.11,38.53-12.29,8.59-1.28,21.69-1.71,38.77,3.86q1.63,54.75,3.28,109.49l-431.46,11.29Q2319.15,1040.79,2317.85,1007Z"/></clipPath><linearGradient id="linear-gradient-13" x1="1728.48" y1="968.33" x2="2164.68" y2="968.33" xlink:href="#linear-gradient-6"/><clipPath id="clip-path-5" transform="translate(-303.34 -43)"><path class="cls-2" d="M738.06,1500.56H891.8s29-78.87-8.73-134.52c-76.87-113.56,27.95-173,68.14-204.41,60.59-47.43,93.31-115.65,4.21-145.35s.44-167.79,109.35-230.27c106.57-61.15,59.37-285.88-183.45-174.71C736.32,677.69,759,831.43,752,911.8s-126.51,87-85.61,185.19c34.94,83.86,101.33,145,50.67,202.66S661.19,1421.94,738.06,1500.56Z"/></clipPath><linearGradient id="linear-gradient-14" x1="1010.14" y1="605.75" x2="704.07" y2="1475.63" gradientTransform="matrix(1, 0, 0, 1, 0, 0)" xlink:href="#linear-gradient-2"/><linearGradient id="linear-gradient-15" x1="979.36" y1="1309.52" x2="1592.31" y2="2618.92" xlink:href="#linear-gradient-6"/><linearGradient id="linear-gradient-16" x1="1049.73" y1="1276.58" x2="1662.68" y2="2585.98" xlink:href="#linear-gradient-6"/><linearGradient id="linear-gradient-17" x1="979.36" y1="1309.52" x2="1592.32" y2="2618.93" xlink:href="#linear-gradient-6"/><linearGradient id="linear-gradient-18" x1="-1081.16" y1="1362.1" x2="-953.85" y2="1362.1" gradientTransform="matrix(0.66, -0.75, 0.75, 0.66, 1431.52, 171.13)" gradientUnits="userSpaceOnUse"><stop offset="0" stop-color="#40447e"/><stop offset="1" stop-color="#3c3b6b"/></linearGradient><linearGradient id="linear-gradient-19" x1="1804.73" y1="1526.19" x2="2829.25" y2="2589.36" gradientTransform="translate(-120.12 -124.63) rotate(5.62)" xlink:href="#linear-gradient-4"/><linearGradient id="linear-gradient-20" x1="981.5" y1="1632.74" x2="1610.97" y2="1967.08" gradientTransform="translate(84.94 52.41) rotate(-3.5)" gradientUnits="userSpaceOnUse"><stop offset="0" stop-color="#311944"/><stop offset="1" stop-color="#6b3976"/></linearGradient><linearGradient id="linear-gradient-21" x1="743.15" y1="1782.51" x2="1313.94" y2="1676.47" gradientTransform="translate(84.94 52.41) rotate(-3.5)" gradientUnits="userSpaceOnUse"><stop offset="0" stop-color="#311944"/><stop offset="1" stop-color="#893976"/></linearGradient><linearGradient id="linear-gradient-22" x1="1212.76" y1="1884.16" x2="1065.82" y2="1536.21" gradientTransform="translate(84.94 52.41) rotate(-3.5)" xlink:href="#linear-gradient-2"/><linearGradient id="linear-gradient-23" x1="982.16" y1="1723.17" x2="919.78" y2="1479.19" gradientTransform="translate(84.94 52.41) rotate(-3.5)" xlink:href="#linear-gradient-2"/><linearGradient id="linear-gradient-24" x1="982.16" y1="1723.17" x2="919.78" y2="1479.19" gradientTransform="translate(84.94 52.41) rotate(-3.5)" xlink:href="#linear-gradient-2"/><linearGradient id="linear-gradient-25" x1="964.43" y1="1644.25" x2="1264.06" y2="1564.77" gradientTransform="translate(84.94 52.41) rotate(-3.5)" xlink:href="#linear-gradient-4"/><linearGradient id="linear-gradient-26" x1="924.18" y1="1754.11" x2="858.54" y2="1497.4" gradientTransform="translate(84.94 52.41) rotate(-3.5)" gradientUnits="userSpaceOnUse"><stop offset="0.28" stop-color="#aa80f9"/><stop offset="1" stop-color="#6165d7"/></linearGradient><linearGradient id="linear-gradient-27" x1="905.11" y1="1460.73" x2="911.01" y2="1303.4" gradientTransform="translate(84.94 52.41) rotate(-3.5)" xlink:href="#linear-gradient-4"/><linearGradient id="linear-gradient-28" x1="872.29" y1="1407.19" x2="931.52" y2="1239.25" xlink:href="#linear-gradient-20"/><linearGradient id="linear-gradient-29" x1="913.39" y1="1307.43" x2="909.63" y2="1610.28" gradientTransform="translate(84.94 52.41) rotate(-3.5)" xlink:href="#linear-gradient-4"/><linearGradient id="linear-gradient-30" x1="850.26" y1="1403.39" x2="923.03" y2="1240.08" xlink:href="#linear-gradient-20"/><linearGradient id="linear-gradient-31" x1="857.36" y1="1401.61" x2="916.17" y2="1234.85" xlink:href="#linear-gradient-20"/><linearGradient id="linear-gradient-32" x1="1055.38" y1="1623.53" x2="1260.17" y2="1623.53" gradientTransform="translate(84.94 52.41) rotate(-3.5)" xlink:href="#linear-gradient-18"/><linearGradient id="linear-gradient-33" x1="332.19" y1="1682.66" x2="433.91" y2="1682.66" gradientTransform="translate(617.05 234.75) rotate(-22.13)" xlink:href="#linear-gradient-18"/><linearGradient id="linear-gradient-34" x1="1355.66" y1="1655.24" x2="2380.22" y2="2718.46" gradientTransform="translate(84.94 52.41) rotate(-3.5)" xlink:href="#linear-gradient-4"/><linearGradient id="linear-gradient-35" x1="930.51" y1="1727.95" x2="1399.75" y2="1682.21" xlink:href="#linear-gradient-20"/><linearGradient id="linear-gradient-36" x1="750.09" y1="1819.87" x2="1320.88" y2="1713.82" xlink:href="#linear-gradient-21"/><linearGradient id="linear-gradient-37" x1="953.69" y1="1745.48" x2="1299.01" y2="1671.68" xlink:href="#linear-gradient-20"/><linearGradient id="linear-gradient-38" x1="811.55" y1="1613.21" x2="192.97" y2="543.58" xlink:href="#linear-gradient-4"/><clipPath id="clip-path-6" transform="translate(-303.34 -43)"><path class="cls-2" d="M702.91,1959.35H859.83s62.58-132.63,8.41-171.86-16.82-149.82-3.74-211.09c35.49-166.26-148.09-175-119.56-392.3,7.59-57.79,41.39-165.47-1.24-217.94-48.57-59.78-95.9-13.7-125.79-62.27-46.71-75.91-134-112.47-197.27-49.08-62.46,62.57-16.08,209.7,130.05,342.35,94,107,92,135.1,74.69,201.77-12.14,46.7-73.78,164.39-15.87,222.3s100.1,117.79,68.18,168.13C629.12,1866,702.91,1959.35,702.91,1959.35Z"/></clipPath><linearGradient id="linear-gradient-39" x1="460.63" y1="1408.16" x2="804.5" y2="1974.25" xlink:href="#linear-gradient-5"/><clipPath id="clip-path-7" transform="translate(-303.34 -43)"><path class="cls-2" d="M672.51,1961.08H822.9c8.76-21.28,20-60.56-11.52-70.24-43.74-13.46-44.2-90.58-32-117.77,15.14-33.65,48.79-112.72-18.51-134.6-56-18.2-95.9-18.5-99.27-90.85s-42.48-117.77-108.09-114c-69,4-124.93-88.32-181.71-58-98.94,52.77-10.93,212.83,108.52,259.94s50.39,89.74,46.69,148.9c-5,80.75,104.31,64.35,132.91,96.32C682.38,1905.81,677.92,1940.11,672.51,1961.08Z"/></clipPath><linearGradient id="linear-gradient-40" x1="1702.25" y1="644.05" x2="2485.43" y2="644.05" gradientUnits="userSpaceOnUse"><stop offset="0" stop-color="#e3e7ef"/><stop offset="1" stop-color="#fafbfd"/></linearGradient><linearGradient id="linear-gradient-41" x1="2547.81" y1="576.39" x2="2733.74" y2="576.39" gradientTransform="matrix(1, 0.06, -0.26, 1.01, -414.16, -152.58)" xlink:href="#linear-gradient-6"/><clipPath id="clip-path-8" transform="translate(-303.34 -43)"><path class="cls-2" d="M2372.17,856.63l-493.39-25.88c-13.71-.72-22.43-11.8-19.43-24.75l82.1-353.9c3-12.75,16.28-21.93,29.72-20.52l483.61,50.55c11.77,1.23,19.17,11.86,16.55,23.75l-72.64,330C2396,848,2384.17,857.26,2372.17,856.63Z"/></clipPath><linearGradient id="linear-gradient-42" x1="1902.08" y1="611.11" x2="1868.17" y2="647.75" xlink:href="#linear-gradient-4"/><linearGradient id="linear-gradient-43" x1="2427.55" y1="681.11" x2="2376.42" y2="736.35" xlink:href="#linear-gradient-4"/><linearGradient id="linear-gradient-44" x1="2222.97" y1="553.18" x2="2444.43" y2="905.17" xlink:href="#linear-gradient-6"/><linearGradient id="linear-gradient-45" x1="2307.99" y1="1460.92" x2="2307.99" y2="1404.73" xlink:href="#linear-gradient-4"/><linearGradient id="linear-gradient-46" x1="2136.72" y1="1476.93" x2="2136.72" y2="1409.22" xlink:href="#linear-gradient-4"/><linearGradient id="linear-gradient-47" x1="1289.83" y1="259.35" x2="1557.5" y2="684.78" gradientTransform="translate(687.04 851.9) rotate(-19.17)" xlink:href="#linear-gradient-6"/><linearGradient id="linear-gradient-48" x1="2098.84" y1="1210.93" x2="2320.39" y2="1210.93" gradientTransform="matrix(1, 0, 0, 1, 0, 0)" xlink:href="#linear-gradient-21"/><linearGradient id="linear-gradient-49" x1="2091.8" y1="1045.78" x2="2251.41" y2="1313.87" gradientTransform="matrix(1, 0, 0, 1, 0, 0)" xlink:href="#linear-gradient-21"/><linearGradient id="linear-gradient-50" x1="2154.63" y1="1008.37" x2="2314.25" y2="1276.46" gradientTransform="matrix(1, 0, 0, 1, 0, 0)" xlink:href="#linear-gradient-21"/><linearGradient id="linear-gradient-51" x1="2028.34" y1="626.91" x2="2290.87" y2="1044.19" xlink:href="#linear-gradient-6"/><linearGradient id="linear-gradient-52" x1="1925.11" y1="601.69" x2="2229.65" y2="1085.72" xlink:href="#linear-gradient-6"/><linearGradient id="linear-gradient-53" x1="2252.13" y1="679.72" x2="2188.3" y2="782.97" xlink:href="#linear-gradient-4"/><linearGradient id="linear-gradient-54" x1="2211.52" y1="682.53" x2="2307.21" y2="682.53" gradientTransform="matrix(1, 0, 0, 1, 0, 0)" xlink:href="#linear-gradient-20"/><linearGradient id="linear-gradient-55" x1="1702.02" y1="446.33" x2="1640.25" y2="546.24" gradientTransform="translate(470.03 633.89) rotate(-13.66)" xlink:href="#linear-gradient-4"/><linearGradient id="linear-gradient-56" x1="2185.14" y1="694.48" x2="2240.22" y2="782.03" xlink:href="#linear-gradient-5"/><mask id="mask" x="605.3" y="1037.32" width="966.53" height="597.64" maskUnits="userSpaceOnUse"><g transform="translate(-303.34 -43)"><polygon class="cls-1" points="1268.94 1080.32 908.64 1677.96 1875.17 1677.96 1532.05 1092.67 1268.94 1080.32"/></g></mask><linearGradient id="linear-gradient-57" x1="1278.01" y1="972.68" x2="1486.36" y2="1146.65" xlink:href="#linear-gradient-5"/><linearGradient id="linear-gradient-58" x1="957.59" y1="950.14" x2="1165.93" y2="1124.11" xlink:href="#linear-gradient-5"/><linearGradient id="linear-gradient-59" x1="1339.42" y1="997.86" x2="1453.08" y2="997.86" gradientTransform="matrix(1, 0, 0, 1, 0, 0)" xlink:href="#linear-gradient-2"/><linearGradient id="linear-gradient-60" x1="3235.68" y1="1470.85" x2="3273.76" y2="1470.85" xlink:href="#linear-gradient-4"/><linearGradient id="linear-gradient-61" x1="2805.19" y1="1736.65" x2="2841.83" y2="1623.14" xlink:href="#linear-gradient-4"/><linearGradient id="linear-gradient-62" x1="2717.58" y1="1260.44" x2="2832.45" y2="1260.44" xlink:href="#linear-gradient-4"/><linearGradient id="linear-gradient-63" x1="2833.98" y1="948.04" x2="2974.28" y2="948.04" gradientUnits="userSpaceOnUse"><stop offset="0" stop-color="#6e1f3f"/><stop offset="1" stop-color="#792d3d"/></linearGradient><linearGradient id="linear-gradient-64" x1="2800.38" y1="1456.6" x2="3025.18" y2="1456.6" gradientTransform="matrix(1, 0, 0, 1, 0, 0)" xlink:href="#linear-gradient-21"/><linearGradient id="linear-gradient-65" x1="2911.16" y1="1364.34" x2="3084.72" y2="2041.53" gradientTransform="matrix(1, 0, 0, 1, 0, 0)" xlink:href="#linear-gradient-21"/><linearGradient id="linear-gradient-66" x1="2650.13" y1="1572.46" x2="2928.74" y2="1572.46" gradientTransform="translate(162.67 140.03) rotate(-6.32)" xlink:href="#linear-gradient-21"/><linearGradient id="linear-gradient-67" x1="2527.95" y1="1262.21" x2="2628.72" y2="1317.31" gradientTransform="translate(135.77 119.37) rotate(-5.2)" xlink:href="#linear-gradient-4"/><linearGradient id="linear-gradient-68" x1="2931.69" y1="1151.15" x2="3368.76" y2="1428.1" xlink:href="#linear-gradient-4"/><linearGradient id="linear-gradient-69" x1="2995.71" y1="1298.26" x2="3028.01" y2="1335.19" xlink:href="#linear-gradient-4"/><linearGradient id="linear-gradient-70" x1="2862.14" y1="1185.28" x2="3209.97" y2="1185.28" gradientTransform="matrix(1, 0, 0, 1, 0, 0)" xlink:href="#linear-gradient-2"/><linearGradient id="linear-gradient-71" x1="2920.57" y1="1210.6" x2="3036.65" y2="1210.6" xlink:href="#linear-gradient-6"/><linearGradient id="linear-gradient-72" x1="2977.28" y1="1094.15" x2="3129.57" y2="1268.31" xlink:href="#linear-gradient-4"/><linearGradient id="linear-gradient-73" x1="575.23" y1="1365.7" x2="581.95" y2="1186.76" gradientTransform="matrix(-0.97, 0.23, 0.23, 0.97, 3175.63, -411.47)" xlink:href="#linear-gradient-4"/><linearGradient id="linear-gradient-74" x1="2849.78" y1="850.91" x2="3123.63" y2="1007.7" xlink:href="#linear-gradient-3"/><linearGradient id="linear-gradient-75" x1="2911.52" y1="923.41" x2="3215.87" y2="1094.91" gradientTransform="matrix(1, 0.03, -0.03, 0.94, -53.41, -121.36)" xlink:href="#linear-gradient-3"/><linearGradient id="linear-gradient-76" x1="279.02" y1="1115.8" x2="275.61" y2="1390.63" gradientTransform="matrix(-0.99, 0.14, 0.15, 1.03, 2985.32, -301.96)" xlink:href="#linear-gradient-4"/><linearGradient id="linear-gradient-77" x1="2908.66" y1="928.47" x2="3213.02" y2="1099.98" gradientTransform="matrix(1, 0.03, -0.03, 0.94, -53.41, -121.36)" xlink:href="#linear-gradient-3"/></defs><g class="cls-3"><g id="Illustration"><g class="cls-4"><path class="cls-5" d="M2843.59,1146.21q-71.7-2.57-143.59-8.39c-.69.78-27.43-99.77,15.2-158.77,84.54-114.51,9.52-200.58-15-253.78-37.86-74.61-31.81-160.61,47.28-170.63,87.53-12.83,87.35-160,56.77-290.59-19.45-63.16,32.76-148.19,91.53-172.81,59.83-26.69,126.21,7,159.43,133.55,45.2,145.73-53.53,247.57-85.51,326.69-31.48,77.68,67.2,126.78.25,199.93-56,64.61-130,114.79-93.2,184.09C2914.18,1003.89,2913.59,1063.26,2843.59,1146.21Z" transform="translate(-303.34 -43)"/><path class="cls-6" d="M2778.73,1159.52c-.53-4.17,22.59-227.49,75.36-439.2,6.95-35.06,14.79-70.55,22.38-104.86,42.23-191,82.13-371.49-3-557.77l3.06-1.4c85.62,187.31,45.61,368.29,3.25,559.9-7.58,34.29-15.42,69.76-22.38,104.86-54.1,217.05-75.29,436.82-75.29,438.19Z" transform="translate(-303.34 -43)"/><path class="cls-6" d="M2915.05,438.7l-2.73-2c46-64.05,100.07-153.84,129.13-202.08,23.6-39.19,23.66-39.15,25.34-39.1l-.07,1.68,1,1.33c-1.41,1.38-11.1,17.46-23.36,37.82C3015.24,284.67,2961.1,374.54,2915.05,438.7Z" transform="translate(-303.34 -43)"/><path class="cls-6" d="M2920.77,356.81C2884.66,227,2796.18,193.36,2795.35,193.29l.12-1.33-1.34-1.6c.82-.69,1.85-.44,3-.08,18.67,5.77,94.91,50.8,126.85,165.62Z" transform="translate(-303.34 -43)"/><path class="cls-6" d="M2826.46,862.35l-3.36,0c1.1-134.58-102.85-248.53-147.6-291.27a47.24,47.24,0,0,1-3.5-3.48l2.69-2c.23.29,1.58,1.58,3.13,3.06C2722.89,611.66,2827.57,726.46,2826.46,862.35Z" transform="translate(-303.34 -43)"/><path class="cls-6" d="M2840.34,794.89l-3-1.44c46.26-97.28,164.35-117.07,166.31-117.07h0l-.26,1.66-1.62.44,1.63-.44.08,1.68C3002.34,679.82,2885.83,699.24,2840.34,794.89Z" transform="translate(-303.34 -43)"/><path class="cls-6" d="M2782.69,1123.48c-2-27-16.73-71.9-75.6-132.07-3.42-3.5-3.42-3.5-3.39-4.35l1.68.06,1.42-.88c.2.27,1.36,1.45,2.69,2.82,59.58,60.89,74.52,106.58,76.55,134.18Z" transform="translate(-303.34 -43)"/><path class="cls-6" d="M2792.33,1071.14l-3.31-.58c8.64-49.76,71.95-92.44,108.92-113.45,1.16-.67,1.91-1.09,2.18-1.27l1.85,2.81c-.29.19-1.1.65-2.37,1.38C2863.14,980.75,2800.73,1022.73,2792.33,1071.14Z" transform="translate(-303.34 -43)"/></g><path class="cls-7" d="M879.85,1582.48c-.21-7.27-163.38-244.77,49.74-260,373-26.65,559.56-39.91,731.94-68.2,517.88-85,988.41-10.64,1430.66-1,83.24,1.82,262.8-13,357.61,99.87,50.94,60.65,72.52,150.77,55.28,229.63-16,73.11-65.25,136.15-443.19,337.83-200.54,107-295.93,166.31-439.79,187.42-108.82,16-169.42,3.31-198.66-4.57C2287.91,2067,2216.76,1968.88,2160,1908.25c-226.29-241.76-628.84-320.71-874.21-312.88C1087.88,1601.68,883.12,1700.83,879.85,1582.48Z" transform="translate(-303.34 -43)"/><path class="cls-8" d="M2804.65,1195.42c95.76,34.56,200.08,80.74,195.25,120.87-5.27,43.86-136.29,41.73-340.92,96.08-325.92,86.56-341.29,184.32-505.18,170.45-188.67-16-185.18-147-409.1-182.85-84.22-13.5-204.91,4.43-446.3,40.29-162.71,24.17-289.9,51.65-365.71-21.7-3.77-3.64-41.87-40.51-39.75-66.21C899.37,1274.61,1281.93,1200.47,2804.65,1195.42Z" transform="translate(-303.34 -43)"/><path class="cls-9" d="M3023.45,1268.51c-.87,7.53-4.53,13.6-9.35,15.5-12,4.74-27.63,6.53-45.86,6.55-18.5,0-34.29-1.86-46.43-6.67-4.68-1.85-8.27-7.62-9.26-14.88l-32.31-235.45H3050.6Z" transform="translate(-303.34 -43)"/><ellipse class="cls-10" cx="2662.23" cy="989.5" rx="85.33" ry="13.71"/><path class="cls-11" d="M2884.36,1029.29c4.52,2.76,14.33,12,27.41,13,87,6.85,123.62-11.1,126.79-13.71.54-.44-2.7-37.6-2.18-38.06-2.48-13.52-2-28.15,4.35-42.71,18.68-43,137.77-63.6,104.75-145.64-24.18-60.09-110.49-80.56-2.78-170.52s144-286.26,23.17-307c-69.32-11.89-95.53,103.09-168.53,122.71-69.37,18.64-94.32,79.22-72.93,155.42s-19.87,90.23-71.73,128.39c-62.29,45.84-.18,116.3,27.1,146C2901.75,901.13,2924.53,1000,2884.36,1029.29Z" transform="translate(-303.34 -43)"/><g class="cls-12"><path class="cls-13" d="M2970.45,1035.72c-32.65-258.26,60.19-531.1,242.3-712l2.19,2.19C3033.49,506.16,2941,778,2973.52,1035.33Z" transform="translate(-303.34 -43)"/><path class="cls-13" d="M2964.85,894c-32.67-97.13-141.22-144.8-142.31-145.27l1.22-2.84c1.11.47,110.92,48.7,144,147.12Z" transform="translate(-303.34 -43)"/><path class="cls-13" d="M2968.81,987.58l-3-.53c17.55-102.12,192-174.43,193.73-175.15l1.17,2.87C3158.92,815.48,2986.07,887.15,2968.81,987.58Z" transform="translate(-303.34 -43)"/><path class="cls-13" d="M3017,642.49l-3.09-.26c7-82.09-76.84-176.58-77.69-177.53l2.31-2.07C2939.36,463.59,3024.07,559.07,3017,642.49Z" transform="translate(-303.34 -43)"/><path class="cls-13" d="M3086.39,492.24l-2.38-2c60-71.94,185.84-85.68,187.11-85.81l.32,3.08C3270.18,407.65,3145.58,421.27,3086.39,492.24Z" transform="translate(-303.34 -43)"/></g><path class="cls-14" d="M2181.42,801.3,1690,803.78c-13.27.06-24.38-10.25-24.79-23l-11.43-352.91c-.41-12.82,10-22.95,23.34-22.63L2169.44,417a23.84,23.84,0,0,1,23,22.84L2203,778.92A21.59,21.59,0,0,1,2181.42,801.3Z" transform="translate(-303.34 -43)"/><path class="cls-15" d="M2190.21,798.45l-491.43,2.49c-13.26.06-24.38-10.26-24.79-23.05L1662.56,425c-.41-12.82,10-23,23.34-22.63l492.32,11.79a23.84,23.84,0,0,1,23,22.84l10.56,339.1A21.58,21.58,0,0,1,2190.21,798.45Z" transform="translate(-303.34 -43)"/><polygon class="cls-16" points="1908.76 627.19 1366.99 624.67 1367.32 634.9 1909.06 637.01 1908.76 627.19"/><polygon class="cls-16" points="1684.49 364.1 1693 633.31 1703.13 633.35 1694.62 364.35 1684.49 364.1"/><path class="cls-17" d="M1930.21,729.34l-191.65,0a1.67,1.67,0,0,1-1.68-1.57l-.55-17.23a1.53,1.53,0,0,1,1.57-1.56l191.67.31a1.64,1.64,0,0,1,1.63,1.55l.54,17A1.5,1.5,0,0,1,1930.21,729.34Z" transform="translate(-303.34 -43)"/><path class="cls-14" d="M1982.51,767.37,1739.8,768a1.65,1.65,0,0,1-1.67-1.56l-.55-17.22a1.53,1.53,0,0,1,1.57-1.57l242.73-.29a1.61,1.61,0,0,1,1.61,1.54l.54,16.91A1.5,1.5,0,0,1,1982.51,767.37Z" transform="translate(-303.34 -43)"/><polygon class="cls-14" points="1871.98 460.74 1725.19 458.21 1723.38 400.82 1870.21 403.98 1871.98 460.74"/><polygon class="cls-14" points="1876.24 597.31 1729.55 596.3 1725.96 482.65 1872.74 484.9 1876.24 597.31"/><path class="cls-16" d="M1826.1,500.75c23,.39,42.25,18.9,43,41.25a38.37,38.37,0,0,1-3.57,17.46l49.24,22.76a88.08,88.08,0,0,0,7.83-39.47c-1.62-51.07-45.48-93.52-98.14-94.62H1824l1.68,52.63Z" transform="translate(-303.34 -43)"/><path class="cls-18" d="M1865.49,559.46c-6.29,13.53-20.24,22.81-36.79,22.63-23.07-.26-42.49-18.76-43.21-41.25s17.31-40.25,40.2-40.08L1824,448.13c-52.88-.88-94.78,40.28-93.12,91.94s46.47,94.23,99.5,94.6c38.07.28,70.14-21.24,84.34-52.45Z" transform="translate(-303.34 -43)"/><path class="cls-14" d="M2860.69,1252.45c.66,22.61-16.34,41.9-37.86,42.87L943,1387.82c-54.07,3.35-78.56-25.57-79.45-51.8L828.69,311.67l6.71-94.74c-.9-26.39,11.09-76.07,40-74.88l1915.84,78.57c21.63.89,39.81,20.2,40.48,42.92Z" transform="translate(-303.34 -43)"/><path class="cls-19" d="M2834.81,370.13l-3.12-106.59c-.67-22.72-18.85-42-16.39-50.88L901,135.93c-67.22,2.75-78,41.75-77.11,68.14l4.72,107.6,36-6.24Z" transform="translate(-303.34 -43)"/><path class="cls-16" d="M2917.33,1256.47c.68,22.85-16.49,42.34-38.22,43.33L954.52,1386.94c-29,1.31-53.58-19.31-54.48-45.84L864.6,305.43l10.34-121.11c-.91-26.67,10.9-41,40.08-39.82l1931.91,69.11c21.84.9,40.21,20.42,40.88,43.38Z" transform="translate(-303.34 -43)"/><path class="cls-20" d="M2891,364.73,2887.81,257c-.67-23-19-42.48-40.88-43.38L911.8,134c-29.18-1.2-52.4,19.64-51.48,46.31l4.28,125.17Z" transform="translate(-303.34 -43)"/><path class="cls-21" d="M993.13,225.63c.45,13.2-10.86,23.51-25.28,23s-26.55-11.61-27-24.86,10.92-23.56,25.37-23S992.68,212.43,993.13,225.63Z" transform="translate(-303.34 -43)"/><path class="cls-21" d="M1105.33,229.56c.44,13.1-10.69,23.34-24.89,22.86s-26.13-11.51-26.58-24.66,10.75-23.38,25-22.86S1104.89,216.47,1105.33,229.56Z" transform="translate(-303.34 -43)"/><path class="cls-21" d="M1215.81,233.44c.43,13-10.53,23.15-24.51,22.68s-25.73-11.42-26.17-24.46,10.58-23.2,24.59-22.69S1215.37,220.44,1215.81,233.44Z" transform="translate(-303.34 -43)"/><path class="cls-15" d="M1691.43,805.07c-14.86,0-27.3-11.66-27.77-26.05l-11.42-352.91a24.47,24.47,0,0,1,7.11-18.22,26.32,26.32,0,0,1,19.39-7.61l492.32,11.79a27,27,0,0,1,26,25.84L2207.66,777A24.69,24.69,0,0,1,2183,802.59l-491.42,2.48Zm-13.37-398.6a19.85,19.85,0,0,0-14.3,5.79,18.3,18.3,0,0,0-5.33,13.65l11.42,352.91c.36,11.08,10,20,21.58,20h.11L2183,796.39a18.49,18.49,0,0,0,18.5-19.18l-10.56-339.1a20.75,20.75,0,0,0-20-19.84L1678.6,406.48Z" transform="translate(-303.34 -43)"/><path class="cls-14" d="M2748.57,798.82,2299,801.09a22.76,22.76,0,0,1-22.64-22l-10.44-337.23a20.69,20.69,0,0,1,21.31-21.66L2737.58,431c11.3.27,20.74,10.05,21.09,21.84l9.68,324.6C2768.7,789.18,2759.85,798.76,2748.57,798.82Z" transform="translate(-303.34 -43)"/><path class="cls-15" d="M2756.58,795.59,2307,797.86a22.76,22.76,0,0,1-22.65-22L2273.93,438.6a20.69,20.69,0,0,1,21.31-21.66l450.35,10.79c11.3.27,20.73,10,21.08,21.84l9.69,324.61C2776.71,786,2767.86,795.54,2756.58,795.59Z" transform="translate(-303.34 -43)"/><polygon class="cls-16" points="1977.65 627.31 1977.95 637.08 2474.48 639.02 2474.2 629.62 1977.65 627.31"/><path class="cls-20" d="M2464.84,729.43l-124.18,0a1.55,1.55,0,0,1-1.53-1.5l-.51-16.47a1.44,1.44,0,0,1,1.44-1.5l124.19.21a1.52,1.52,0,0,1,1.5,1.49l.5,16.3A1.42,1.42,0,0,1,2464.84,729.43Z" transform="translate(-303.34 -43)"/><path class="cls-14" d="M2615.59,765.68l-273.79.73a1.55,1.55,0,0,1-1.53-1.49l-.51-16.47a1.44,1.44,0,0,1,1.44-1.5l273.82-.32a1.5,1.5,0,0,1,1.46,1.47l.49,16.11A1.39,1.39,0,0,1,2615.59,765.68Z" transform="translate(-303.34 -43)"/><path class="cls-22" d="M2347,621.23a4.59,4.59,0,0,1-2.31-.61,4.65,4.65,0,0,1-1.72-6.35c32-55.88,68.51-86.1,108.65-89.84,25.38-2.36,45,6.78,63.87,15.62,17.05,8,34.69,16.21,57.52,16.82,42.06,1,84.84-24.87,127.07-77.23a4.65,4.65,0,1,1,7.24,5.84c-44.14,54.73-89.33,81.93-134.55,80.68-24.78-.65-43.3-9.32-61.22-17.69-18.6-8.7-36.15-16.9-59.07-14.78-36.94,3.44-71.08,32.1-101.44,85.2A4.65,4.65,0,0,1,2347,621.23Z" transform="translate(-303.34 -43)"/><path class="cls-16" d="M2596.83,561.83c.31,10.25-7.5,18.47-17.46,18.35s-18.33-8.55-18.64-18.83,7.54-18.5,17.51-18.35S2596.52,551.57,2596.83,561.83Z" transform="translate(-303.34 -43)"/><path class="cls-23" d="M2579.58,582.54h-.24c-11.21-.13-20.62-9.61-21-21.12a20.25,20.25,0,0,1,5.76-15,19.24,19.24,0,0,1,13.84-5.77h.3c11.18.16,20.56,9.64,20.9,21.12a20.23,20.23,0,0,1-5.74,15A19.24,19.24,0,0,1,2579.58,582.54Zm-1.6-37.19a14.6,14.6,0,0,0-10.49,4.37,15.62,15.62,0,0,0-4.4,11.56c.27,9,7.59,16.44,16.31,16.54a14.36,14.36,0,0,0,10.68-4.38,15.56,15.56,0,0,0,4.39-11.54c-.27-9-7.57-16.42-16.26-16.54Z" transform="translate(-303.34 -43)"/><polygon class="cls-14" points="2190.35 438.02 2031.68 434.94 2030.83 407.43 2189.53 410.83 2190.35 438.02"/><polygon class="cls-17" points="2365.35 561.24 2302.88 560.62 2302.26 540.03 2364.74 540.76 2365.35 561.24"/><path class="cls-14" d="M1572.61,1262.73,1034,1283.26c-14.57.56-26.77-9.85-27.22-23.25L994.2,890.58c-.46-13.42,11-24.41,25.63-24.54l539.68-4.92c13.5-.12,24.76,10.21,25.18,23.08l11.54,354.33C1596.65,1251.38,1586.09,1262.21,1572.61,1262.73Z" transform="translate(-303.34 -43)"/><path class="cls-15" d="M1580.62,1259.5,1042,1280c-14.57.56-26.77-9.85-27.23-23.25L1002.2,887.35c-.45-13.42,11-24.41,25.63-24.54l539.69-4.92c13.49-.12,24.76,10.21,25.17,23.09l11.55,354.32C1604.66,1248.15,1594.09,1259,1580.62,1259.5Z" transform="translate(-303.34 -43)"/><polygon class="cls-16" points="1300.79 1075.87 707.05 1092.5 707.41 1103.2 1301.13 1086.13 1300.79 1075.87"/><polygon class="cls-14" points="1246.99 971.5 769.76 981.22 765.75 862.8 1243.25 857.01 1246.99 971.5"/><polygon class="cls-14" points="1249.03 1034 771.94 1045.88 770.53 1004.1 1247.71 993.62 1249.03 1034"/><path class="cls-24" d="M1230.79,1192.83l-151.34,4.92a1.73,1.73,0,0,1-1.84-1.58l-.61-18a1.73,1.73,0,0,1,1.73-1.7l151.35-4.69a1.7,1.7,0,0,1,1.8,1.57l.6,17.84A1.69,1.69,0,0,1,1230.79,1192.83Z" transform="translate(-303.34 -43)"/><path class="cls-14" d="M1372.63,1228l-291.81,10.31a1.72,1.72,0,0,1-1.84-1.58l-.61-18a1.72,1.72,0,0,1,1.73-1.7l291.84-9.88a1.67,1.67,0,0,1,1.77,1.55l.58,17.67A1.66,1.66,0,0,1,1372.63,1228Z" transform="translate(-303.34 -43)"/><path class="cls-14" d="M1580.56,781c.42,12.88-10.16,23.37-23.66,23.44l-539.83,2.73c-14.6.07-26.83-10.75-27.29-24.18L977.22,412.75c-.46-13.45,11-24.07,25.68-23.72l540.86,13c13.53.33,24.82,11.05,25.24,23.94Z" transform="translate(-303.34 -43)"/><path class="cls-15" d="M1589.35,778.17c.42,12.88-10.17,23.37-23.67,23.44l-539.83,2.73c-14.6.07-26.83-10.75-27.28-24.18L986,409.91c-.46-13.45,11-24.07,25.68-23.72l540.87,13c13.52.33,24.81,11,25.23,23.94Z" transform="translate(-303.34 -43)"/><polygon class="cls-16" points="1285.95 624.55 690.93 621.78 691.3 632.51 1286.29 634.83 1285.95 624.55"/><polygon class="cls-16" points="967.59 346.8 977.02 630.37 988.26 630.41 978.83 347.07 967.59 346.8"/><polygon class="cls-14" points="922.73 517.58 754.02 515.55 749.44 379.91 918.25 383.54 922.73 517.58"/><polygon class="cls-14" points="925.17 590.76 756.52 589.6 754.91 541.75 923.59 543.48 925.17 590.76"/><path class="cls-25" d="M1146.69,729.21l-83.07,0a1.78,1.78,0,0,1-1.84-1.64l-.61-18.08a1.64,1.64,0,0,1,1.73-1.64L1146,708a1.78,1.78,0,0,1,1.83,1.64l.6,18A1.64,1.64,0,0,1,1146.69,729.21Z" transform="translate(-303.34 -43)"/><path class="cls-14" d="M1268.87,769.22l-203.88.59a1.79,1.79,0,0,1-1.84-1.64l-.61-18.07a1.66,1.66,0,0,1,1.73-1.65l203.91-.1a1.72,1.72,0,0,1,1.76,1.6l.59,17.66A1.61,1.61,0,0,1,1268.87,769.22Z" transform="translate(-303.34 -43)"/><polygon class="cls-16" points="1081.09 588.5 1034.12 588.16 1027.42 385.88 1074.43 386.89 1081.09 588.5"/><polygon class="cls-16" points="1159.1 589.05 1112.65 588.72 1106.02 387.57 1152.51 388.57 1159.1 589.05"/><polygon class="cls-16" points="1236.24 589.6 1190.31 589.27 1183.75 389.24 1229.72 390.22 1236.24 589.6"/><g class="cls-26"><polygon class="cls-27" points="1081.09 588.5 1034.12 588.16 1030.64 483.13 1077.63 483.82 1081.09 588.5"/><polygon class="cls-28" points="1159.1 589.05 1112.65 588.72 1107.56 434.26 1154.04 435.11 1159.1 589.05"/><polygon class="cls-29" points="1236.24 589.6 1190.31 589.27 1185.85 453.36 1231.81 454.13 1236.24 589.6"/></g><path class="cls-14" d="M2761.08,1217.42l-448.67,17.1a21.84,21.84,0,0,1-22.6-21.26L2279.39,876.7a21.48,21.48,0,0,1,21.27-22.33l449.45-4.1c11.28-.1,20.69,9.36,21,21.12l9.66,324C2781.17,1207.12,2772.34,1217,2761.08,1217.42Z" transform="translate(-303.34 -43)"/><path class="cls-15" d="M2769.08,1214.19l-448.66,17.1a21.82,21.82,0,0,1-22.6-21.26L2287.4,873.47a21.48,21.48,0,0,1,21.27-22.33l449.44-4.1c11.28-.1,20.7,9.36,21,21.12l9.66,324C2789.17,1203.89,2780.34,1213.76,2769.08,1214.19Z" transform="translate(-303.34 -43)"/><polygon class="cls-16" points="1991 1056.52 1991.3 1066.27 2486.85 1052.02 2486.57 1042.64 1991 1056.52"/><path class="cls-20" d="M2438.29,1153.61l-84.47,2.74a1.48,1.48,0,0,1-1.52-1.45l-.51-16.43a1.5,1.5,0,0,1,1.43-1.55l84.48-2.61a1.47,1.47,0,0,1,1.51,1.44l.5,16.32A1.49,1.49,0,0,1,2438.29,1153.61Z" transform="translate(-303.34 -43)"/><path class="cls-14" d="M2527.69,1187.18l-172.73,6.1a1.46,1.46,0,0,1-1.52-1.44l-.51-16.43a1.5,1.5,0,0,1,1.43-1.55L2527.1,1168a1.45,1.45,0,0,1,1.49,1.42l.49,16.22A1.46,1.46,0,0,1,2527.69,1187.18Z" transform="translate(-303.34 -43)"/><polygon class="cls-16" points="2063.24 1019.95 2037.12 1020.61 2031.91 851.59 2058.05 851.26 2063.24 1019.95"/><polygon class="cls-16" points="2101.93 1018.97 2075.97 1019.63 2070.78 851.11 2096.77 850.78 2101.93 1018.97"/><polygon class="cls-16" points="2140.39 1017.99 2114.58 1018.64 2109.43 850.63 2135.26 850.3 2140.39 1017.99"/><polygon class="cls-16" points="2178.63 1017.02 2152.97 1017.67 2147.84 850.15 2173.52 849.83 2178.63 1017.02"/><polygon class="cls-16" points="2216.63 1016.06 2191.13 1016.7 2186.03 849.67 2211.56 849.35 2216.63 1016.06"/><polygon class="cls-16" points="2254.42 1015.1 2229.06 1015.74 2223.99 849.2 2249.38 848.88 2254.42 1015.1"/><polygon class="cls-16" points="2291.99 1014.14 2266.77 1014.78 2261.74 848.73 2286.97 848.41 2291.99 1014.14"/><polygon class="cls-16" points="2329.33 1013.2 2304.27 1013.83 2299.26 848.26 2324.35 847.95 2329.33 1013.2"/><polygon class="cls-16" points="2366.46 1012.25 2341.54 1012.89 2336.57 847.8 2361.51 847.49 2366.46 1012.25"/><polygon class="cls-16" points="2403.38 1011.32 2378.6 1011.95 2373.65 847.34 2398.45 847.03 2403.38 1011.32"/><polygon class="cls-16" points="2440.08 1010.39 2415.45 1011.01 2410.53 846.88 2435.18 846.57 2440.08 1010.39"/><g class="cls-30"><polygon class="cls-20" points="2063.24 1019.95 2037.12 1020.61 2034.42 932.85 2060.55 932.36 2063.24 1019.95"/><polygon class="cls-20" points="2101.93 1018.97 2075.97 1019.63 2071.99 890.22 2097.97 889.82 2101.93 1018.97"/><polygon class="cls-20" points="2140.39 1017.99 2114.58 1018.64 2111.08 904.48 2136.9 904.05 2140.39 1017.99"/><polygon class="cls-20" points="2178.63 1017.02 2152.97 1017.67 2149.45 902.58 2175.12 902.15 2178.63 1017.02"/><polygon class="cls-20" points="2216.63 1016.06 2191.13 1016.7 2187.21 888.44 2212.74 888.05 2216.63 1016.06"/><polygon class="cls-20" points="2254.42 1015.1 2229.06 1015.74 2225.62 902.58 2250.99 902.16 2254.42 1015.1"/><polygon class="cls-20" points="2291.99 1014.14 2266.77 1014.78 2263.07 892.55 2288.29 892.15 2291.99 1014.14"/><polygon class="cls-20" points="2329.33 1013.2 2304.27 1013.83 2300.95 904.14 2326.03 903.72 2329.33 1013.2"/><polygon class="cls-20" points="2366.46 1012.25 2341.54 1012.89 2338.16 900.71 2363.09 900.3 2366.46 1012.25"/><polygon class="cls-20" points="2403.38 1011.32 2378.6 1011.95 2374.8 885.54 2399.59 885.16 2403.38 1011.32"/><polygon class="cls-20" points="2440.08 1010.39 2415.45 1011.01 2411.89 892.2 2436.53 891.81 2440.08 1010.39"/></g><path class="cls-14" d="M2195.84,1239l-490.4,18.69c-13.24.51-24.33-9.44-24.75-22.21l-11.4-352.16c-.41-12.79,10-23.26,23.29-23.38l491.3-4.48a22.86,22.86,0,0,1,23,22.06l10.54,338.41A22.43,22.43,0,0,1,2195.84,1239Z" transform="translate(-303.34 -43)"/><path class="cls-15" d="M2203.84,1235.74l-490.4,18.69c-13.24.51-24.33-9.43-24.74-22.2l-11.4-352.17c-.42-12.79,10-23.26,23.29-23.38l491.29-4.48a22.88,22.88,0,0,1,23,22.06l10.53,338.41A22.43,22.43,0,0,1,2203.84,1235.74Z" transform="translate(-303.34 -43)"/><polygon class="cls-16" points="1922.31 1058.54 1381.65 1073.68 1381.98 1083.88 1922.61 1068.34 1922.31 1058.54"/><path class="cls-17" d="M1915.74,1170.58,1753,1175.87a1.59,1.59,0,0,1-1.67-1.51l-.56-17.19a1.6,1.6,0,0,1,1.57-1.62l162.81-5a1.56,1.56,0,0,1,1.63,1.49l.54,17A1.56,1.56,0,0,1,1915.74,1170.58Z" transform="translate(-303.34 -43)"/><path class="cls-14" d="M2047.45,1204.14l-293.26,10.36a1.59,1.59,0,0,1-1.67-1.51l-.55-17.18a1.59,1.59,0,0,1,1.57-1.62l293.28-9.93a1.54,1.54,0,0,1,1.6,1.48l.53,16.82A1.54,1.54,0,0,1,2047.45,1204.14Z" transform="translate(-303.34 -43)"/><path class="cls-31" d="M1733.13,1018a4.55,4.55,0,0,1-2-.46,4.65,4.65,0,0,1-2.16-6.21c17.11-35.37,37-54.63,59-57.24,13.58-1.6,23.83,3.44,33.73,8.32,10.5,5.18,20.42,10.08,35,8.28,11.1-1.36,16.42-5.56,23.15-10.87,6.89-5.44,14.69-11.6,29.78-15.68,16.44-4.44,26.66-2.37,38.5,0,8.67,1.77,18.5,3.78,33,3.47,20.46-.42,31.37-4.95,45.18-10.69,10.11-4.19,21.56-9,38.75-12.83,29.89-6.76,62.12-7.23,95.8-1.44a4.65,4.65,0,0,1-1.58,9.17c-32.47-5.6-63.48-5.14-92.17,1.34-16.41,3.71-27.47,8.3-37.23,12.35-14.14,5.87-26.35,10.93-48.56,11.4-15.56.31-25.9-1.79-35-3.66-11.12-2.26-19.9-4-34.22-.17-13.25,3.58-20,8.88-26.45,14-7.24,5.72-14.09,11.12-27.77,12.8-17.36,2.12-29.53-3.87-40.26-9.17-9.48-4.68-17.68-8.7-28.52-7.43-18.66,2.22-36.06,19.73-51.7,52.06A4.66,4.66,0,0,1,1733.13,1018Z" transform="translate(-303.34 -43)"/><polygon class="cls-14" points="1862.99 1018.2 1696.12 1022.34 1693.92 952.67 1860.84 949.39 1862.99 1018.2"/><path class="cls-14" d="M1832.09,913.52l-87.56,1.17a1.64,1.64,0,0,1-1.67-1.55l-.56-17.21a1.58,1.58,0,0,1,1.58-1.59l87.57-1a1.62,1.62,0,0,1,1.65,1.54l.54,17.1A1.54,1.54,0,0,1,1832.09,913.52Z" transform="translate(-303.34 -43)"/><path class="cls-7" d="M972.7,1751.07c-86.33,3.66-182.34,11.27-295.84,50.23-25.74,8.84-265.52,97.26-258,148.06,5.53,37.54,131.8,21,329.65,75.5,208.66,57.47,246.93,87.19,369.34,91.82,140.53,5.3,148-55.7,329.33-72.57,102.65-9.54,136.74,6.6,234.95,18.51,39.82,4.83,61.58,6,125.08,9.4,289.26,15.35,341.2,29.88,351.29,7.12,17-38.33-104.18-138.4-217.33-196.9-98.37-50.86-182.25-65.9-343.28-94.89C1321.15,1737.53,1116,1745,972.7,1751.07Z" transform="translate(-303.34 -43)"/><path class="cls-8" d="M1616.94,1844.14c-732.44-185.11-774.08-147-786-127.62-21.68,35.31,2.52,99.56,47.14,158-39.29-8.22-77.59-8.87-109.64,3.5-66.32,25.62-151.47,5-153.42,24-2.17,21.27,93.16,57.54,146.75,58.7,116.69,2.53,245.11,36.35,310.5,47,141.12,36.35,300.48-8.17,372.45-21.76,128.8-24.3,180.17-56.19,313.69-56.6,107.09-.33,185.88,19.27,187.4,12.35C1948.77,1928.29,1654,1853.51,1616.94,1844.14Z" transform="translate(-303.34 -43)"/><g class="cls-32"><path class="cls-33" d="M738.06,1500.56H891.8s29-78.87-8.73-134.52c-76.87-113.56,27.95-173,68.14-204.41,60.59-47.43,87.3-108.7,14.42-148.45-82.45-45-9.77-164.69,99.14-227.17,106.57-61.15,59.37-285.88-183.45-174.71C736.32,677.69,759,831.43,752,911.8s-126.51,87-85.61,185.19c34.94,83.86,101.33,145,50.67,202.66S661.19,1421.94,738.06,1500.56Z" transform="translate(-303.34 -43)"/><path class="cls-6" d="M804.54,1514.84c-.36-2-36-200.5-12-408,14.1-122,45.75-223.16,94.06-300.76,60.49-97.14,147.37-157.35,258.23-179l.64,3.3c-249,48.54-327.54,286.08-349.6,476.8-23.93,207,11.64,405,12,407Z" transform="translate(-303.34 -43)"/><path class="cls-6" d="M863.06,847.8c-13.43-107.84,27.58-260.74,28-262.27l3.25.88c-.42,1.52-41.25,153.8-27.91,261Z" transform="translate(-303.34 -43)"/><path class="cls-6" d="M905.22,784.23l-1.78-2.85c110.61-68.92,214.11-35.75,215.14-35.4l-1.06,3.19C1116.51,748.83,1014.44,716.18,905.22,784.23Z" transform="translate(-303.34 -43)"/><path class="cls-6" d="M787.58,1243.36l-3.27-.78C821,1088.1,1031.86,1049.3,1033.9,1049.3l.1,3.36C1031.94,1052.85,823.81,1090.57,787.58,1243.36Z" transform="translate(-303.34 -43)"/><path class="cls-6" d="M786.46,1178.52c-20.14-96.89-125.53-163.74-126.59-164.4l1.78-2.85c1.07.67,107.67,68.29,128.11,166.56Z" transform="translate(-303.34 -43)"/><path class="cls-6" d="M802.94,1483l-3.35-.27c4.82-61.35,88.71-107.88,92.28-109.83l1.61,3C892.63,1376.28,807.62,1423.43,802.94,1483Z" transform="translate(-303.34 -43)"/><path class="cls-6" d="M793.77,1436.16c-7.72-45.25-77.3-96.53-100.16-113.38-4.56-3.36-6.43-4.74-7-5.42l2.51-2.23c.43.47,3.25,2.55,6.51,4.95,23.13,17.05,93.53,68.93,101.48,115.52Z" transform="translate(-303.34 -43)"/></g><path class="cls-34" d="M1074.45,1256.43s-103.27-178.82-242.93,125.28c-108.76,236.8-38.47,500.24,213.13,572.53s644.56-73.71,521.21-176.59C1304.22,1559.4,1105.64,1366,1074.45,1256.43Z" transform="translate(-303.34 -43)"/><g class="cls-35"><path class="cls-36" d="M954.55,1417.58c-6.88,21.81-18.7,82.91-15.6,153.87,2.77,63.3-3,96.39,97.73,142.43,34.52,15.78,58.39,65.86,111.24,95.65,24,13.51,114.23,62.37,230.81,42.63,77.13-13.07,134.56-50.9,173.23-86.15-254.73-213.47-446.87-402-477.51-509.58,0,0-37.73-65.28-98.41-49.83,14.72,16.42,30.91,41.32,35.69,74.79C1018.49,1328.76,977.12,1346,954.55,1417.58Z" transform="translate(-303.34 -43)"/></g><g class="cls-37"><path class="cls-38" d="M1447.34,1882.31c-119,65.7-317.71,105.8-465.76-4.16-137.09-101.82-149.3-272.34-153.87-324.37-8-91,9.78-170.14,35.4-234-10.3,18-20.84,38.53-31.59,62-108.76,236.8-38.47,500.24,213.13,572.53,247.65,71.15,632.27-69.18,526.64-171.72A467.86,467.86,0,0,1,1447.34,1882.31Z" transform="translate(-303.34 -43)"/></g><path class="cls-39" d="M1259.89,1902.18c-3.52,0-7.07,0-10.65-.11-92-2.06-221.12-32.61-314-166.49-78.43-113.09-67.94-240.69-45.33-327.83,24.47-94.28,68-162.8,68.47-163.49a2,2,0,1,1,3.36,2.17c-.43.67-43.69,68.75-68,162.43-22.38,86.3-32.77,212.64,44.76,324.44,91.87,132.45,219.63,162.7,310.64,164.76,98.9,2.22,176.85-27.31,177.63-27.61a2,2,0,1,1,1.43,3.73C1427.5,1874.47,1354.34,1902.18,1259.89,1902.18Z" transform="translate(-303.34 -43)"/><path class="cls-40" d="M1753.38,1884.91c-6.56-7.06-18.31-37.45,3.12-43.7s33.53-14.23,63.2-38,37.3-3.37-4.61,35.27S1762.7,1894.94,1753.38,1884.91Z" transform="translate(-303.34 -43)"/><path class="cls-41" d="M1725.3,1840.53l17.65,15.41a11.06,11.06,0,0,0,13.19,1,7.19,7.19,0,0,0,.83-11.53l-25.8-22.08Z" transform="translate(-303.34 -43)"/><path class="cls-42" d="M1196.58,1692.11c-31.19,27.33,33.92,116.93,137.92,87.89,126-35.2,286.33-19.38,394.38,68.59,6.27-5.57,21.79-14.32,14.69-21.5-97.61-98.71-188-155.37-262.9-170.57C1367.46,1633.53,1285.39,1614.31,1196.58,1692.11Z" transform="translate(-303.34 -43)"/><g class="cls-43"><path class="cls-44" d="M1562.23,1729.64c18.28,10.64,22.18-11,31.61-25.19-40.48-24.86-78.51-40.9-113.17-47.93-113.21-23-195.28-42.21-284.09,35.59-31.19,27.33,33.92,116.93,137.92,87.89a484.48,484.48,0,0,1,119.72-17.2C1487.54,1741.85,1514.8,1693.77,1562.23,1729.64Z" transform="translate(-303.34 -43)"/></g><path class="cls-45" d="M1178.17,1785.45l-6.4,2.45s-41.41-39.1-48.8-49.06c-9-12.16,92.41-43.16,125.34-83.72,34.6-42.61,7.26,50.6,7.26,50.6Z" transform="translate(-303.34 -43)"/><path class="cls-46" d="M1140.61,1401.84s36.77,5,77.08,76.52c30.31,53.75,96.12,98.28,96.12,98.28l6.76,42.29-54.62,9.59-19.54-12.86-53.29-113.4Z" transform="translate(-303.34 -43)"/><path class="cls-47" d="M1069.33,1397.28s-90.63,11.18-92.57,115.46c-1.8,96.23,32.92,133.51,118.12,213.76,8.56,8.06,22.46,8.07,23.48,9.23q8.31,9.36,16.82,19.55c76.25-73.18,162.22-98,162.22-98s-79.51-164.49-114.45-219C1146.93,1382.09,1092.6,1391.69,1069.33,1397.28Z" transform="translate(-303.34 -43)"/><g class="cls-48"><path class="cls-49" d="M1219.79,1640.2c-38.25,20.47-92.47,18.16-112.41-7.17-15-19.08-17.45-26.19-35.73-56.14-14.7-24.1-21.86-28-54-48.26a161.59,161.59,0,0,1-39.38-35.35,160.76,160.76,0,0,0-1.52,19.46c-1.8,96.23,32.92,133.51,118.12,213.76,8.56,8.06,22.46,8.07,23.49,9.23q8.3,9.36,16.81,19.55c76.25-73.18,162.22-98,162.22-98s-13.2-25.87-30.67-62.25C1254.05,1616.31,1244.33,1627.07,1219.79,1640.2Z" transform="translate(-303.34 -43)"/></g><path class="cls-50" d="M1157.31,1643.27s17.17.79,29.37-4.13,11.19-6,25.23-7.82c13.65-1.73,40.53-9.83,25.31-23.68-16.94-15.4-46-11.08-54.32-.85-8,9.86-22,16.12-22,16.12Z" transform="translate(-303.34 -43)"/><path class="cls-51" d="M1004.12,1449.26s-50.34,5.86-21,167.94c15.24,84.06,90.53,72.23,181.46,37.49,6.15-12.87-1.77-40.16-1.77-40.16s-113,46.57-115.88-21.38C1043.68,1517,1033.48,1441.21,1004.12,1449.26Z" transform="translate(-303.34 -43)"/><path class="cls-52" d="M1090.42,1431.94c-21.61,0-43.54-16-44.59-16.76a1,1,0,0,1-.21-1.39,1,1,0,0,1,1.4-.22c.28.22,29,21.12,52.19,15.34,6.39-1.6,10.77-4.72,13-9.27,4.26-8.69-.57-19.9-.62-20a1,1,0,0,1,1.83-.8c.22.49,5.26,12.15.59,21.68-2.5,5.12-7.32,8.6-14.31,10.35A38.29,38.29,0,0,1,1090.42,1431.94Z" transform="translate(-303.34 -43)"/><path class="cls-53" d="M1122.44,1732.58a1,1,0,0,1-.67-1.74c.82-.74,82-73.39,155.27-91.31a1,1,0,0,1,1.21.74,1,1,0,0,1-.74,1.21c-72.8,17.8-153.59,90.11-154.4,90.84A1,1,0,0,1,1122.44,1732.58Z" transform="translate(-303.34 -43)"/><path class="cls-54" d="M1045.23,1334.25s12.85,52,10.28,62.62,12.64,22.2,39.31,23.38-2.87-53.41-2.87-53.41Z" transform="translate(-303.34 -43)"/><path class="cls-55" d="M1135.91,1283.65c16.61-27.44-4.5-66.94-39-53.25-23.53,9.34-38.45,2.74-54,8.48-27.73,10.25-24.73,30-18.33,50,5.58,39.78,5.36,55.46,47.91,78.72C1088.71,1311.3,1115.65,1317.13,1135.91,1283.65Z" transform="translate(-303.34 -43)"/><path class="cls-56" d="M1050.39,1353.38s17.12,28.33,51.44,26.23,24.55-81,15.92-85.44c-10-5.2-24,1.47-46.83-2.15-9.61-1.53-18.47-12.75-22.56.13-4.66,14.65-1.21,36.83-1.21,36.83s-10.57-9.16-15.93.57C1026.89,1337.41,1034,1347.48,1050.39,1353.38Z" transform="translate(-303.34 -43)"/><path class="cls-57" d="M1047.88,1275.26s-1.64,47,10,61.61c5.3,9.14-1.58,9.35-7.38,2.6s-12.06-28.32-12.06-28.32Z" transform="translate(-303.34 -43)"/><path class="cls-58" d="M1054.94,1240h-.22a.94.94,0,0,1-.11-1.87h.07c1.55-.09,31.49-2.1,38-14.56a.94.94,0,1,1,1.67.87C1087.43,1237.69,1058.05,1239.84,1054.94,1240Z" transform="translate(-303.34 -43)"/><path class="cls-59" d="M1169.38,1665.05a2.19,2.19,0,0,0-1.8,1.5c0,.12.29,4.22.28,4.35a2.06,2.06,0,0,0,1.42,2.13l77.06,25,144-56.39-68.42,5.23Z" transform="translate(-303.34 -43)"/><path class="cls-60" d="M1169.34,1664.49a2.06,2.06,0,0,0-.34,4l77.06,25,144-56.39-68.43,5.23Z" transform="translate(-303.34 -43)"/><path class="cls-61" d="M1242.65,1692.4l11.48-150.23a5.2,5.2,0,0,1,4.39-4.74l172.46-27a5.22,5.22,0,0,1,6,5.38l-6.48,140a5.21,5.21,0,0,1-4.25,4.88l-179.16,33.17Z" transform="translate(-303.34 -43)"/><path class="cls-59" d="M1246.34,1698.06l11.84-153.54a5.22,5.22,0,0,1,4.39-4.74l172.46-27a5.2,5.2,0,0,1,6,5.38l-6.48,140a5.21,5.21,0,0,1-4.22,4.88Z" transform="translate(-303.34 -43)"/><path class="cls-62" d="M1246.34,1698.06l184-35a5.21,5.21,0,0,0,4.22-4.88l2-42.23c-54.81,31.13-123.5,35.08-187.52,47.57Z" transform="translate(-303.34 -43)"/><path class="cls-63" d="M1558,1666.59c-2.52-8.73-8.08-18.38,11.76-25.42,14.41-5.12,39.43-6.76,62.17-7.93,31.87-1.63,39.2,17.44-7.37,29.57C1594,1670.75,1561.55,1679,1558,1666.59Z" transform="translate(-303.34 -43)"/><path class="cls-64" d="M1582.81,1653.22c.3,4.89-2.81,8.73-6.88,9.31-9.43,1.34-7.66-3.51-8-8.4s-4.11-8.28,6.88-9.3C1578.93,1644.45,1582.51,1648.33,1582.81,1653.22Z" transform="translate(-303.34 -43)"/><path class="cls-65" d="M1486,1625.11l9.31-1.46s18.13,1.69,68.11,15.47c10.69,1.78,25.28,33-6.07,34.22s-69.5,24.57-69.5,24.57Z" transform="translate(-303.34 -43)"/><path class="cls-66" d="M1160.58,1770.39s4.57,40.51,98.78,36.83,262.52-101.49,261.46-152.82-63.69-30.81-128.54-1.15c-54.73,25-139.28,39.54-156.6,42.23C1213.49,1698.92,1155.22,1750.92,1160.58,1770.39Z" transform="translate(-303.34 -43)"/><g class="cls-48"><path class="cls-67" d="M1283.85,1719.61c43.61-4.44,53.41-35.74,107.67-44.79,35.17-5.86,47.58,4.53,65.51-7.48,14.15-9.48,21.38-26,24.85-43.95-24.05,2-56.51,14.72-89.6,29.86-53.16,24.32-134.44,38.7-154.94,42-.61.09-14.36-4.82-14.36-4.82s-10.23,5.84-17.57,10.46C1234,1716.18,1267.93,1721.23,1283.85,1719.61Z" transform="translate(-303.34 -43)"/></g><path class="cls-68" d="M677.69,1789.36c-27.92,44-13.43,93.68,2.26,127.89,4.73.65,7.31,2.33,11.94,4.13,41.81,16.22,86.71,24.39,130.21,33.37,9.36,1.94,18.55,2.39,28,3.61l9.68,1s62.58-132.63,8.41-171.86-16.82-149.82-3.74-211.09c35.49-166.26-148.09-175-119.56-392.3,7.59-57.79,41.39-165.47-1.24-217.94-48.57-59.78-95.9-13.7-125.79-62.27-46.71-75.91-134-112.47-197.27-49.08-62.46,62.57-16.08,209.7,130.05,342.35,94,107,92,135.1,74.69,201.77-12.14,46.7-73.78,164.39-15.87,222.3S709.61,1739,677.69,1789.36Z" transform="translate(-303.34 -43)"/><g class="cls-69"><path class="cls-13" d="M778.39,1942.69l-3.38,0c.15-19.37,0-38.93-.28-58.13-2.44-142-18.05-278.64-46.39-406.09-24-108-57.47-210.89-99.45-305.89-33.76-76.38-73.18-148.09-117.17-213.12-30.91-45.69-63.74-87.64-97.59-124.69-5.85-6.41-12.23-12.67-18.39-18.72-8.32-8.17-16.93-16.61-24.46-25.62l2.59-2.17c7.43,8.89,16,17.27,24.23,25.38,6.2,6.08,12.61,12.37,18.53,18.85,33.95,37.17,66.89,79.25,97.88,125.08,44.11,65.2,83.63,137.08,117.47,213.64,42.07,95.21,75.6,198.34,99.65,306.53,28.4,127.67,44,264.53,46.48,406.76C778.44,1903.7,778.53,1923.29,778.39,1942.69Z" transform="translate(-303.34 -43)"/><path class="cls-13" d="M675.27,1290.47c-42.64-134.43,40.16-360.61,41-362.88l3.17,1.17c-.84,2.26-83.24,227.36-41,360.69Z" transform="translate(-303.34 -43)"/><path class="cls-13" d="M760.91,1673.86c-17.86-92.49-175.86-183.51-177.46-184.42l1.67-2.93c1.61.91,161,92.7,179.11,186.71Z" transform="translate(-303.34 -43)"/><path class="cls-13" d="M766.59,1728.06c-.81-63.12,31.66-149.41,91.43-243,1.3-2,2.42-3.81,2.59-4.14l1.28.63h2c0,.64,0,.64-3,5.32-59.42,93-91.7,178.64-90.89,241.11Z" transform="translate(-303.34 -43)"/><path class="cls-13" d="M774.78,1907.24c-20.07-64.15-113.57-101-114.51-101.36l1.22-3.15c1,.37,96,37.79,116.51,103.5Z" transform="translate(-303.34 -43)"/><path class="cls-13" d="M780,1943.58l-3.17-1.17c19.46-52.56,54.6-101.2,107.42-148.7l2.26,2.51C834.08,1843.35,799.24,1891.55,780,1943.58Z" transform="translate(-303.34 -43)"/><path class="cls-13" d="M537.06,998.24c-27.79-73.19-40-156.38-44-183.72-.7-4.75-1.25-8.51-1.44-9.11l3.2-1.06c.26.79.61,3.1,1.57,9.68,4,27.25,16.16,110.16,43.82,183Z" transform="translate(-303.34 -43)"/><path class="cls-13" d="M599.54,1110c-44-56.55-192.36-74.45-193.85-74.62l.39-3.36c6.16.72,151.22,18.25,196.13,75.9Z" transform="translate(-303.34 -43)"/></g><path class="cls-70" d="M676.05,1916.59c.58.25,1.15.53,1.75.76,42.06,16.23,86.7,24.39,130.2,33.38,5.86,1.21,11.76,2.22,17.68,3.12,7.85-22,13.87-54.34-14.3-63-43.74-13.46-44.2-90.58-32-117.77,15.14-33.65,48.79-112.72-18.51-134.6-56-18.2-95.9-18.5-99.27-90.85s-42.48-117.77-108.09-114c-69,4-124.93-88.32-181.71-58-98.94,52.77-10.93,212.83,108.52,259.94s50.39,89.74,46.69,148.9c-5,80.75,104.31,64.35,132.91,96.32C669.65,1891.57,674.3,1904.13,676.05,1916.59Z" transform="translate(-303.34 -43)"/><g class="cls-71"><path class="cls-13" d="M743.27,1937.44c-45.83-232.78-204.4-442.17-413.82-546.46l1.51-3c210.33,104.75,369.59,315,415.62,548.83Z" transform="translate(-303.34 -43)"/><path class="cls-13" d="M710.63,1812.14h-3.37c.42-95.13,82-168.72,82.81-169.45l2.24,2.52C791.5,1645.93,711.05,1718.54,710.63,1812.14Z" transform="translate(-303.34 -43)"/><path class="cls-13" d="M733.63,1894.69c-43.85-82.14-214.44-94.58-216.16-94.7l.23-3.37c1.73.12,174.19,12.71,218.91,96.47Z" transform="translate(-303.34 -43)"/><path class="cls-13" d="M592.41,1608.82c-30.21-70.51,15.9-177.94,16.37-179l3.1,1.35c-.47,1.06-46,107.16-16.36,176.33Z" transform="translate(-303.34 -43)"/><path class="cls-13" d="M489,1498.44c-71.78-44.55-183.79-20.5-184.92-20.26l-.72-3.29c1.13-.26,114.49-24.58,187.42,20.68Z" transform="translate(-303.34 -43)"/></g><path class="cls-72" d="M870.53,1959.31l1.11,5.46c-94.6-.66-209.11-46.26-210.22-46.72-.82-.33,1.13-6.23,1.47-7a1.6,1.6,0,0,1,2.1-.88c1.1.45,111.58,45.31,205.55,46a1.61,1.61,0,0,1,0,3.22Z" transform="translate(-303.34 -43)"/><path class="cls-14" d="M2366,855l-493.94-25.79c-13.74-.72-22.45-12-19.44-25.11l82.53-359.26c3-12.94,16.32-22.27,29.77-20.86l484.14,50.85c11.78,1.24,19.18,12,16.55,24.09l-73,335C2389.9,846.22,2378,855.64,2366,855Z" transform="translate(-303.34 -43)"/><path class="cls-73" d="M2372.17,856.63l-493.39-25.88c-13.71-.72-22.43-11.8-19.43-24.75l82.1-353.9c3-12.75,16.28-21.93,29.72-20.52l483.61,50.55c11.77,1.23,19.17,11.86,16.55,23.75l-72.64,330C2396,848,2384.17,857.26,2372.17,856.63Z" transform="translate(-303.34 -43)"/><polygon class="cls-16" points="2118.33 689.37 1581.71 651.82 1579.32 662.11 2116.22 698.96 2118.33 689.37"/><polygon class="cls-16" points="1967.65 419.95 1908.83 681.81 1918.85 682.5 1977.53 420.99 1967.65 419.95"/><path class="cls-17" d="M2132.75,773.1l-194-12a1.34,1.34,0,0,1-1.29-1.68l4-17.31a2,2,0,0,1,2-1.47l193.83,12.5a1.3,1.3,0,0,1,1.23,1.64l-3.81,16.87A1.91,1.91,0,0,1,2132.75,773.1Z" transform="translate(-303.34 -43)"/><path class="cls-14" d="M2175.27,814l-245.53-13.93a1.34,1.34,0,0,1-1.3-1.68l4-17.33a2,2,0,0,1,2-1.48l245.28,14.57a1.28,1.28,0,0,1,1.21,1.62l-3.78,16.79A1.91,1.91,0,0,1,2175.27,814Z" transform="translate(-303.34 -43)"/><polygon class="cls-14" points="2126.82 525.42 1984.64 512.29 1997.18 456.25 2138.96 470.44 2126.82 525.42"/><polygon class="cls-14" points="2097.49 658.34 1954.31 647.76 1979.28 536.2 2121.64 548.88 2097.49 658.34"/><path class="cls-16" d="M2087.19,539.79c23,2.12,37.47,21.78,32.45,43.87a44.37,44.37,0,0,1-8.07,17L2155,626.57a101.87,101.87,0,0,0,17.86-38.3c11.38-50.28-21.43-95.27-73.76-100.45l-.41,0-11.87,52Z" transform="translate(-303.34 -43)"/><path class="cls-74" d="M2111.57,600.63c-9.77,12.91-26.18,21.11-42.78,19.76-23.2-1.89-38-21.63-32.89-44,5.09-22.2,27.91-38.53,50.88-36.63l11.87-52c-52.92-5-106,32.44-117.89,83.85-11.9,51.65,22.52,97,76.09,101,38.27,2.84,75.94-16.27,98.11-46.09Z" transform="translate(-303.34 -43)"/><g class="cls-75"><path class="cls-76" d="M1894.49,613.79c-6.78,6.1,17.76,59.41,62,101.24,44.82,42.39,78.56,43.36,113.64,93.75,17,24.36,10.83,26.66,24,44.17,51.64,68.58,187.72,89.32,242.52,36.41,5.73-5.53,18.54-30,44.16-79A582,582,0,0,0,2410,744c11.27-30.55,17.49-47.79,11.36-52.69-12.54-10-55.91,44.56-84.71,32-18.22-7.93-8.95-37.75-33.06-58.88-19.49-17.08-46-16.23-52.95-16-60.09,1.9-66.86,68.12-123.19,80.58-46.84,10.35-96.41-23.43-168.91-72.84C1919.85,629.77,1899.46,609.32,1894.49,613.79Z" transform="translate(-303.34 -43)"/></g><path class="cls-77" d="M1904.31,636l-12.4-12.4s-9.3-12-3.1-29.05,14.72-12.4,14.72-12.4l-2.32,12s-1.55,7.75,5.81,17.43c6.59,11.62,7.75,20.53,7.75,20.53Z" transform="translate(-303.34 -43)"/><path class="cls-78" d="M2420.34,684.3l13.94-12.66,6.2-23s17.05,6.72,7.75,28.41c-5.94,7.24-20.53,18.08-26.73,28.67S2420.34,684.3,2420.34,684.3Z" transform="translate(-303.34 -43)"/><path class="cls-79" d="M2282.94,838.48s66.89-41.32,83.16-56c17-15.35,61.6-74.38,65.47-81.36s-12-20.92-12-20.92-77.74,97.11-175.36,68.45C2259.69,783.47,2282.94,838.48,2282.94,838.48Z" transform="translate(-303.34 -43)"/><path class="cls-80" d="M2292.62,1409.14s12.27,30.86,9,44.55a138,138,0,0,0,21.7-1.94s-5.3-14.07-6.33-21c-1.4-9.42-1.29-24.66-1.29-24.66Z" transform="translate(-303.34 -43)"/><path class="cls-59" d="M2157.38,1481.32a9.61,9.61,0,0,1,2.32,5.67,9.15,9.15,0,0,1-.69,3.8c-2.09,5.51-5.38,6.23-8.93,12.07-2.16,3.57-1.75,4.65-3.74,6.26-2.61,2.12-5.78,2.25-8.52,2.28a152.57,152.57,0,0,1-19.71-1.12q6.6-8.51,14.07-17.26,3.27-3.82,6.53-7.48l12.95-4.37Z" transform="translate(-303.34 -43)"/><path class="cls-81" d="M2146.62,1418.47s-7.4,38.61,2,49.42c8,10.82-3.87,3.1-3.87,3.1l-14.2,12.4-8.53,14.72s7.85-37.79,5.76-52.78-3.14-25.11-3.14-25.11Z" transform="translate(-303.34 -43)"/><path class="cls-82" d="M2183.24,748.35c-36-6.08-87.59,12.16-147.21-19.37-58.66-31-93.32-76.82-113.51-106.15l-26.33,13c14.91,25.73,50,80.87,96.56,119.25,58.58,48.33,115.89,51.15,147.1,90.62C2154.53,831.17,2200.82,751.31,2183.24,748.35Z" transform="translate(-303.34 -43)"/><path class="cls-83" d="M2118.72,996.14s-19.88,17.79-19.88,91,9.42,232.27,9.42,232.27l15.06,113.86s15.63.55,26.09-2.59c9.42-42.89,24.76-115.46,17.44-176.14C2163.71,1188.65,2193,1106,2193,1106s25.11,83.7,42.9,125.54,51.65,173,54.78,182.37c20.82,1.89,29.71-3.61,29.71-3.61s-13.35-141.09-25.9-194.45-11.51-182-32.44-218.66C2215,978.35,2118.72,996.14,2118.72,996.14Z" transform="translate(-303.34 -43)"/><path class="cls-84" d="M2118.72,996.14s-19.88,17.79-19.88,91,9.42,232.27,9.42,232.27l15.06,113.86s15.63.55,26.09-2.59c9.42-42.89,24.76-115.46,17.44-176.14C2163.71,1188.65,2193,1106,2193,1106s25.11,83.7,42.9,125.54,51.65,173,54.78,182.37c20.82,1.89,29.71-3.61,29.71-3.61s-13.35-141.09-25.9-194.45-11.51-182-32.44-218.66C2215,978.35,2118.72,996.14,2118.72,996.14Z" transform="translate(-303.34 -43)"/><path class="cls-85" d="M2222,1130.33c6.2,40.29,18.6,62,49.59,89.88,24.8,18.6,6.2,58.89,15.5,89.88,3.1,9.3,12.4,18.6,15.5,27.89,11.53,23.07.76,51.28,6,75.71,8.13-1.13,11.83-3.39,11.83-3.39s-13.35-141.09-25.9-194.45-11.51-182-32.44-218.66c-47.08-18.84-143.33-1.05-143.33-1.05s-19.88,17.79-19.88,91c0,5.95.06,12.46.18,19.4,20.63,18.26,62.84,22.32,88.87,2.08a12.27,12.27,0,0,1,5-2.26l.13-.38s.05.14.11.36C2205,1104.2,2219.3,1119.58,2222,1130.33Z" transform="translate(-303.34 -43)"/><path class="cls-59" d="M2298.43,1465.4s-3,0-2.8,3.95-1.38,17.54,14.17,18.17,17.94-1.1,18.45-1.1-4.08-13-4.08-13l-5-6.37-13.38-1.4Z" transform="translate(-303.34 -43)"/><path class="cls-60" d="M2332.9,1479c-.33-3.28-2.17-8.45-4-12.6-2.74-6.18-.49-8.49-3.11-14.11a16.84,16.84,0,0,0-3.7-5.61,16,16,0,0,0-11-4.19,11.2,11.2,0,0,0-5.17,1.22,12,12,0,0,0-4.65,4.9c-1.62,2.66-1.24,3.48-3.74,11.11a27.47,27.47,0,0,0-1.39,7.17c4.08,0,19.75.64,23.06,3.06a13,13,0,0,1,5,10.57c0,4.08,2,6,4.08,5.86C2330.07,1486.31,2333.69,1482.94,2332.9,1479Z" transform="translate(-303.34 -43)"/><path class="cls-60" d="M2144.63,1462.47c3.5.06,6.07,2.84,8,9.56s11.23,12.65.39,11.23-18.73,14-22.6,19.63-14.28,10.73-14,5.18,4.85-8.15,6.14-13.83S2136.65,1462.34,2144.63,1462.47Z" transform="translate(-303.34 -43)"/><path class="cls-86" d="M2218.37,746c-17.56-.51-62.26-5.39-83.17,15.5-21.37,21.36.28,47-3.58,82.22-2.61,23.87-1.67,37.93-6.2,77a243,243,0,0,1-5,27.66c-6,25.44-16.35,75.47-21.93,88,17.89,9.19,64,25.64,118.92,17.46a185.35,185.35,0,0,0,59.29-19.53c-14.26-43.15-11.59-102.27-6.32-123.55,10.42-42,12.77-58.53,42.22-119,8.12-16.67-11.16-7.33-23.5-22C2270.2,747.35,2236.09,746.54,2218.37,746Z" transform="translate(-303.34 -43)"/><path class="cls-87" d="M2166.2,856.05c.89-7.76,2.35-21.95-4.65-36.81a56.64,56.64,0,0,0-12.4-17c-15.58-14.31-35.68-13.36-58.62-15a356.73,356.73,0,0,1-70.48-12.45c44.07,27.64,85.12,36.18,112,62.39,0,2.17-.19,4.37-.44,6.61-2.61,23.87-1.67,37.93-6.2,77a243,243,0,0,1-5,27.66c-6,25.44-16.35,75.47-21.93,88,17.89,9.19,64,25.64,118.92,17.46a185.35,185.35,0,0,0,59.29-19.53c-4.35-13.17-7.12-27.84-8.73-42.46-20.2-.09-49.59-3.27-80.12-18.75-17-8.62-25.53-12.94-30.6-22.47C2147.55,932.29,2159.38,915.26,2166.2,856.05Z" transform="translate(-303.34 -43)"/><path class="cls-88" d="M2192.83,694c2.54-19.62,18.05-32.19,21.44-34.88,14.17-11.27,17.05-12.4,21.92-13.33l6.64-1s.36,0,.73,0c3.89.23,15.55,4.78,17.67,6.27,6.78,4.77,1.79,38.5-18.74,80.45l-2.43,10.66c17.9,3.14,22.33,6.37,22.47,9,.31,5.58-19.29,12.71-37.45,13.17-22.77.58-46.95-9.22-46.49-16.53.19-3,4.49-6.61,21-10.19l7.75-10.91C2205,723.89,2191,708.49,2192.83,694Z" transform="translate(-303.34 -43)"/><path class="cls-89" d="M2236.19,632c-7.15,7-8.9,19.11-6.78,27.85,1.26,5.23,2.89,5.78,2.66,9.21-.65,9.61-18.17,13.8-17.2,18.65.7,3.46,9.82,2.19,11.39,6.54,1.72,4.76-8.29,8.85-12.6,20.83-.67,1.86-4.74,13.19.49,19.86,4.87,6.22,15.79,4.75,28.09,3.15a98.34,98.34,0,0,0,26.16-7c9-4,18.64-8.19,26.65-17.93,1.89-2.31,13-16.3,12.11-35.85-1.23-25.69-22.71-47.62-44.81-51.11C2258.77,625.65,2245,623.47,2236.19,632Z" transform="translate(-303.34 -43)"/><path class="cls-90" d="M2221,686.65c5.17-3.09,9.1,3.55,6.67,9.36s-10.61,9.44-15.57,6S2214,690.81,2221,686.65Z" transform="translate(-303.34 -43)"/><path class="cls-91" d="M2168.91,746.8l12.59-3.88s3.29,17.05,43.78,19.18a60.46,60.46,0,0,0,37-12.59L2272,754s-20,25.4-50,24.8C2183.24,778,2168.91,746.8,2168.91,746.8Z" transform="translate(-303.34 -43)"/><g class="cls-92"><polygon class="cls-93" points="965.6 1037.32 605.3 1634.96 1571.83 1634.96 1228.71 1049.67 965.6 1037.32"/></g><path class="cls-94" d="M1396.2,294.3a1.68,1.68,0,0,1-1.68-1.68V267.83a1.68,1.68,0,1,1,3.36,0v24.79A1.68,1.68,0,0,1,1396.2,294.3Z" transform="translate(-303.34 -43)"/><path class="cls-94" d="M1396.2,976.12a1.68,1.68,0,0,1-1.68-1.68V292.62a1.68,1.68,0,1,1,3.36,0V974.44A1.68,1.68,0,0,1,1396.2,976.12Z" transform="translate(-303.34 -43)"/><path class="cls-94" d="M1396.2,1000.91a1.68,1.68,0,0,1-1.68-1.68V974.44a1.68,1.68,0,1,1,3.36,0v24.79A1.68,1.68,0,0,1,1396.2,1000.91Z" transform="translate(-303.34 -43)"/><path class="cls-94" d="M1396.2,151.73a1.68,1.68,0,0,1-1.68-1.68V125.26a1.68,1.68,0,1,1,3.36,0v24.79A1.68,1.68,0,0,1,1396.2,151.73Z" transform="translate(-303.34 -43)"/><path class="cls-94" d="M1396.2,199.25a1.68,1.68,0,0,1-1.68-1.68V150.05a1.68,1.68,0,1,1,3.36,0v47.52A1.68,1.68,0,0,1,1396.2,199.25Z" transform="translate(-303.34 -43)"/><path class="cls-94" d="M1396.2,224.05a1.68,1.68,0,0,1-1.68-1.68v-24.8a1.68,1.68,0,1,1,3.36,0v24.8A1.68,1.68,0,0,1,1396.2,224.05Z" transform="translate(-303.34 -43)"/><path class="cls-94" d="M1396.2,87a1.68,1.68,0,0,1-1.68-1.68V44.68a1.68,1.68,0,1,1,3.36,0V85.36A1.68,1.68,0,0,1,1396.2,87Z" transform="translate(-303.34 -43)"/><path class="cls-95" d="M1540,1107.78v-43.89a62.24,62.24,0,0,0-62-62.05H1314.48a62.23,62.23,0,0,0-62,62.05v43.89Z" transform="translate(-303.34 -43)"/><ellipse class="cls-96" cx="1093.06" cy="1063.26" rx="143.97" ry="28.5"/><path class="cls-97" d="M1396.4,1069.31c-61,0-114.14-8.65-126.46-20.57a1,1,0,1,1,1.4-1.44c12,11.6,64.58,20,125.06,20,56.22,0,106.59-7.4,122.51-18a1,1,0,0,1,1.38.27,1,1,0,0,1-.27,1.39C1503.54,1062,1453.87,1069.31,1396.4,1069.31Z" transform="translate(-303.34 -43)"/><path class="cls-98" d="M1453,1004.06a24.57,24.57,0,0,0-24.49-24.14h-64.55a24.58,24.58,0,0,0-24.5,24.51h0s0,.08,0,.12c0,6.21,25.44,11.24,56.83,11.24s56.83-5,56.83-11.24A2.7,2.7,0,0,0,1453,1004.06Z" transform="translate(-303.34 -43)"/><path class="cls-99" d="M2689.81,1816.53c18.43,27.52,114.23-.51,176.25-30.66,100.16-48.69,96.32-95.19,180.08-136,121.12-59,240.15-15.9,245.22-41.18,3.33-16.63-45.71-47.32-97.71-57.48-60.4-11.8-89.48,11-229.89,54.6-113.39,35.21-124.82,29.78-163.38,55.08C2729.41,1707.44,2671.52,1789.23,2689.81,1816.53Z" transform="translate(-303.34 -43)"/><path class="cls-59" d="M3260.71,1455.4c3.2-4.1,10.39-5.63,15.56-4.07,10.14,3.07,10.06,22.78,12.45,43.83,2.72,23.88,6.63,49.21-4.07,49.09-4.76-.06-13.37-14.56-15.08-28a135.38,135.38,0,0,0-8-31,85.35,85.35,0,0,1-2.29-13.25C3258.48,1463.59,3258,1458.82,3260.71,1455.4Z" transform="translate(-303.34 -43)"/><path class="cls-100" d="M3273.76,1472.53c0,10.31-17.39,14.48-27.9,14.48s-10.18-4.17-10.18-14.48.38-17.84,10.9-17.84S3273.76,1462.21,3273.76,1472.53Z" transform="translate(-303.34 -43)"/><path class="cls-101" d="M2815.53,1653.23l-17.13,67.88c1.32,2.26,4.61,7.08,10.24,8.12,6.3,1.15,11.78-3.12,13.83-4.91,4.45-32,12.23-52.29,19.87-65.59,5.36-9.34,10.62-15.21,10.21-18.55C2851.82,1634.14,2833.32,1643.17,2815.53,1653.23Z" transform="translate(-303.34 -43)"/><path class="cls-102" d="M2774.55,1242.76l-10.46,1.55s-18.6-.77-29.46,1.17-17.05,7.36-17.05,18.6,13.71,12.62,25.58,14c7.22.81,17.06-5.28,24.56-10.9,5.27-4,18.74-7.5,18.74-7.5Z" transform="translate(-303.34 -43)"/><path class="cls-103" d="M2847.55,865.79c-13.21,8.81-15.63,34.1-12.12,49.38a112.18,112.18,0,0,0,11.94,30.41c2.63,6.73,4.92,13,6.75,18.7,1.34,4.15,2.28,7.45,3.14,11a137.86,137.86,0,0,1,3.32,20.08.85.85,0,0,0,.85.78h.08a.85.85,0,0,0,.77-.93,141.05,141.05,0,0,0-3.35-20.33c-.88-3.61-1.83-6.94-3.19-11.14-1-3-2.06-6.15-3.26-9.46a92.55,92.55,0,0,1,11.18,31.22c7.26,41.94,47.55,54.2,71.22,45.16,20.95-8,36.14-28.79,38.9-48.89C2982.42,918.87,2876.59,846.43,2847.55,865.79Z" transform="translate(-303.34 -43)"/><path class="cls-104" d="M2930.57,1226.5c-30.83,53.65-50.78,133.42-76.61,223.75-23.21,81.13-43.39,153.77-53.58,210.62a111.48,111.48,0,0,0,17.85,12c26.52,14.36,52.8,14.53,67.47,13.33a542.8,542.8,0,0,1,7.6-63.22c6.71-37.23,18.66-106.35,47.15-169,19.77-43.44,29.66-65.16,46.36-80,10.26-9.13,34.05-28.45,38.15-57.86a25.55,25.55,0,0,0,.22-3.71C3025.06,1271.3,2948.68,1234.68,2930.57,1226.5Z" transform="translate(-303.34 -43)"/><path class="cls-105" d="M2930.57,1226.5c-16.85,29.32-30.44,66.47-43.53,108.85,30.84,16.53,57.15,44.19,45.11,77.91-11.49,34.48-54.6,48.85-63.22,89.08-8.62,43.1,11.5,80.46,2.87,123.57-4.25,20.19-5.74,40.39-6.53,60.44a132.1,132.1,0,0,0,20.43-.12,541,541,0,0,1,7.61-63.22c6.7-37.23,18.65-106.35,47.14-169,19.77-43.44,29.66-65.16,46.36-80,10.26-9.13,34.05-28.45,38.15-57.86a25.55,25.55,0,0,0,.22-3.71C3025.06,1271.3,2948.68,1234.68,2930.57,1226.5Z" transform="translate(-303.34 -43)"/><path class="cls-106" d="M2959.37,1302.31a13.37,13.37,0,0,0-1,4.47c-.6,15.26,27.6,35.24,88.9,133,10.82,17.27,29.28,47.5,59.19,56.46a60.1,60.1,0,0,0,9.61,2.06,61.58,61.58,0,0,0,17.15-.17c7.42-1.05,36.16,0,118,7.33.65-1.46,14.62-33.93-3.27-56.4a43,43,0,0,0-16.3-12.38c-19.21-2.89-35.33-4.37-47.5-5.19-14.76-1-24.13-1-34.42-.11-7.13.63-13,1.58-17.18,2.34-29.27-84.4-14.93-157.71-50.11-159.28C3075.43,1274.15,2966.57,1281,2959.37,1302.31Z" transform="translate(-303.34 -43)"/><path class="cls-107" d="M2864.62,1075.6c-17.87,6.2,9,70.08-27.63,119.05-18.51,24.74-46.38,36.51-70.71,42.55,4.94,15.87,4.11,15.92,9,31.79,12.76.52,60.38,1,100.66-33.63,10.27-8.82,42.06-36.13,44.12-78.59C2922.74,1102.69,2881.46,1069.76,2864.62,1075.6Z" transform="translate(-303.34 -43)"/><path class="cls-108" d="M2886.62,1013c-9,10.7-12.72,20.55-17.46,33.39-7.51,20.35-11.8,32-11.24,46.39,1.07,27.71,19.36,47.85,28.11,56.23,19.13,61.4,23.55,75.77,23.57,76l0,.39a174.72,174.72,0,0,1-5.64,31.35c-9.49,34.42-22.73,40.85-19.35,53.25,5.92,21.75,54.45,30.64,91.37,26.71,19.57-2.08,21.36-6.22,37.95-9.13,69.69-12.24,101.79,49.61,147.37,33.73,32.4-11.28,32.87-48.82,75-56.23,14.7-2.58,30.95-1,32.33-6.56s-12.35-14.18-23.9-18.74c-24.92-9.84-47.93-3.48-58.1-1.87-45.6,7.2-92-40.21-119.86-68.66-78.74-80.43-76.54-192.36-75.6-215.66-6.25-3.34-29.06-14.57-79.23-1.07A85.66,85.66,0,0,0,2886.62,1013Z" transform="translate(-303.34 -43)"/><path class="cls-109" d="M3268.63,1298.52c1.34-5.45-12.35-14.18-23.9-18.74-24.92-9.84-47.93-3.48-58.1-1.87-45.6,7.2-92-40.21-119.86-68.66-39.54-40.39-58.66-88.72-67.79-129.79-6.21,45.78-22.66,92.17-3.61,132.64,14.37,37.36,69,34.48,89.08,77.59,8.63,17.24,31.61,14.37,51.73,17.24,14.37,0,20.12,23,40.23,20.12,8.62-2.88,14.37-17.25,20.12-17.25,7.3,0,15.18.1,23.3.52a61.42,61.42,0,0,1,16.47-5.24C3251,1302.5,3267.25,1304.12,3268.63,1298.52Z" transform="translate(-303.34 -43)"/><path class="cls-110" d="M3031.53,1305.54c-5.28,4.2-17.18,12.55-31.63,12.77a33.38,33.38,0,0,1-11.86-1.73,37.57,37.57,0,0,1-15.55-10.51c20.38-10.12,34-14.37,34-14.37l11-2.93Z" transform="translate(-303.34 -43)"/><path class="cls-111" d="M3196.72,1217.75l-261.95,105.48a13.3,13.3,0,0,1-17.3-7.37L2858.2,1167a13.3,13.3,0,0,1,7.37-17.3l261.95-105.48a13.31,13.31,0,0,1,17.31,7.37l59.26,148.84A13.28,13.28,0,0,1,3196.72,1217.75Z" transform="translate(-303.34 -43)"/><path class="cls-112" d="M3201.63,1219.3l-262,105.48a13.3,13.3,0,0,1-17.3-7.37l-59.27-148.84a13.28,13.28,0,0,1,7.37-17.3l261.95-105.48a13.3,13.3,0,0,1,17.3,7.37L3209,1202A13.29,13.29,0,0,1,3201.63,1219.3Z" transform="translate(-303.34 -43)"/><path class="cls-16" d="M2977.56,1184.5c14.21.25,27.08,12.13,28.74,26.49a24.53,24.53,0,0,1-1.26,11.21l31.61,14.62a56.52,56.52,0,0,0,2.69-25.35c-3.78-32.79-33.14-60-65.68-60.76h-.25l3.9,33.8Z" transform="translate(-303.34 -43)"/><path class="cls-113" d="M3005,1222.2a22,22,0,0,1-21.45,14.53c-14.25-.16-27.23-12-28.9-26.49s8.5-25.84,22.62-25.73l-3.9-33.8c-32.66-.56-56.26,25.86-52.43,59s33.78,60.5,66.5,60.74c23.5.18,42.11-13.64,49.17-33.67Z" transform="translate(-303.34 -43)"/><path class="cls-114" d="M3164.9,1135.52l-109.25,44.73a1,1,0,0,1-1.32-.57l-4.2-10.41a1,1,0,0,1,.55-1.33L3160,1123.37a1,1,0,0,1,1.29.56l4.14,10.28A1,1,0,0,1,3164.9,1135.52Z" transform="translate(-303.34 -43)"/><path class="cls-114" d="M3155.68,1113.4l-109.24,44.73a1,1,0,0,1-1.32-.56l-4.21-10.41a1,1,0,0,1,.55-1.33l109.32-44.57a1,1,0,0,1,1.29.56l4.15,10.27A1,1,0,0,1,3155.68,1113.4Z" transform="translate(-303.34 -43)"/><path class="cls-114" d="M3182.87,1181.13l-109.25,44.73a1,1,0,0,1-1.32-.57l-4.21-10.41a1,1,0,0,1,.56-1.33L3178,1169a1,1,0,0,1,1.29.57l4.15,10.27A1,1,0,0,1,3182.87,1181.13Z" transform="translate(-303.34 -43)"/><path class="cls-114" d="M3173.65,1159l-109.24,44.73a1,1,0,0,1-1.32-.56l-4.21-10.41a1,1,0,0,1,.55-1.33l109.32-44.57a1,1,0,0,1,1.29.56l4.15,10.27A1,1,0,0,1,3173.65,1159Z" transform="translate(-303.34 -43)"/><path class="cls-115" d="M2959.45,1017.55c26.69-25.91,109.75,3.47,141,71.29,26.9,58.33,34.78,103.07,7.55,160.43a141.75,141.75,0,0,1-70.35,68.59c-2.17-3.81-10.17-10.52-20.68-26.43,26.49-9.93,51.42-57.76,54.22-87.15,3.72-39-16.92-76.58-36.18-90.37-18-12.89-72.75,1.84-90-10.29C2922.24,1087.51,2938.94,1037.47,2959.45,1017.55Z" transform="translate(-303.34 -43)"/><path class="cls-116" d="M2914.32,911.68c-4.64,22-6.53,48.42,8.23,62.08,13,12,31.63,7.41,32.95,13.71,2.6,12.44-68.06,40.26-73.37,31.41-2.62-4.36,19.55-14.38,19.11-30.36-.18-6.64-3.19-11.25-20.33-34.86l-5.72,2Z" transform="translate(-303.34 -43)"/><path class="cls-117" d="M3139,934.84c-11.24-34.25-45.84-51.59-52.38-54.55-40.66-18.4-56.41,6.43-104.37-10.88-2.09-.75-4.07-1.53-6-2.32,18.48,5.74,29.22,6,38.24,6.13l2.95.07h.89c5.28,0,12.36-1.16,19.23-2.28,4.52-.74,8.79-1.44,12.06-1.72a58.75,58.75,0,0,1,20.12,1.49c.95.21,1.9.42,2.87.61a.7.7,0,0,0,.28-1.38c-1-.19-1.9-.4-2.85-.6a59.45,59.45,0,0,0-20.54-1.52c-3.32.28-7.62,1-12.17,1.73-6.86,1.12-14.64,2.37-19.85,2.25l-3-.06c-10.73-.21-23.92-.48-50-10.27-3.17-1.65-6.16-3.33-9.12-5l3,1.16c7.66,3,15.58,6.08,23.46,7.35a56.57,56.57,0,0,0,8.95.7c.79,0,1.58,0,2.37,0a.86.86,0,0,0,.82-.89.83.83,0,0,0-.89-.82,55.65,55.65,0,0,1-11-.64c-7.7-1.24-15.53-4.3-23.11-7.26-3-1.17-6.09-2.37-9.07-3.43-1.28-.44-2.52-.86-3.77-1.25A120.68,120.68,0,0,0,2907,838.1c-15.92-2.72-45.52-2.31-53,5.88-8.32,9,27.53,18.58,40.35,79.36,3.27,15.48,11.7,52.73,46.18,83.51,8,7.11,73.08,63.61,137.77,36.31C3121.26,1025,3152.09,974.81,3139,934.84Z" transform="translate(-303.34 -43)"/><g class="cls-48"><path class="cls-118" d="M3139,934.84c-11.24-34.25-45.84-51.59-52.38-54.55a86.75,86.75,0,0,0-12.3-4.52,55.37,55.37,0,0,1,12,12.28c3.27,4.61,11.2,15.81,9.37,29.05-1.7,12.32-10.36,15.63-18.74,29-14.06,22.51-4,36.07-13.12,48.74-16.16,22.36-71.75,13.55-106.84-1.88a160.82,160.82,0,0,1-53.51-38.66,141.42,141.42,0,0,0,36.94,52.5c8,7.11,73.08,63.61,137.77,36.31C3121.26,1025,3152.09,974.81,3139,934.84Z" transform="translate(-303.34 -43)"/></g><path class="cls-119" d="M2904.69,934.85s1.22,25.87-24,29.73c-31.08,4.76-46.65-76.82-39.78-82.63,8-6.73,17.61,5.46,37.35-2.2,8.31-3.23,14.1-15.38,20.22-4.11,7,12.83,6.31,37.44,6.31,37.44s6.5-7.18,8.71,0C2916.39,922.44,2910.08,929.5,2904.69,934.85Z" transform="translate(-303.34 -43)"/><path class="cls-120" d="M2842.31,852.92c-8.38,11.52-10.95,31.86-2.65,40.67,11.91,12.65,38.81-6.36,53.25,9.14,6.32,6.79,7.57,17.34,10.25,16.77,2.22-.48,2.47-8,2.87-14.12,2.24-34,9.92-39,6-48C2904.12,838.88,2859.53,829.25,2842.31,852.92Z" transform="translate(-303.34 -43)"/><path class="cls-59" d="M2761.17,1700.62c2.21-3.08,16.73-1.51,24.07,2.52,12.3,6.76,19.47,18.82,22.63,20.47,7.18,3.77,14,.54,14.6.71,0,0,4.79,9.71-3.83,14.38S2747.52,1719.66,2761.17,1700.62Z" transform="translate(-303.34 -43)"/></g></g></svg>